M48
;GenerationSoftware,Autodesk,EAGLE,9.7.0*%
;CreationDate,2024-05-14T07:03:37Z*%
FMAT,2
ICI,OFF
METRIC,TZ,000.000
T5C0.800
T4C0.965
T3C0.980
T2C1.000
T1C1.110
%
G90
M71
T1
X91414Y39878
X103914Y34798
X103914Y39878
X103914Y64008
X103914Y58928
X91414Y64008
X92584Y10668
X97664Y10668
X102744Y10668
X56896Y48261
X91414Y58928
X81696Y58421
X56896Y53341
X56896Y55881
X56896Y58421
X56896Y60961
X56896Y63501
X56896Y66041
X81696Y48261
X81696Y50801
X81696Y53341
X81696Y55881
X81696Y60961
X81696Y63501
X81696Y66041
X47607Y12917
X47607Y30480
X47607Y35560
X60107Y30480
X60107Y35560
X47607Y17997
X60107Y12917
X60107Y17997
X91414Y34798
X56896Y50801
T2
X50857Y43434
X52857Y43434
X54857Y43434
X56857Y43434
T3
X96164Y48006
X99164Y48006
X96164Y72136
X99164Y72136
T4
X68580Y17780
X68580Y33020
X83820Y17780
X83820Y22860
X83820Y25400
X83820Y27940
X83820Y30480
X83820Y33020
X83820Y35560
X83820Y38100
X83820Y40640
X68580Y40640
X68580Y38100
X68580Y35560
X68580Y30480
X68580Y27940
X68580Y25400
X68580Y22860
X68580Y20320
X68580Y15240
X68580Y12700
X83820Y7620
X68580Y7620
X68580Y10160
X71120Y40640
X73660Y40640
X76200Y40640
X78740Y40640
X81280Y40640
X83820Y20320
X83820Y10160
X83820Y12700
X83820Y15240
T5
X62935Y27675
X87122Y63636
X87122Y72136
X65786Y9466
X65786Y17966
X88392Y12514
X51436Y50486
X62935Y19175
X51436Y58986
X89154Y45280
X89154Y53780
X88138Y24198
X88138Y32698
X88392Y21014
M30