G04 EAGLE Gerber RS-274X export*
G75*
%MOMM*%
%FSLAX34Y34*%
%LPD*%
%INTop Copper*%
%IPPOS*%
%AMOC8*
5,1,8,0,0,1.08239X$1,22.5*%
G01*
G04 Define Apertures*
%ADD10C,1.778000*%
%ADD11C,2.000000*%
%ADD12C,1.651000*%
%ADD13C,2.500000*%
%ADD14C,2.184400*%
D10*
X838200Y177800D03*
X838200Y203200D03*
X838200Y228600D03*
X838200Y254000D03*
X838200Y279400D03*
X838200Y304800D03*
X838200Y330200D03*
X838200Y355600D03*
X838200Y381000D03*
X838200Y406400D03*
X685800Y406400D03*
X685800Y381000D03*
X685800Y355600D03*
X685800Y304800D03*
X685800Y279400D03*
X685800Y254000D03*
X685800Y228600D03*
X685800Y203200D03*
X685800Y152400D03*
X685800Y127000D03*
X838200Y76200D03*
X685800Y76200D03*
X685800Y101600D03*
D11*
X514357Y589863D03*
X514357Y504863D03*
X871220Y636364D03*
X871220Y721364D03*
D12*
X508565Y442595D02*
X508565Y426085D01*
X528565Y426085D02*
X528565Y442595D01*
X548565Y442595D02*
X548565Y426085D01*
X568565Y426085D02*
X568565Y442595D01*
D13*
X925836Y106680D03*
X976636Y106680D03*
X1027436Y106680D03*
D11*
X568960Y482610D03*
X568960Y508010D03*
X568960Y533410D03*
X568960Y558810D03*
X568960Y584210D03*
X568960Y609610D03*
X568960Y635010D03*
X568960Y660410D03*
X816960Y482610D03*
X816960Y508010D03*
X816960Y533410D03*
X816960Y558810D03*
X816960Y584210D03*
X816960Y609610D03*
X816960Y635010D03*
X816960Y660410D03*
X881380Y241980D03*
X881380Y326980D03*
X629350Y276750D03*
X629350Y191750D03*
X657860Y94660D03*
X657860Y179660D03*
X883920Y125140D03*
X883920Y210140D03*
X961636Y480060D03*
X991636Y480060D03*
X891540Y452800D03*
X891540Y537800D03*
X961636Y721360D03*
X991636Y721360D03*
D14*
X476065Y304800D03*
X476065Y355600D03*
X601065Y304800D03*
X601065Y355600D03*
X476065Y129171D03*
X476065Y179971D03*
X601065Y129171D03*
X601065Y179971D03*
X914136Y347980D03*
X914136Y398780D03*
X1039136Y347980D03*
X1039136Y398780D03*
X1039136Y640080D03*
X1039136Y589280D03*
X914136Y640080D03*
X914136Y589280D03*
M02*
