G04 EAGLE Gerber RS-274X export*
G75*
%MOMM*%
%FSLAX34Y34*%
%LPD*%
%INBottom Copper*%
%IPPOS*%
%AMOC8*
5,1,8,0,0,1.08239X$1,22.5*%
G01*
G04 Define Apertures*
%ADD10C,1.676400*%
%ADD11C,2.000000*%
%ADD12C,1.930400*%
%ADD13R,1.800000X1.500000*%
%ADD14C,1.108000*%
%ADD15C,5.456000*%
%ADD16C,5.416000*%
%ADD17R,3.800000X3.800000*%
%ADD18C,0.406400*%
%ADD19C,0.606400*%
G36*
X95269Y-2137638D02*
X94476Y-2137799D01*
X-94476Y-2137799D01*
X-94960Y-2137740D01*
X-95692Y-2137395D01*
X-96231Y-2136792D01*
X-96492Y-2136027D01*
X-195645Y-1367238D01*
X-195634Y-1366971D01*
X-195789Y-1366102D01*
X-195805Y-1366004D01*
X-195907Y-1365210D01*
X-196339Y-1364537D01*
X-196390Y-1364451D01*
X-196789Y-1363757D01*
X-197446Y-1363300D01*
X-197526Y-1363241D01*
X-198224Y-1362702D01*
X-198467Y-1362589D01*
X-445931Y-1190337D01*
X-446525Y-1189694D01*
X-704233Y-748161D01*
X-704510Y-747136D01*
X-704510Y74970D01*
X-704451Y75456D01*
X-704106Y76187D01*
X-703502Y76725D01*
X-322724Y298973D01*
X-321699Y299250D01*
X321699Y299250D01*
X322724Y298973D01*
X703502Y76725D01*
X703892Y76430D01*
X704349Y75763D01*
X704510Y74970D01*
X704510Y-747136D01*
X704233Y-748161D01*
X446525Y-1189694D01*
X445931Y-1190337D01*
X198467Y-1362589D01*
X198224Y-1362702D01*
X197526Y-1363241D01*
X197446Y-1363300D01*
X196789Y-1363757D01*
X196390Y-1364451D01*
X196339Y-1364537D01*
X195907Y-1365210D01*
X195805Y-1366004D01*
X195789Y-1366102D01*
X195634Y-1366971D01*
X195645Y-1367238D01*
X96492Y-2136027D01*
X96372Y-2136499D01*
X95936Y-2137180D01*
X95269Y-2137638D01*
G37*
%LPC*%
G36*
X310200Y249738D02*
X317664Y249738D01*
X324560Y252594D01*
X329838Y257872D01*
X332694Y264768D01*
X332694Y272232D01*
X329838Y279128D01*
X324560Y284406D01*
X317664Y287262D01*
X310200Y287262D01*
X303304Y284406D01*
X298026Y279128D01*
X295170Y272232D01*
X295170Y264768D01*
X298026Y257872D01*
X303304Y252594D01*
X310200Y249738D01*
G37*
G36*
X-317664Y249738D02*
X-310200Y249738D01*
X-303304Y252594D01*
X-298026Y257872D01*
X-295170Y264768D01*
X-295170Y272232D01*
X-298026Y279128D01*
X-303304Y284406D01*
X-310200Y287262D01*
X-317664Y287262D01*
X-324560Y284406D01*
X-329838Y279128D01*
X-332694Y272232D01*
X-332694Y264768D01*
X-329838Y257872D01*
X-324560Y252594D01*
X-317664Y249738D01*
G37*
G36*
X-3235Y245571D02*
X3235Y245571D01*
X9212Y248047D01*
X13786Y252622D01*
X16262Y258599D01*
X16262Y265068D01*
X13786Y271045D01*
X9212Y275620D01*
X3235Y278095D01*
X-3235Y278095D01*
X-9212Y275620D01*
X-13786Y271045D01*
X-16262Y265068D01*
X-16262Y258599D01*
X-13786Y252622D01*
X-9212Y248047D01*
X-3235Y245571D01*
G37*
G36*
X-299845Y-212750D02*
X299845Y-212750D01*
X301407Y-212103D01*
X302603Y-210907D01*
X303250Y-209345D01*
X303250Y209345D01*
X302603Y210907D01*
X301407Y212103D01*
X299845Y212750D01*
X-299845Y212750D01*
X-301407Y212103D01*
X-302603Y210907D01*
X-303250Y209345D01*
X-303250Y-209345D01*
X-302603Y-210907D01*
X-301407Y-212103D01*
X-299845Y-212750D01*
G37*
G36*
X466268Y124099D02*
X473732Y124099D01*
X480628Y126956D01*
X485906Y132233D01*
X488762Y139129D01*
X488762Y146593D01*
X485906Y153489D01*
X480628Y158767D01*
X473732Y161623D01*
X466268Y161623D01*
X459372Y158767D01*
X454094Y153489D01*
X451238Y146593D01*
X451238Y139129D01*
X454094Y132233D01*
X459372Y126956D01*
X466268Y124099D01*
G37*
G36*
X-473732Y124099D02*
X-466268Y124099D01*
X-459372Y126956D01*
X-454094Y132233D01*
X-451238Y139129D01*
X-451238Y146593D01*
X-454094Y153489D01*
X-459372Y158767D01*
X-466268Y161623D01*
X-473732Y161623D01*
X-480628Y158767D01*
X-485906Y153489D01*
X-488762Y146593D01*
X-488762Y139129D01*
X-485906Y132233D01*
X-480628Y126956D01*
X-473732Y124099D01*
G37*
G36*
X670028Y22350D02*
X677492Y22350D01*
X684388Y25206D01*
X689666Y30484D01*
X692522Y37380D01*
X692522Y44844D01*
X689666Y51740D01*
X684388Y57018D01*
X677492Y59874D01*
X670028Y59874D01*
X663132Y57018D01*
X657854Y51740D01*
X654998Y44844D01*
X654998Y37380D01*
X657854Y30484D01*
X663132Y25206D01*
X670028Y22350D01*
G37*
G36*
X-677492Y22350D02*
X-670028Y22350D01*
X-663132Y25206D01*
X-657854Y30484D01*
X-654998Y37380D01*
X-654998Y44844D01*
X-657854Y51740D01*
X-663132Y57018D01*
X-670028Y59874D01*
X-677492Y59874D01*
X-684388Y57018D01*
X-689666Y51740D01*
X-692522Y44844D01*
X-692522Y37380D01*
X-689666Y30484D01*
X-684388Y25206D01*
X-677492Y22350D01*
G37*
G36*
X504679Y-30328D02*
X515000Y-31812D01*
X525321Y-30328D01*
X534806Y-25996D01*
X542687Y-19168D01*
X548324Y-10396D01*
X551262Y-391D01*
X551262Y10037D01*
X548324Y20042D01*
X542687Y28814D01*
X534806Y35642D01*
X525321Y39974D01*
X515000Y41458D01*
X504679Y39974D01*
X495194Y35642D01*
X487313Y28814D01*
X481676Y20042D01*
X478738Y10037D01*
X478738Y-391D01*
X481676Y-10396D01*
X487313Y-19168D01*
X495194Y-25996D01*
X504679Y-30328D01*
G37*
G36*
X349099Y-16262D02*
X355568Y-16262D01*
X361545Y-13786D01*
X366120Y-9212D01*
X368595Y-3235D01*
X368595Y3235D01*
X366120Y9212D01*
X361545Y13786D01*
X355568Y16262D01*
X349099Y16262D01*
X343122Y13786D01*
X338547Y9212D01*
X336071Y3235D01*
X336071Y-3235D01*
X338547Y-9212D01*
X343122Y-13786D01*
X349099Y-16262D01*
G37*
G36*
X-355568Y-16262D02*
X-349099Y-16262D01*
X-343122Y-13786D01*
X-338547Y-9212D01*
X-336071Y-3235D01*
X-336071Y3235D01*
X-338547Y9212D01*
X-343122Y13786D01*
X-349099Y16262D01*
X-355568Y16262D01*
X-361545Y13786D01*
X-366120Y9212D01*
X-368595Y3235D01*
X-368595Y-3235D01*
X-366120Y-9212D01*
X-361545Y-13786D01*
X-355568Y-16262D01*
G37*
G36*
X670028Y-97650D02*
X677492Y-97650D01*
X684388Y-94794D01*
X689666Y-89516D01*
X692522Y-82620D01*
X692522Y-75156D01*
X689666Y-68260D01*
X684388Y-62982D01*
X677492Y-60126D01*
X670028Y-60126D01*
X663132Y-62982D01*
X657854Y-68260D01*
X654998Y-75156D01*
X654998Y-82620D01*
X657854Y-89516D01*
X663132Y-94794D01*
X670028Y-97650D01*
G37*
G36*
X-677492Y-97650D02*
X-670028Y-97650D01*
X-663132Y-94794D01*
X-657854Y-89516D01*
X-654998Y-82620D01*
X-654998Y-75156D01*
X-657854Y-68260D01*
X-663132Y-62982D01*
X-670028Y-60126D01*
X-677492Y-60126D01*
X-684388Y-62982D01*
X-689666Y-68260D01*
X-692522Y-75156D01*
X-692522Y-82620D01*
X-689666Y-89516D01*
X-684388Y-94794D01*
X-677492Y-97650D01*
G37*
G36*
X368689Y-187452D02*
X377952Y-187452D01*
X377952Y-178189D01*
X373897Y-179869D01*
X370369Y-183397D01*
X368689Y-187452D01*
G37*
G36*
X384048Y-187452D02*
X393311Y-187452D01*
X391631Y-183397D01*
X388103Y-179869D01*
X384048Y-178189D01*
X384048Y-187452D01*
G37*
G36*
X616689Y-187452D02*
X625952Y-187452D01*
X625952Y-178189D01*
X621897Y-179869D01*
X618369Y-183397D01*
X616689Y-187452D01*
G37*
G36*
X632048Y-187452D02*
X641311Y-187452D01*
X639631Y-183397D01*
X636103Y-179869D01*
X632048Y-178189D01*
X632048Y-187452D01*
G37*
G36*
X368689Y-212852D02*
X393311Y-212852D01*
X391631Y-208797D01*
X388103Y-205269D01*
X387640Y-205077D01*
X387040Y-204693D01*
X386566Y-204037D01*
X386387Y-203249D01*
X386528Y-202452D01*
X386970Y-201775D01*
X387640Y-201323D01*
X388103Y-201131D01*
X391631Y-197603D01*
X393311Y-193548D01*
X368689Y-193548D01*
X370369Y-197603D01*
X373897Y-201131D01*
X374360Y-201323D01*
X374961Y-201707D01*
X375434Y-202363D01*
X375613Y-203151D01*
X375472Y-203948D01*
X375030Y-204625D01*
X374360Y-205077D01*
X373897Y-205269D01*
X370369Y-208797D01*
X368689Y-212852D01*
G37*
G36*
X-26410Y-1809238D02*
X57474Y-1809238D01*
X59341Y-1808465D01*
X92024Y-1775782D01*
X92797Y-1773915D01*
X92797Y-1364007D01*
X92024Y-1362140D01*
X36635Y-1306751D01*
X36201Y-1306107D01*
X36040Y-1305314D01*
X36040Y-1289731D01*
X36165Y-1289029D01*
X36590Y-1288341D01*
X37250Y-1287873D01*
X38040Y-1287699D01*
X38835Y-1287847D01*
X39509Y-1288294D01*
X40395Y-1289181D01*
X43552Y-1290488D01*
X58048Y-1290488D01*
X61205Y-1289181D01*
X63621Y-1286765D01*
X64928Y-1283608D01*
X64928Y-1280192D01*
X63621Y-1277035D01*
X62015Y-1275430D01*
X61581Y-1274786D01*
X61420Y-1273993D01*
X61420Y-1239012D01*
X61557Y-1238280D01*
X61992Y-1237598D01*
X62659Y-1237141D01*
X63452Y-1236980D01*
X108828Y-1236980D01*
X109691Y-1237172D01*
X110340Y-1237654D01*
X185150Y-1320954D01*
X185229Y-1321071D01*
X185309Y-1321131D01*
X188324Y-1324488D01*
X188677Y-1325039D01*
X188844Y-1325830D01*
X188690Y-1326624D01*
X187877Y-1328585D01*
X187493Y-1329186D01*
X186837Y-1329659D01*
X186049Y-1329839D01*
X185252Y-1329697D01*
X184575Y-1329256D01*
X184123Y-1328585D01*
X182062Y-1323609D01*
X178391Y-1319938D01*
X173595Y-1317952D01*
X168405Y-1317952D01*
X163609Y-1319938D01*
X159938Y-1323609D01*
X157952Y-1328405D01*
X157952Y-1333595D01*
X159938Y-1338391D01*
X163609Y-1342062D01*
X164666Y-1342499D01*
X165302Y-1342917D01*
X165759Y-1343584D01*
X165920Y-1344377D01*
X165920Y-1376940D01*
X165789Y-1377658D01*
X165359Y-1378342D01*
X164696Y-1378805D01*
X163904Y-1378972D01*
X163158Y-1378827D01*
X157942Y-1378827D01*
X153146Y-1380813D01*
X149476Y-1384484D01*
X147489Y-1389279D01*
X147489Y-1394470D01*
X149476Y-1399266D01*
X153146Y-1402936D01*
X157942Y-1404923D01*
X163133Y-1404923D01*
X167928Y-1402936D01*
X171599Y-1399266D01*
X173585Y-1394470D01*
X173585Y-1389279D01*
X173148Y-1388223D01*
X172993Y-1387477D01*
X173142Y-1386682D01*
X173588Y-1386008D01*
X175307Y-1384290D01*
X176080Y-1382423D01*
X176080Y-1344377D01*
X176223Y-1343629D01*
X176664Y-1342951D01*
X177334Y-1342499D01*
X178391Y-1342062D01*
X182062Y-1338391D01*
X184123Y-1333415D01*
X184507Y-1332814D01*
X185163Y-1332341D01*
X185951Y-1332161D01*
X186748Y-1332303D01*
X187425Y-1332744D01*
X187877Y-1333415D01*
X189938Y-1338391D01*
X193609Y-1342062D01*
X198405Y-1344048D01*
X203595Y-1344048D01*
X208391Y-1342062D01*
X212062Y-1338391D01*
X214048Y-1333595D01*
X214048Y-1328405D01*
X212062Y-1323609D01*
X208391Y-1319938D01*
X203595Y-1317952D01*
X198405Y-1317952D01*
X198061Y-1318095D01*
X197206Y-1318248D01*
X196420Y-1318057D01*
X195771Y-1317575D01*
X116593Y-1229411D01*
X116418Y-1229134D01*
X115727Y-1228443D01*
X115652Y-1228364D01*
X115009Y-1227648D01*
X114120Y-1227280D01*
X114021Y-1227235D01*
X113153Y-1226820D01*
X112191Y-1226820D01*
X112082Y-1226817D01*
X111106Y-1226765D01*
X110783Y-1226820D01*
X63452Y-1226820D01*
X62720Y-1226683D01*
X62038Y-1226248D01*
X61581Y-1225581D01*
X61420Y-1224788D01*
X61420Y-1204953D01*
X61540Y-1204266D01*
X61959Y-1203574D01*
X62615Y-1203101D01*
X63403Y-1202921D01*
X64200Y-1203063D01*
X64877Y-1203504D01*
X65329Y-1204175D01*
X65864Y-1205466D01*
X69294Y-1208896D01*
X73152Y-1210494D01*
X73152Y-1195512D01*
X88134Y-1195512D01*
X86536Y-1191654D01*
X83106Y-1188224D01*
X82595Y-1188012D01*
X81994Y-1187628D01*
X81521Y-1186972D01*
X81341Y-1186184D01*
X81483Y-1185387D01*
X81924Y-1184710D01*
X82595Y-1184258D01*
X83394Y-1183927D01*
X86967Y-1180354D01*
X87323Y-1179494D01*
X87740Y-1178858D01*
X88407Y-1178401D01*
X89200Y-1178240D01*
X134388Y-1178240D01*
X136256Y-1177467D01*
X142487Y-1171235D01*
X143072Y-1170827D01*
X143859Y-1170641D01*
X144657Y-1170777D01*
X145338Y-1171212D01*
X145795Y-1171879D01*
X145822Y-1172012D01*
X184201Y-1172012D01*
X182901Y-1168873D01*
X179829Y-1165801D01*
X176718Y-1164512D01*
X176117Y-1164128D01*
X175644Y-1163472D01*
X175464Y-1162684D01*
X175606Y-1161887D01*
X176047Y-1161210D01*
X176718Y-1160758D01*
X180117Y-1159350D01*
X183332Y-1156135D01*
X185072Y-1151934D01*
X185072Y-1147386D01*
X183332Y-1143185D01*
X180117Y-1139970D01*
X177382Y-1138837D01*
X176781Y-1138453D01*
X176308Y-1137797D01*
X176128Y-1137009D01*
X176270Y-1136212D01*
X176711Y-1135535D01*
X177382Y-1135083D01*
X180117Y-1133950D01*
X183332Y-1130735D01*
X185072Y-1126534D01*
X185072Y-1126042D01*
X185197Y-1125340D01*
X185622Y-1124651D01*
X186282Y-1124184D01*
X187072Y-1124010D01*
X187867Y-1124158D01*
X188541Y-1124605D01*
X204885Y-1140949D01*
X205319Y-1141593D01*
X205480Y-1142386D01*
X205480Y-1212989D01*
X206253Y-1214856D01*
X217848Y-1226451D01*
X219716Y-1227224D01*
X326787Y-1227224D01*
X328654Y-1226451D01*
X347279Y-1207826D01*
X347938Y-1207385D01*
X352075Y-1205672D01*
X355290Y-1202457D01*
X357030Y-1198256D01*
X357030Y-1184196D01*
X357179Y-1183433D01*
X357625Y-1182759D01*
X392407Y-1147978D01*
X393180Y-1146110D01*
X393180Y-1099377D01*
X393323Y-1098629D01*
X393764Y-1097951D01*
X394434Y-1097499D01*
X395491Y-1097062D01*
X399162Y-1093391D01*
X401148Y-1088595D01*
X401148Y-1083405D01*
X399162Y-1078609D01*
X395491Y-1074938D01*
X390695Y-1072952D01*
X385505Y-1072952D01*
X380709Y-1074938D01*
X377038Y-1078609D01*
X375052Y-1083405D01*
X375052Y-1088595D01*
X377038Y-1093391D01*
X380709Y-1097062D01*
X381766Y-1097499D01*
X382402Y-1097917D01*
X382859Y-1098584D01*
X383020Y-1099377D01*
X383020Y-1142154D01*
X382871Y-1142917D01*
X382425Y-1143591D01*
X355718Y-1170298D01*
X355103Y-1170719D01*
X354314Y-1170893D01*
X353519Y-1170744D01*
X352844Y-1170298D01*
X352075Y-1169528D01*
X347874Y-1167788D01*
X343326Y-1167788D01*
X339125Y-1169528D01*
X335910Y-1172743D01*
X334777Y-1175478D01*
X334393Y-1176079D01*
X333737Y-1176552D01*
X332949Y-1176732D01*
X332152Y-1176590D01*
X331475Y-1176149D01*
X331023Y-1175478D01*
X329890Y-1172743D01*
X326675Y-1169528D01*
X326534Y-1169470D01*
X325898Y-1169052D01*
X325441Y-1168385D01*
X325280Y-1167593D01*
X325280Y-1102090D01*
X324507Y-1100222D01*
X316151Y-1091867D01*
X315723Y-1091237D01*
X315556Y-1090446D01*
X315710Y-1089652D01*
X316148Y-1088595D01*
X316148Y-1083405D01*
X314162Y-1078609D01*
X310491Y-1074938D01*
X305695Y-1072952D01*
X300505Y-1072952D01*
X299448Y-1073390D01*
X298703Y-1073544D01*
X297908Y-1073396D01*
X297233Y-1072949D01*
X290738Y-1066453D01*
X288870Y-1065680D01*
X129146Y-1065680D01*
X128383Y-1065531D01*
X127709Y-1065085D01*
X88984Y-1026360D01*
X88557Y-1025731D01*
X88389Y-1024940D01*
X88544Y-1024146D01*
X88900Y-1023286D01*
X88900Y-1018234D01*
X86967Y-1013566D01*
X83394Y-1009993D01*
X78726Y-1008060D01*
X73674Y-1008060D01*
X69006Y-1009993D01*
X65433Y-1013566D01*
X63500Y-1018234D01*
X63500Y-1023286D01*
X65433Y-1027954D01*
X69006Y-1031527D01*
X73674Y-1033460D01*
X78726Y-1033460D01*
X79586Y-1033104D01*
X80331Y-1032950D01*
X81126Y-1033098D01*
X81800Y-1033544D01*
X123322Y-1075067D01*
X125190Y-1075840D01*
X284914Y-1075840D01*
X285677Y-1075989D01*
X286351Y-1076435D01*
X290049Y-1080133D01*
X290477Y-1080763D01*
X290644Y-1081554D01*
X290490Y-1082348D01*
X290052Y-1083405D01*
X290052Y-1088595D01*
X292038Y-1093391D01*
X295709Y-1097062D01*
X300505Y-1099048D01*
X305695Y-1099048D01*
X306752Y-1098610D01*
X307497Y-1098456D01*
X308292Y-1098604D01*
X308967Y-1099051D01*
X314525Y-1104609D01*
X314959Y-1105253D01*
X315120Y-1106046D01*
X315120Y-1167593D01*
X314977Y-1168340D01*
X314536Y-1169018D01*
X313866Y-1169470D01*
X313725Y-1169528D01*
X310510Y-1172743D01*
X309377Y-1175478D01*
X308993Y-1176079D01*
X308337Y-1176552D01*
X307549Y-1176732D01*
X306752Y-1176590D01*
X306075Y-1176149D01*
X305623Y-1175478D01*
X304490Y-1172743D01*
X301275Y-1169528D01*
X297074Y-1167788D01*
X292526Y-1167788D01*
X288325Y-1169528D01*
X285110Y-1172743D01*
X283702Y-1176142D01*
X283318Y-1176743D01*
X282662Y-1177216D01*
X281874Y-1177396D01*
X281077Y-1177254D01*
X280400Y-1176813D01*
X279948Y-1176142D01*
X278659Y-1173031D01*
X275587Y-1169959D01*
X272448Y-1168659D01*
X272448Y-1206541D01*
X275587Y-1205241D01*
X278659Y-1202169D01*
X279948Y-1199058D01*
X280332Y-1198457D01*
X280988Y-1197984D01*
X281776Y-1197804D01*
X282573Y-1197946D01*
X283250Y-1198387D01*
X283702Y-1199058D01*
X285110Y-1202457D01*
X288325Y-1205672D01*
X292526Y-1207412D01*
X297074Y-1207412D01*
X301275Y-1205672D01*
X304490Y-1202457D01*
X305623Y-1199722D01*
X306007Y-1199121D01*
X306663Y-1198648D01*
X307451Y-1198468D01*
X308248Y-1198610D01*
X308925Y-1199051D01*
X309377Y-1199722D01*
X310510Y-1202457D01*
X313725Y-1205672D01*
X317926Y-1207412D01*
X322474Y-1207412D01*
X326675Y-1205672D01*
X329890Y-1202457D01*
X331023Y-1199722D01*
X331407Y-1199121D01*
X332063Y-1198648D01*
X332851Y-1198468D01*
X333648Y-1198610D01*
X334325Y-1199051D01*
X334777Y-1199722D01*
X336031Y-1202749D01*
X336079Y-1202819D01*
X336253Y-1203609D01*
X336105Y-1204404D01*
X335658Y-1205078D01*
X324267Y-1216469D01*
X323623Y-1216903D01*
X322830Y-1217064D01*
X223672Y-1217064D01*
X222909Y-1216915D01*
X222235Y-1216469D01*
X216235Y-1210469D01*
X215801Y-1209825D01*
X215640Y-1209032D01*
X215640Y-1141421D01*
X215795Y-1140643D01*
X215806Y-1140616D01*
X215806Y-1138595D01*
X215033Y-1136728D01*
X184382Y-1106078D01*
X183954Y-1105448D01*
X183787Y-1104657D01*
X183941Y-1103863D01*
X185072Y-1101134D01*
X185072Y-1096586D01*
X183332Y-1092385D01*
X180117Y-1089170D01*
X175916Y-1087430D01*
X154604Y-1087430D01*
X150403Y-1089170D01*
X147188Y-1092385D01*
X147130Y-1092526D01*
X146712Y-1093162D01*
X146045Y-1093619D01*
X145253Y-1093780D01*
X131806Y-1093780D01*
X131043Y-1093631D01*
X130369Y-1093185D01*
X89518Y-1052333D01*
X87650Y-1051560D01*
X85475Y-1051560D01*
X84758Y-1051429D01*
X84073Y-1050999D01*
X83610Y-1050335D01*
X83443Y-1049544D01*
X83598Y-1048750D01*
X84026Y-1047717D01*
X84026Y-1044603D01*
X82835Y-1041727D01*
X80633Y-1039525D01*
X77757Y-1038334D01*
X74643Y-1038334D01*
X71767Y-1039525D01*
X69565Y-1041727D01*
X68374Y-1044603D01*
X68374Y-1046884D01*
X68249Y-1047586D01*
X67824Y-1048274D01*
X67164Y-1048742D01*
X66374Y-1048916D01*
X65579Y-1048768D01*
X64905Y-1048321D01*
X43775Y-1027191D01*
X43341Y-1026547D01*
X43180Y-1025754D01*
X43180Y-989590D01*
X42407Y-987722D01*
X30615Y-975931D01*
X30181Y-975287D01*
X30020Y-974494D01*
X30020Y-941771D01*
X29247Y-939904D01*
X9295Y-919952D01*
X8861Y-919308D01*
X8700Y-918515D01*
X8700Y-897765D01*
X8849Y-897002D01*
X9295Y-896328D01*
X23968Y-881655D01*
X24612Y-881221D01*
X25405Y-881060D01*
X27926Y-881060D01*
X32594Y-879127D01*
X36167Y-875554D01*
X38100Y-870886D01*
X38100Y-867112D01*
X38237Y-866380D01*
X38672Y-865698D01*
X39339Y-865241D01*
X40132Y-865080D01*
X40942Y-865080D01*
X41675Y-865217D01*
X42356Y-865652D01*
X42813Y-866319D01*
X42974Y-867112D01*
X42974Y-869917D01*
X44165Y-872793D01*
X46367Y-874995D01*
X49243Y-876186D01*
X52357Y-876186D01*
X55233Y-874995D01*
X57435Y-872793D01*
X58626Y-869917D01*
X58626Y-866803D01*
X57435Y-863927D01*
X55233Y-861725D01*
X52357Y-860534D01*
X51556Y-860534D01*
X50854Y-860409D01*
X50166Y-859984D01*
X49698Y-859324D01*
X49524Y-858534D01*
X49672Y-857739D01*
X50119Y-857065D01*
X61509Y-845675D01*
X62153Y-845241D01*
X62946Y-845080D01*
X83190Y-845080D01*
X85058Y-844307D01*
X309107Y-620258D01*
X309880Y-618390D01*
X309880Y-578807D01*
X310023Y-578060D01*
X310464Y-577382D01*
X311134Y-576930D01*
X311275Y-576872D01*
X314490Y-573657D01*
X315898Y-570258D01*
X316282Y-569657D01*
X316938Y-569184D01*
X317726Y-569004D01*
X318523Y-569146D01*
X319200Y-569587D01*
X319652Y-570258D01*
X320941Y-573369D01*
X324013Y-576441D01*
X327152Y-577741D01*
X327152Y-539859D01*
X324013Y-541159D01*
X320941Y-544231D01*
X319652Y-547342D01*
X319268Y-547943D01*
X318612Y-548416D01*
X317824Y-548596D01*
X317027Y-548454D01*
X316350Y-548013D01*
X315898Y-547342D01*
X314490Y-543943D01*
X311275Y-540728D01*
X307074Y-538988D01*
X302526Y-538988D01*
X298325Y-540728D01*
X295110Y-543943D01*
X293370Y-548144D01*
X293370Y-569456D01*
X295110Y-573657D01*
X298325Y-576872D01*
X298466Y-576930D01*
X299102Y-577348D01*
X299559Y-578015D01*
X299720Y-578807D01*
X299720Y-614434D01*
X299571Y-615197D01*
X299125Y-615871D01*
X80671Y-834325D01*
X80027Y-834759D01*
X79234Y-834920D01*
X58990Y-834920D01*
X57122Y-835693D01*
X38491Y-854325D01*
X37847Y-854759D01*
X37054Y-854920D01*
X32750Y-854920D01*
X30740Y-855752D01*
X30371Y-856003D01*
X29580Y-856171D01*
X28786Y-856016D01*
X27926Y-855660D01*
X22874Y-855660D01*
X18206Y-857593D01*
X14633Y-861166D01*
X14302Y-861965D01*
X13918Y-862566D01*
X13262Y-863039D01*
X12474Y-863219D01*
X11677Y-863077D01*
X11000Y-862636D01*
X10548Y-861965D01*
X10336Y-861454D01*
X6906Y-858024D01*
X3048Y-856426D01*
X3048Y-880294D01*
X7118Y-878608D01*
X7798Y-878456D01*
X8598Y-878579D01*
X9286Y-879004D01*
X9754Y-879663D01*
X9927Y-880453D01*
X9779Y-881248D01*
X9332Y-881922D01*
X-687Y-891941D01*
X-1460Y-893808D01*
X-1460Y-922472D01*
X-687Y-924339D01*
X19265Y-944290D01*
X19699Y-944934D01*
X19860Y-945727D01*
X19860Y-978450D01*
X20633Y-980318D01*
X32425Y-992109D01*
X32859Y-992753D01*
X33020Y-993546D01*
X33020Y-1029710D01*
X33793Y-1031578D01*
X63162Y-1060947D01*
X64433Y-1061473D01*
X65057Y-1061879D01*
X65520Y-1062543D01*
X65687Y-1063334D01*
X65532Y-1064128D01*
X63500Y-1069034D01*
X63500Y-1074086D01*
X65433Y-1078754D01*
X69006Y-1082327D01*
X73674Y-1084260D01*
X78726Y-1084260D01*
X83394Y-1082327D01*
X86967Y-1078754D01*
X88900Y-1074086D01*
X88900Y-1070990D01*
X89025Y-1070288D01*
X89450Y-1069600D01*
X90110Y-1069132D01*
X90900Y-1068958D01*
X91695Y-1069106D01*
X92369Y-1069553D01*
X125982Y-1103167D01*
X127850Y-1103940D01*
X145253Y-1103940D01*
X146000Y-1104083D01*
X146678Y-1104524D01*
X147130Y-1105194D01*
X147188Y-1105335D01*
X150403Y-1108550D01*
X153138Y-1109683D01*
X153739Y-1110067D01*
X154212Y-1110723D01*
X154392Y-1111511D01*
X154250Y-1112308D01*
X153809Y-1112985D01*
X153138Y-1113437D01*
X150403Y-1114570D01*
X147188Y-1117785D01*
X145448Y-1121986D01*
X145448Y-1126534D01*
X145506Y-1126674D01*
X145661Y-1127419D01*
X145512Y-1128214D01*
X145066Y-1128888D01*
X131869Y-1142085D01*
X131225Y-1142519D01*
X130432Y-1142680D01*
X89200Y-1142680D01*
X88452Y-1142537D01*
X87775Y-1142096D01*
X87323Y-1141426D01*
X86967Y-1140566D01*
X83394Y-1136993D01*
X83258Y-1136937D01*
X82658Y-1136553D01*
X82185Y-1135897D01*
X82005Y-1135109D01*
X82147Y-1134312D01*
X82588Y-1133635D01*
X83258Y-1133183D01*
X83394Y-1133127D01*
X86967Y-1129554D01*
X88900Y-1124886D01*
X88900Y-1119834D01*
X86967Y-1115166D01*
X83394Y-1111593D01*
X78726Y-1109660D01*
X73674Y-1109660D01*
X69006Y-1111593D01*
X65433Y-1115166D01*
X63500Y-1119834D01*
X63500Y-1124886D01*
X63856Y-1125746D01*
X64010Y-1126491D01*
X63862Y-1127286D01*
X63416Y-1127960D01*
X52033Y-1139342D01*
X51260Y-1141210D01*
X51260Y-1271280D01*
X51123Y-1272013D01*
X50688Y-1272694D01*
X50021Y-1273151D01*
X49228Y-1273312D01*
X43552Y-1273312D01*
X40395Y-1274619D01*
X39509Y-1275506D01*
X38924Y-1275914D01*
X38137Y-1276100D01*
X37340Y-1275964D01*
X36658Y-1275529D01*
X36201Y-1274862D01*
X36040Y-1274069D01*
X36040Y-1154690D01*
X35267Y-1152822D01*
X33838Y-1151393D01*
X31970Y-1150620D01*
X-14514Y-1150620D01*
X-15277Y-1150471D01*
X-15951Y-1150025D01*
X-63416Y-1102560D01*
X-63843Y-1101931D01*
X-64011Y-1101140D01*
X-63856Y-1100346D01*
X-63500Y-1099486D01*
X-63500Y-1094434D01*
X-65433Y-1089766D01*
X-69006Y-1086193D01*
X-73674Y-1084260D01*
X-78726Y-1084260D01*
X-83394Y-1086193D01*
X-86967Y-1089766D01*
X-88900Y-1094434D01*
X-88900Y-1099486D01*
X-86967Y-1104154D01*
X-83394Y-1107727D01*
X-83258Y-1107783D01*
X-82658Y-1108167D01*
X-82185Y-1108823D01*
X-82005Y-1109611D01*
X-82147Y-1110408D01*
X-82588Y-1111085D01*
X-83258Y-1111537D01*
X-83394Y-1111593D01*
X-86967Y-1115166D01*
X-88900Y-1119834D01*
X-88900Y-1124886D01*
X-86967Y-1129554D01*
X-83394Y-1133127D01*
X-83258Y-1133183D01*
X-82658Y-1133567D01*
X-82185Y-1134223D01*
X-82005Y-1135011D01*
X-82147Y-1135808D01*
X-82588Y-1136485D01*
X-83258Y-1136937D01*
X-83394Y-1136993D01*
X-86967Y-1140566D01*
X-87323Y-1141426D01*
X-87740Y-1142062D01*
X-88407Y-1142519D01*
X-89200Y-1142680D01*
X-104194Y-1142680D01*
X-104957Y-1142531D01*
X-105631Y-1142085D01*
X-137122Y-1110593D01*
X-138990Y-1109820D01*
X-221293Y-1109820D01*
X-222040Y-1109677D01*
X-222718Y-1109236D01*
X-223170Y-1108566D01*
X-223228Y-1108425D01*
X-226443Y-1105210D01*
X-229842Y-1103802D01*
X-230443Y-1103418D01*
X-230916Y-1102762D01*
X-231096Y-1101974D01*
X-230954Y-1101177D01*
X-230513Y-1100500D01*
X-229842Y-1100048D01*
X-226731Y-1098759D01*
X-223659Y-1095687D01*
X-222359Y-1092548D01*
X-260241Y-1092548D01*
X-258941Y-1095687D01*
X-255869Y-1098759D01*
X-252758Y-1100048D01*
X-252157Y-1100432D01*
X-251684Y-1101088D01*
X-251504Y-1101876D01*
X-251646Y-1102673D01*
X-252087Y-1103350D01*
X-252758Y-1103802D01*
X-256157Y-1105210D01*
X-259372Y-1108425D01*
X-259430Y-1108566D01*
X-259848Y-1109202D01*
X-260515Y-1109659D01*
X-261307Y-1109820D01*
X-269274Y-1109820D01*
X-270037Y-1109671D01*
X-270711Y-1109225D01*
X-438825Y-941111D01*
X-439259Y-940467D01*
X-439420Y-939674D01*
X-439420Y-666046D01*
X-439271Y-665283D01*
X-438825Y-664609D01*
X-416728Y-642512D01*
X-416084Y-642078D01*
X-415291Y-641917D01*
X-373083Y-641917D01*
X-372320Y-642066D01*
X-371646Y-642512D01*
X-367337Y-646822D01*
X-366844Y-647621D01*
X-366748Y-648424D01*
X-366973Y-649201D01*
X-367484Y-649828D01*
X-368198Y-650207D01*
X-369004Y-650277D01*
X-372067Y-649928D01*
X-376438Y-651182D01*
X-379997Y-654012D01*
X-382201Y-657989D01*
X-382537Y-660930D01*
X-382740Y-661614D01*
X-383241Y-662249D01*
X-383949Y-662640D01*
X-384753Y-662723D01*
X-385526Y-662485D01*
X-386146Y-661965D01*
X-387988Y-659649D01*
X-391965Y-657444D01*
X-396483Y-656929D01*
X-400854Y-658183D01*
X-404413Y-661013D01*
X-406618Y-664990D01*
X-407034Y-668645D01*
X-407238Y-669329D01*
X-407738Y-669964D01*
X-408446Y-670355D01*
X-409251Y-670438D01*
X-410024Y-670200D01*
X-410643Y-669680D01*
X-412739Y-667045D01*
X-416539Y-664939D01*
X-419915Y-664554D01*
X-409473Y-700969D01*
X-406814Y-698854D01*
X-404708Y-695054D01*
X-404327Y-691709D01*
X-404123Y-691025D01*
X-403623Y-690390D01*
X-402914Y-689999D01*
X-402110Y-689916D01*
X-401337Y-690154D01*
X-400717Y-690674D01*
X-398428Y-693553D01*
X-397025Y-694330D01*
X-396596Y-694648D01*
X-396139Y-695315D01*
X-395978Y-696107D01*
X-395978Y-707853D01*
X-395204Y-709720D01*
X-357623Y-747301D01*
X-357189Y-747945D01*
X-357028Y-748738D01*
X-357028Y-751008D01*
X-355721Y-754165D01*
X-353305Y-756581D01*
X-350148Y-757888D01*
X-335652Y-757888D01*
X-332495Y-756581D01*
X-330079Y-754165D01*
X-328772Y-751008D01*
X-328772Y-747592D01*
X-330079Y-744435D01*
X-332495Y-742019D01*
X-335652Y-740712D01*
X-349002Y-740712D01*
X-349765Y-740563D01*
X-350439Y-740117D01*
X-385222Y-705333D01*
X-385657Y-704689D01*
X-385818Y-703897D01*
X-385818Y-696202D01*
X-385571Y-695231D01*
X-385051Y-694612D01*
X-382003Y-692188D01*
X-379799Y-688211D01*
X-379463Y-685270D01*
X-379260Y-684586D01*
X-378759Y-683951D01*
X-378051Y-683560D01*
X-377247Y-683477D01*
X-376474Y-683715D01*
X-375854Y-684235D01*
X-374012Y-686551D01*
X-370035Y-688756D01*
X-365517Y-689271D01*
X-361146Y-688017D01*
X-360567Y-687557D01*
X-360124Y-687289D01*
X-359334Y-687115D01*
X-358539Y-687264D01*
X-357865Y-687710D01*
X-313935Y-731640D01*
X-313501Y-732285D01*
X-313340Y-733077D01*
X-313340Y-742009D01*
X-312567Y-743877D01*
X-287897Y-768547D01*
X-286029Y-769320D01*
X-172686Y-769320D01*
X-171923Y-769469D01*
X-171249Y-769915D01*
X-160259Y-780905D01*
X-159825Y-781549D01*
X-159664Y-782342D01*
X-159664Y-892586D01*
X-158891Y-894454D01*
X-88984Y-964360D01*
X-88557Y-964989D01*
X-88389Y-965780D01*
X-88544Y-966574D01*
X-88900Y-967434D01*
X-88900Y-972486D01*
X-86967Y-977154D01*
X-83394Y-980727D01*
X-83258Y-980783D01*
X-82658Y-981167D01*
X-82185Y-981823D01*
X-82005Y-982611D01*
X-82147Y-983408D01*
X-82588Y-984085D01*
X-83258Y-984537D01*
X-83394Y-984593D01*
X-86967Y-988166D01*
X-87323Y-989026D01*
X-87740Y-989662D01*
X-88407Y-990119D01*
X-89200Y-990280D01*
X-187112Y-990280D01*
X-187875Y-990131D01*
X-188549Y-989685D01*
X-220040Y-958193D01*
X-222027Y-957371D01*
X-222674Y-956942D01*
X-223126Y-956271D01*
X-223228Y-956025D01*
X-226443Y-952810D01*
X-230644Y-951070D01*
X-251956Y-951070D01*
X-256157Y-952810D01*
X-259372Y-956025D01*
X-261112Y-960226D01*
X-261112Y-964774D01*
X-259372Y-968975D01*
X-256157Y-972190D01*
X-253422Y-973323D01*
X-252821Y-973707D01*
X-252348Y-974363D01*
X-252168Y-975151D01*
X-252310Y-975948D01*
X-252751Y-976625D01*
X-253422Y-977077D01*
X-256157Y-978210D01*
X-259372Y-981425D01*
X-261112Y-985626D01*
X-261112Y-990174D01*
X-259372Y-994375D01*
X-256157Y-997590D01*
X-251956Y-999330D01*
X-230644Y-999330D01*
X-226443Y-997590D01*
X-224865Y-996011D01*
X-224250Y-995590D01*
X-223460Y-995416D01*
X-222665Y-995565D01*
X-221991Y-996011D01*
X-212650Y-1005352D01*
X-192936Y-1025067D01*
X-191068Y-1025840D01*
X-89200Y-1025840D01*
X-88452Y-1025983D01*
X-87775Y-1026424D01*
X-87323Y-1027094D01*
X-86967Y-1027954D01*
X-83394Y-1031527D01*
X-83258Y-1031583D01*
X-82658Y-1031967D01*
X-82185Y-1032623D01*
X-82005Y-1033411D01*
X-82147Y-1034208D01*
X-82588Y-1034885D01*
X-83258Y-1035337D01*
X-83394Y-1035393D01*
X-86967Y-1038966D01*
X-87323Y-1039826D01*
X-87740Y-1040462D01*
X-88407Y-1040919D01*
X-89200Y-1041080D01*
X-205814Y-1041080D01*
X-206577Y-1040931D01*
X-207251Y-1040485D01*
X-225722Y-1022013D01*
X-227590Y-1021240D01*
X-233267Y-1021240D01*
X-233969Y-1021115D01*
X-234657Y-1020690D01*
X-235125Y-1020030D01*
X-235298Y-1019240D01*
X-235150Y-1018445D01*
X-234704Y-1017771D01*
X-234665Y-1017733D01*
X-233474Y-1014857D01*
X-233474Y-1011743D01*
X-234665Y-1008867D01*
X-236867Y-1006665D01*
X-239743Y-1005474D01*
X-242857Y-1005474D01*
X-245733Y-1006665D01*
X-247935Y-1008867D01*
X-249126Y-1011743D01*
X-249126Y-1014857D01*
X-247935Y-1017733D01*
X-247896Y-1017771D01*
X-247488Y-1018356D01*
X-247302Y-1019143D01*
X-247438Y-1019941D01*
X-247874Y-1020622D01*
X-248541Y-1021079D01*
X-249333Y-1021240D01*
X-263594Y-1021240D01*
X-264357Y-1021091D01*
X-265031Y-1020645D01*
X-286169Y-999507D01*
X-286603Y-998863D01*
X-286764Y-998070D01*
X-286764Y-884091D01*
X-286633Y-883374D01*
X-286203Y-882689D01*
X-285539Y-882226D01*
X-284748Y-882059D01*
X-283954Y-882214D01*
X-280555Y-883622D01*
X-273048Y-883622D01*
X-273048Y-869652D01*
X-251059Y-869652D01*
X-252359Y-866513D01*
X-255431Y-863441D01*
X-258542Y-862152D01*
X-259143Y-861768D01*
X-259616Y-861112D01*
X-259796Y-860324D01*
X-259654Y-859527D01*
X-259213Y-858850D01*
X-258542Y-858398D01*
X-255143Y-856990D01*
X-251928Y-853775D01*
X-250188Y-849574D01*
X-250188Y-845026D01*
X-251928Y-840825D01*
X-255143Y-837610D01*
X-259344Y-835870D01*
X-280656Y-835870D01*
X-284857Y-837610D01*
X-288072Y-840825D01*
X-289812Y-845026D01*
X-289812Y-847066D01*
X-289961Y-847829D01*
X-290407Y-848503D01*
X-296151Y-854246D01*
X-296924Y-856113D01*
X-296924Y-1002026D01*
X-296151Y-1003894D01*
X-269418Y-1030627D01*
X-267550Y-1031400D01*
X-249788Y-1031400D01*
X-249071Y-1031531D01*
X-248386Y-1031961D01*
X-247923Y-1032625D01*
X-247756Y-1033416D01*
X-247911Y-1034210D01*
X-249126Y-1037143D01*
X-249126Y-1040257D01*
X-247935Y-1043133D01*
X-245733Y-1045335D01*
X-242857Y-1046526D01*
X-239743Y-1046526D01*
X-236867Y-1045335D01*
X-234665Y-1043133D01*
X-233474Y-1040257D01*
X-233474Y-1037143D01*
X-234689Y-1034210D01*
X-234843Y-1033497D01*
X-234707Y-1032700D01*
X-234271Y-1032018D01*
X-233604Y-1031561D01*
X-232812Y-1031400D01*
X-231546Y-1031400D01*
X-230783Y-1031549D01*
X-230109Y-1031995D01*
X-211638Y-1050467D01*
X-209770Y-1051240D01*
X-89200Y-1051240D01*
X-88452Y-1051383D01*
X-87775Y-1051824D01*
X-87323Y-1052494D01*
X-86967Y-1053354D01*
X-83394Y-1056927D01*
X-78726Y-1058860D01*
X-73674Y-1058860D01*
X-69006Y-1056927D01*
X-65433Y-1053354D01*
X-63500Y-1048686D01*
X-63500Y-1043634D01*
X-65433Y-1038966D01*
X-69006Y-1035393D01*
X-69142Y-1035337D01*
X-69742Y-1034953D01*
X-70216Y-1034297D01*
X-70395Y-1033509D01*
X-70253Y-1032712D01*
X-69812Y-1032035D01*
X-69142Y-1031583D01*
X-69006Y-1031527D01*
X-65433Y-1027954D01*
X-63500Y-1023286D01*
X-63500Y-1018234D01*
X-65433Y-1013566D01*
X-69006Y-1009993D01*
X-69142Y-1009937D01*
X-69742Y-1009553D01*
X-70216Y-1008897D01*
X-70395Y-1008109D01*
X-70253Y-1007312D01*
X-69812Y-1006635D01*
X-69142Y-1006183D01*
X-69006Y-1006127D01*
X-65433Y-1002554D01*
X-63500Y-997886D01*
X-63500Y-992834D01*
X-65433Y-988166D01*
X-69006Y-984593D01*
X-69142Y-984537D01*
X-69742Y-984153D01*
X-70216Y-983497D01*
X-70395Y-982709D01*
X-70253Y-981912D01*
X-69812Y-981235D01*
X-69142Y-980783D01*
X-69006Y-980727D01*
X-65433Y-977154D01*
X-63500Y-972486D01*
X-63500Y-967434D01*
X-65433Y-962766D01*
X-69006Y-959193D01*
X-69142Y-959137D01*
X-69742Y-958753D01*
X-70216Y-958097D01*
X-70395Y-957309D01*
X-70253Y-956512D01*
X-69812Y-955835D01*
X-69142Y-955383D01*
X-69006Y-955327D01*
X-65433Y-951754D01*
X-63500Y-947086D01*
X-63500Y-942034D01*
X-65433Y-937366D01*
X-69006Y-933793D01*
X-69142Y-933737D01*
X-69742Y-933353D01*
X-70216Y-932697D01*
X-70395Y-931909D01*
X-70253Y-931112D01*
X-69812Y-930435D01*
X-69142Y-929983D01*
X-69006Y-929927D01*
X-65433Y-926354D01*
X-63500Y-921686D01*
X-63500Y-916634D01*
X-65433Y-911966D01*
X-69006Y-908393D01*
X-69142Y-908337D01*
X-69742Y-907953D01*
X-70216Y-907297D01*
X-70395Y-906509D01*
X-70253Y-905712D01*
X-69812Y-905035D01*
X-69142Y-904583D01*
X-69006Y-904527D01*
X-65433Y-900954D01*
X-63500Y-896286D01*
X-63500Y-891234D01*
X-65433Y-886566D01*
X-69006Y-882993D01*
X-69142Y-882937D01*
X-69742Y-882553D01*
X-70216Y-881897D01*
X-70395Y-881109D01*
X-70253Y-880312D01*
X-69812Y-879635D01*
X-69142Y-879183D01*
X-69006Y-879127D01*
X-65433Y-875554D01*
X-63500Y-870886D01*
X-63500Y-865834D01*
X-65433Y-861166D01*
X-69006Y-857593D01*
X-73674Y-855660D01*
X-78726Y-855660D01*
X-79586Y-856016D01*
X-80331Y-856170D01*
X-81126Y-856022D01*
X-81800Y-855576D01*
X-94325Y-843051D01*
X-94759Y-842407D01*
X-94920Y-841614D01*
X-94920Y-748990D01*
X-95693Y-747122D01*
X-148622Y-694193D01*
X-150490Y-693420D01*
X-208554Y-693420D01*
X-209317Y-693271D01*
X-209991Y-692825D01*
X-244325Y-658491D01*
X-244759Y-657847D01*
X-244920Y-657054D01*
X-244920Y-432946D01*
X-244771Y-432183D01*
X-244325Y-431509D01*
X-138491Y-325675D01*
X-137847Y-325241D01*
X-137054Y-325080D01*
X-7033Y-325080D01*
X-6346Y-325200D01*
X-5655Y-325619D01*
X-5182Y-326275D01*
X-5002Y-327063D01*
X-5144Y-327860D01*
X-5585Y-328537D01*
X-6256Y-328989D01*
X-9212Y-330214D01*
X-13786Y-334788D01*
X-16262Y-340765D01*
X-16262Y-347235D01*
X-13786Y-353212D01*
X-9212Y-357786D01*
X-3235Y-360262D01*
X3235Y-360262D01*
X9212Y-357786D01*
X13786Y-353212D01*
X16262Y-347235D01*
X16262Y-340765D01*
X13786Y-334788D01*
X9212Y-330214D01*
X6256Y-328989D01*
X5667Y-328616D01*
X5188Y-327964D01*
X5002Y-327177D01*
X5138Y-326380D01*
X5574Y-325698D01*
X6241Y-325241D01*
X7033Y-325080D01*
X217054Y-325080D01*
X217817Y-325229D01*
X218491Y-325675D01*
X338186Y-445370D01*
X338620Y-446014D01*
X338781Y-446807D01*
X338781Y-449390D01*
X339554Y-451258D01*
X340983Y-452687D01*
X342851Y-453460D01*
X451622Y-453460D01*
X452354Y-453597D01*
X453035Y-454032D01*
X453493Y-454699D01*
X453654Y-455492D01*
X453654Y-487913D01*
X453528Y-488615D01*
X453104Y-489303D01*
X452444Y-489771D01*
X451654Y-489944D01*
X450859Y-489796D01*
X450185Y-489350D01*
X448555Y-487719D01*
X445398Y-486412D01*
X430902Y-486412D01*
X427745Y-487719D01*
X425329Y-490135D01*
X425130Y-490617D01*
X424689Y-491276D01*
X407925Y-508041D01*
X407340Y-508449D01*
X406553Y-508635D01*
X405756Y-508499D01*
X405075Y-508063D01*
X404617Y-507396D01*
X404456Y-506604D01*
X404456Y-506547D01*
X404605Y-505784D01*
X405051Y-505110D01*
X406657Y-503505D01*
X407964Y-500348D01*
X407964Y-485852D01*
X406657Y-482695D01*
X404241Y-480279D01*
X401085Y-478972D01*
X397668Y-478972D01*
X394512Y-480279D01*
X392096Y-482695D01*
X390788Y-485852D01*
X390788Y-500348D01*
X392096Y-503505D01*
X392276Y-503685D01*
X392697Y-504299D01*
X392870Y-505089D01*
X392722Y-505884D01*
X392276Y-506558D01*
X360228Y-538606D01*
X359599Y-539033D01*
X358808Y-539201D01*
X358014Y-539046D01*
X357874Y-538988D01*
X353326Y-538988D01*
X349125Y-540728D01*
X345910Y-543943D01*
X344502Y-547342D01*
X344118Y-547943D01*
X343462Y-548416D01*
X342674Y-548596D01*
X341877Y-548454D01*
X341200Y-548013D01*
X340748Y-547342D01*
X339459Y-544231D01*
X336387Y-541159D01*
X333248Y-539859D01*
X333248Y-577741D01*
X336387Y-576441D01*
X339459Y-573369D01*
X340748Y-570258D01*
X341132Y-569657D01*
X341788Y-569184D01*
X342576Y-569004D01*
X343373Y-569146D01*
X344050Y-569587D01*
X344502Y-570258D01*
X345910Y-573657D01*
X349125Y-576872D01*
X349266Y-576930D01*
X349902Y-577348D01*
X350359Y-578015D01*
X350520Y-578807D01*
X350520Y-593954D01*
X350371Y-594717D01*
X349925Y-595391D01*
X86995Y-858321D01*
X86380Y-858742D01*
X85591Y-858916D01*
X84796Y-858767D01*
X84121Y-858321D01*
X83394Y-857593D01*
X78726Y-855660D01*
X73674Y-855660D01*
X69006Y-857593D01*
X65433Y-861166D01*
X63500Y-865834D01*
X63500Y-870886D01*
X65433Y-875554D01*
X69006Y-879127D01*
X69142Y-879183D01*
X69742Y-879567D01*
X70216Y-880223D01*
X70395Y-881011D01*
X70253Y-881808D01*
X69812Y-882485D01*
X69142Y-882937D01*
X69006Y-882993D01*
X65433Y-886566D01*
X63500Y-891234D01*
X63500Y-896286D01*
X65433Y-900954D01*
X69006Y-904527D01*
X69142Y-904583D01*
X69742Y-904967D01*
X70216Y-905623D01*
X70395Y-906411D01*
X70253Y-907208D01*
X69812Y-907885D01*
X69142Y-908337D01*
X69006Y-908393D01*
X65433Y-911966D01*
X63500Y-916634D01*
X63500Y-921686D01*
X65433Y-926354D01*
X69006Y-929927D01*
X69142Y-929983D01*
X69742Y-930367D01*
X70216Y-931023D01*
X70395Y-931811D01*
X70253Y-932608D01*
X69812Y-933285D01*
X69142Y-933737D01*
X69006Y-933793D01*
X65433Y-937366D01*
X63500Y-942034D01*
X63500Y-947086D01*
X65433Y-951754D01*
X69006Y-955327D01*
X69142Y-955383D01*
X69742Y-955767D01*
X70216Y-956423D01*
X70395Y-957211D01*
X70253Y-958008D01*
X69812Y-958685D01*
X69142Y-959137D01*
X69006Y-959193D01*
X65433Y-962766D01*
X63500Y-967434D01*
X63500Y-972486D01*
X65433Y-977154D01*
X69006Y-980727D01*
X73674Y-982660D01*
X78726Y-982660D01*
X83394Y-980727D01*
X86967Y-977154D01*
X88900Y-972486D01*
X88900Y-967434D01*
X88544Y-966574D01*
X88390Y-965829D01*
X88538Y-965034D01*
X88984Y-964360D01*
X97709Y-955635D01*
X98353Y-955201D01*
X99146Y-955040D01*
X142628Y-955040D01*
X144496Y-954267D01*
X185925Y-912838D01*
X186698Y-910970D01*
X186698Y-879812D01*
X186835Y-879080D01*
X187270Y-878398D01*
X187937Y-877941D01*
X188730Y-877780D01*
X213630Y-877780D01*
X214332Y-877905D01*
X215020Y-878330D01*
X215488Y-878990D01*
X215662Y-879780D01*
X215514Y-880575D01*
X215067Y-881249D01*
X209545Y-886771D01*
X206500Y-894122D01*
X206500Y-902078D01*
X209545Y-909429D01*
X215171Y-915055D01*
X222522Y-918100D01*
X230478Y-918100D01*
X237829Y-915055D01*
X243455Y-909429D01*
X246500Y-902078D01*
X246500Y-894122D01*
X243455Y-886771D01*
X237933Y-881249D01*
X237525Y-880664D01*
X237339Y-879877D01*
X237475Y-879080D01*
X237910Y-878398D01*
X238577Y-877941D01*
X239370Y-877780D01*
X249993Y-877780D01*
X250740Y-877923D01*
X251418Y-878364D01*
X251870Y-879034D01*
X251928Y-879175D01*
X255143Y-882390D01*
X259344Y-884130D01*
X280656Y-884130D01*
X284857Y-882390D01*
X288072Y-879175D01*
X289812Y-874974D01*
X289812Y-870426D01*
X288072Y-866225D01*
X284857Y-863010D01*
X281458Y-861602D01*
X280857Y-861218D01*
X280384Y-860562D01*
X280204Y-859774D01*
X280346Y-858977D01*
X280787Y-858300D01*
X281458Y-857848D01*
X284569Y-856559D01*
X287641Y-853487D01*
X288941Y-850348D01*
X251059Y-850348D01*
X252359Y-853487D01*
X255431Y-856559D01*
X258542Y-857848D01*
X259143Y-858232D01*
X259616Y-858888D01*
X259796Y-859676D01*
X259654Y-860473D01*
X259213Y-861150D01*
X258542Y-861602D01*
X255143Y-863010D01*
X251928Y-866225D01*
X251870Y-866366D01*
X251452Y-867002D01*
X250785Y-867459D01*
X249993Y-867620D01*
X180608Y-867620D01*
X178740Y-868393D01*
X177311Y-869822D01*
X176538Y-871690D01*
X176538Y-907014D01*
X176389Y-907777D01*
X175943Y-908451D01*
X140109Y-944285D01*
X139465Y-944719D01*
X138672Y-944880D01*
X95190Y-944880D01*
X93322Y-945653D01*
X92369Y-946607D01*
X91784Y-947015D01*
X90997Y-947201D01*
X90200Y-947066D01*
X89518Y-946630D01*
X89061Y-945963D01*
X88900Y-945170D01*
X88900Y-944380D01*
X89049Y-943618D01*
X89495Y-942943D01*
X105239Y-927200D01*
X106012Y-925333D01*
X106012Y-907432D01*
X106161Y-906669D01*
X106607Y-905995D01*
X406567Y-606035D01*
X407211Y-605601D01*
X408004Y-605440D01*
X530950Y-605440D01*
X532818Y-604667D01*
X677407Y-460078D01*
X678180Y-458210D01*
X678180Y-255631D01*
X677407Y-253764D01*
X642643Y-219001D01*
X642209Y-218357D01*
X642048Y-217564D01*
X642048Y-213305D01*
X640062Y-208509D01*
X636391Y-204838D01*
X636304Y-204802D01*
X635703Y-204418D01*
X635230Y-203762D01*
X635050Y-202974D01*
X635192Y-202178D01*
X635633Y-201500D01*
X635943Y-201291D01*
X639631Y-197603D01*
X641311Y-193548D01*
X616689Y-193548D01*
X618369Y-197603D01*
X622022Y-201257D01*
X622297Y-201432D01*
X622770Y-202088D01*
X622950Y-202876D01*
X622808Y-203673D01*
X622367Y-204350D01*
X621696Y-204802D01*
X621609Y-204838D01*
X617938Y-208509D01*
X615952Y-213305D01*
X615952Y-218495D01*
X617938Y-223291D01*
X621811Y-227163D01*
X622232Y-227778D01*
X622405Y-228568D01*
X622257Y-229363D01*
X621811Y-230037D01*
X617938Y-233909D01*
X615952Y-238705D01*
X615952Y-243895D01*
X617938Y-248691D01*
X621811Y-252563D01*
X622232Y-253178D01*
X622405Y-253968D01*
X622257Y-254763D01*
X621811Y-255437D01*
X617938Y-259309D01*
X617501Y-260366D01*
X617083Y-261002D01*
X616416Y-261459D01*
X615623Y-261620D01*
X543026Y-261620D01*
X541159Y-262393D01*
X401375Y-402177D01*
X400731Y-402611D01*
X399938Y-402772D01*
X397668Y-402772D01*
X394512Y-404079D01*
X392096Y-406495D01*
X390788Y-409652D01*
X390788Y-424148D01*
X392096Y-427305D01*
X394512Y-429721D01*
X397668Y-431028D01*
X401085Y-431028D01*
X404241Y-429721D01*
X406657Y-427305D01*
X407964Y-424148D01*
X407964Y-410798D01*
X408113Y-410035D01*
X408559Y-409361D01*
X545545Y-272375D01*
X546190Y-271941D01*
X546982Y-271780D01*
X615623Y-271780D01*
X616371Y-271923D01*
X617049Y-272364D01*
X617501Y-273034D01*
X617938Y-274091D01*
X621811Y-277963D01*
X622232Y-278578D01*
X622405Y-279368D01*
X622257Y-280163D01*
X621811Y-280837D01*
X617938Y-284709D01*
X617501Y-285766D01*
X617083Y-286402D01*
X616416Y-286859D01*
X615623Y-287020D01*
X608590Y-287020D01*
X606722Y-287793D01*
X454427Y-440089D01*
X453616Y-442046D01*
X453199Y-442682D01*
X452532Y-443139D01*
X451739Y-443300D01*
X350485Y-443300D01*
X349737Y-443157D01*
X349060Y-442716D01*
X348608Y-442046D01*
X348168Y-440983D01*
X222878Y-315693D01*
X221010Y-314920D01*
X-141010Y-314920D01*
X-142878Y-315693D01*
X-254307Y-427122D01*
X-255080Y-428990D01*
X-255080Y-661010D01*
X-254307Y-662878D01*
X-214378Y-702807D01*
X-212510Y-703580D01*
X-154446Y-703580D01*
X-153683Y-703729D01*
X-153009Y-704175D01*
X-105675Y-751509D01*
X-105241Y-752153D01*
X-105080Y-752946D01*
X-105080Y-845570D01*
X-104307Y-847438D01*
X-88984Y-862760D01*
X-88557Y-863389D01*
X-88389Y-864180D01*
X-88544Y-864974D01*
X-88900Y-865834D01*
X-88900Y-868970D01*
X-89025Y-869672D01*
X-89450Y-870360D01*
X-90110Y-870828D01*
X-90900Y-871002D01*
X-91695Y-870854D01*
X-92369Y-870407D01*
X-112173Y-850603D01*
X-112607Y-849959D01*
X-112768Y-849166D01*
X-112768Y-757383D01*
X-113541Y-755516D01*
X-158685Y-710373D01*
X-160552Y-709599D01*
X-216402Y-709599D01*
X-217165Y-709451D01*
X-217839Y-709004D01*
X-263565Y-663278D01*
X-263999Y-662634D01*
X-264160Y-661842D01*
X-264160Y-416966D01*
X-264011Y-416203D01*
X-263565Y-415529D01*
X-154651Y-306615D01*
X-154007Y-306181D01*
X-153214Y-306020D01*
X369122Y-306020D01*
X369824Y-306145D01*
X370512Y-306570D01*
X370980Y-307230D01*
X371153Y-308020D01*
X371005Y-308815D01*
X370559Y-309489D01*
X369938Y-310109D01*
X367952Y-314905D01*
X367952Y-320095D01*
X369938Y-324891D01*
X373811Y-328763D01*
X374232Y-329378D01*
X374405Y-330168D01*
X374257Y-330963D01*
X373811Y-331637D01*
X369938Y-335509D01*
X367952Y-340305D01*
X367952Y-345495D01*
X369938Y-350291D01*
X373811Y-354163D01*
X374232Y-354778D01*
X374405Y-355568D01*
X374257Y-356363D01*
X373811Y-357037D01*
X369938Y-360909D01*
X367952Y-365705D01*
X367952Y-370895D01*
X369938Y-375691D01*
X373609Y-379362D01*
X378405Y-381348D01*
X383595Y-381348D01*
X388391Y-379362D01*
X392062Y-375691D01*
X394048Y-370895D01*
X394048Y-365705D01*
X392062Y-360909D01*
X388190Y-357037D01*
X387768Y-356422D01*
X387595Y-355632D01*
X387743Y-354837D01*
X388190Y-354163D01*
X392062Y-350291D01*
X394048Y-345495D01*
X394048Y-340305D01*
X392062Y-335509D01*
X388190Y-331637D01*
X387768Y-331022D01*
X387595Y-330232D01*
X387743Y-329437D01*
X388190Y-328763D01*
X392062Y-324891D01*
X394048Y-320095D01*
X394048Y-314905D01*
X392062Y-310109D01*
X388190Y-306237D01*
X387768Y-305622D01*
X387595Y-304832D01*
X387743Y-304037D01*
X388190Y-303363D01*
X392062Y-299491D01*
X394048Y-294695D01*
X394048Y-289505D01*
X392062Y-284709D01*
X388190Y-280837D01*
X387768Y-280222D01*
X387595Y-279432D01*
X387743Y-278637D01*
X388190Y-277963D01*
X392062Y-274091D01*
X394048Y-269295D01*
X394048Y-264105D01*
X392062Y-259309D01*
X388190Y-255437D01*
X387768Y-254822D01*
X387595Y-254032D01*
X387743Y-253237D01*
X388190Y-252563D01*
X392062Y-248691D01*
X394048Y-243895D01*
X394048Y-238705D01*
X392062Y-233909D01*
X388391Y-230238D01*
X388304Y-230202D01*
X387703Y-229818D01*
X387230Y-229162D01*
X387050Y-228374D01*
X387192Y-227578D01*
X387633Y-226900D01*
X387943Y-226691D01*
X391631Y-223003D01*
X393311Y-218948D01*
X368689Y-218948D01*
X370369Y-223003D01*
X373617Y-226251D01*
X374025Y-226836D01*
X374211Y-227623D01*
X374075Y-228421D01*
X373640Y-229102D01*
X372973Y-229559D01*
X372180Y-229720D01*
X-195498Y-229720D01*
X-197365Y-230493D01*
X-350993Y-384121D01*
X-351766Y-385989D01*
X-351766Y-642997D01*
X-352014Y-643968D01*
X-352534Y-644587D01*
X-352601Y-644641D01*
X-353044Y-644909D01*
X-353833Y-645082D01*
X-354629Y-644934D01*
X-355303Y-644487D01*
X-367260Y-632530D01*
X-369127Y-631757D01*
X-419248Y-631757D01*
X-421115Y-632530D01*
X-448807Y-660222D01*
X-449580Y-662090D01*
X-449580Y-943631D01*
X-448807Y-945498D01*
X-275098Y-1119207D01*
X-273231Y-1119980D01*
X-261307Y-1119980D01*
X-260560Y-1120123D01*
X-259882Y-1120564D01*
X-259430Y-1121234D01*
X-259372Y-1121375D01*
X-256157Y-1124590D01*
X-251956Y-1126330D01*
X-230644Y-1126330D01*
X-226443Y-1124590D01*
X-223228Y-1121375D01*
X-223170Y-1121234D01*
X-222752Y-1120598D01*
X-222085Y-1120141D01*
X-221293Y-1119980D01*
X-142946Y-1119980D01*
X-142183Y-1120129D01*
X-141509Y-1120575D01*
X-110018Y-1152067D01*
X-108150Y-1152840D01*
X-89200Y-1152840D01*
X-88452Y-1152983D01*
X-87775Y-1153424D01*
X-87323Y-1154094D01*
X-86967Y-1154954D01*
X-83394Y-1158527D01*
X-82595Y-1158858D01*
X-81994Y-1159242D01*
X-81521Y-1159898D01*
X-81341Y-1160686D01*
X-81483Y-1161483D01*
X-81924Y-1162160D01*
X-82595Y-1162612D01*
X-83106Y-1162824D01*
X-86536Y-1166254D01*
X-88134Y-1170112D01*
X-64266Y-1170112D01*
X-65864Y-1166254D01*
X-69294Y-1162824D01*
X-69805Y-1162612D01*
X-70406Y-1162228D01*
X-70879Y-1161572D01*
X-71059Y-1160784D01*
X-70917Y-1159987D01*
X-70476Y-1159310D01*
X-69805Y-1158858D01*
X-69006Y-1158527D01*
X-65433Y-1154954D01*
X-63500Y-1150286D01*
X-63500Y-1147150D01*
X-63375Y-1146448D01*
X-62950Y-1145760D01*
X-62290Y-1145292D01*
X-61500Y-1145118D01*
X-60705Y-1145266D01*
X-60031Y-1145713D01*
X-31938Y-1173807D01*
X-30070Y-1174580D01*
X2888Y-1174580D01*
X3621Y-1174717D01*
X4302Y-1175152D01*
X4759Y-1175819D01*
X4920Y-1176612D01*
X4920Y-1355972D01*
X4771Y-1356735D01*
X4325Y-1357409D01*
X-17007Y-1378740D01*
X-17829Y-1380727D01*
X-18258Y-1381374D01*
X-18929Y-1381826D01*
X-19175Y-1381928D01*
X-22390Y-1385143D01*
X-24130Y-1389344D01*
X-24130Y-1410656D01*
X-22390Y-1414857D01*
X-19175Y-1418072D01*
X-14974Y-1419812D01*
X-10426Y-1419812D01*
X-6225Y-1418072D01*
X-3010Y-1414857D01*
X-1602Y-1411458D01*
X-1218Y-1410857D01*
X-562Y-1410384D01*
X226Y-1410204D01*
X1023Y-1410346D01*
X1700Y-1410787D01*
X2152Y-1411458D01*
X3441Y-1414569D01*
X6513Y-1417641D01*
X9652Y-1418941D01*
X9652Y-1381059D01*
X6513Y-1382359D01*
X3441Y-1385431D01*
X2152Y-1388542D01*
X1768Y-1389143D01*
X1112Y-1389616D01*
X324Y-1389796D01*
X-473Y-1389654D01*
X-1150Y-1389213D01*
X-1602Y-1388542D01*
X-3010Y-1385143D01*
X-4589Y-1383565D01*
X-5010Y-1382950D01*
X-5184Y-1382160D01*
X-5035Y-1381365D01*
X-4589Y-1380691D01*
X14307Y-1361796D01*
X14599Y-1361090D01*
X14983Y-1360489D01*
X15639Y-1360016D01*
X16428Y-1359836D01*
X17224Y-1359978D01*
X17901Y-1360420D01*
X18353Y-1361090D01*
X21145Y-1367829D01*
X26771Y-1373455D01*
X34122Y-1376500D01*
X42078Y-1376500D01*
X49429Y-1373455D01*
X55055Y-1367829D01*
X58100Y-1360478D01*
X58100Y-1352522D01*
X54982Y-1344995D01*
X54830Y-1344315D01*
X54953Y-1343515D01*
X55378Y-1342827D01*
X56037Y-1342359D01*
X56827Y-1342186D01*
X57622Y-1342334D01*
X58297Y-1342781D01*
X82042Y-1366526D01*
X82476Y-1367170D01*
X82637Y-1367963D01*
X82637Y-1769959D01*
X82489Y-1770722D01*
X82042Y-1771396D01*
X54955Y-1798483D01*
X54311Y-1798917D01*
X53518Y-1799078D01*
X-18288Y-1799078D01*
X-19021Y-1798941D01*
X-19702Y-1798506D01*
X-20159Y-1797839D01*
X-20320Y-1797046D01*
X-20320Y-1791907D01*
X-20177Y-1791160D01*
X-19736Y-1790482D01*
X-19066Y-1790030D01*
X-18925Y-1789972D01*
X-15710Y-1786757D01*
X-14577Y-1784022D01*
X-14193Y-1783421D01*
X-13537Y-1782948D01*
X-12749Y-1782768D01*
X-11952Y-1782910D01*
X-11275Y-1783351D01*
X-10823Y-1784022D01*
X-9690Y-1786757D01*
X-6475Y-1789972D01*
X-2274Y-1791712D01*
X2274Y-1791712D01*
X6475Y-1789972D01*
X9690Y-1786757D01*
X11098Y-1783358D01*
X11482Y-1782757D01*
X12138Y-1782284D01*
X12926Y-1782104D01*
X13723Y-1782246D01*
X14400Y-1782687D01*
X14852Y-1783358D01*
X16141Y-1786469D01*
X19213Y-1789541D01*
X22352Y-1790841D01*
X22352Y-1752959D01*
X19213Y-1754259D01*
X16141Y-1757331D01*
X14852Y-1760442D01*
X14468Y-1761043D01*
X13812Y-1761516D01*
X13024Y-1761696D01*
X12227Y-1761554D01*
X11550Y-1761113D01*
X11098Y-1760442D01*
X9690Y-1757043D01*
X6475Y-1753828D01*
X2274Y-1752088D01*
X-2274Y-1752088D01*
X-6753Y-1753943D01*
X-6849Y-1754009D01*
X-7639Y-1754183D01*
X-8434Y-1754034D01*
X-9108Y-1753588D01*
X-15231Y-1747464D01*
X-16946Y-1745749D01*
X-18813Y-1744976D01*
X-50516Y-1744976D01*
X-51279Y-1744827D01*
X-51953Y-1744381D01*
X-80487Y-1715847D01*
X-80921Y-1715203D01*
X-81082Y-1714410D01*
X-81082Y-1366167D01*
X-80934Y-1365404D01*
X-80487Y-1364730D01*
X-33952Y-1318195D01*
X-33308Y-1317761D01*
X-32515Y-1317600D01*
X-14451Y-1317600D01*
X-12583Y-1316827D01*
X-2713Y-1306957D01*
X-1940Y-1305089D01*
X-1940Y-1248710D01*
X-2713Y-1246843D01*
X-10063Y-1239493D01*
X-11930Y-1238720D01*
X-32970Y-1238720D01*
X-33733Y-1238571D01*
X-34407Y-1238125D01*
X-64867Y-1207665D01*
X-65295Y-1207035D01*
X-65462Y-1206244D01*
X-65308Y-1205450D01*
X-63500Y-1201086D01*
X-63500Y-1196034D01*
X-65433Y-1191366D01*
X-69006Y-1187793D01*
X-69805Y-1187462D01*
X-70406Y-1187078D01*
X-70879Y-1186422D01*
X-71059Y-1185634D01*
X-70917Y-1184837D01*
X-70476Y-1184160D01*
X-69805Y-1183708D01*
X-69294Y-1183496D01*
X-65864Y-1180066D01*
X-64266Y-1176208D01*
X-88134Y-1176208D01*
X-86536Y-1180066D01*
X-83106Y-1183496D01*
X-82595Y-1183708D01*
X-81994Y-1184092D01*
X-81521Y-1184748D01*
X-81341Y-1185536D01*
X-81483Y-1186333D01*
X-81924Y-1187010D01*
X-82595Y-1187462D01*
X-83090Y-1187668D01*
X-83835Y-1187822D01*
X-84630Y-1187674D01*
X-85305Y-1187227D01*
X-92518Y-1180013D01*
X-94385Y-1179240D01*
X-112734Y-1179240D01*
X-113497Y-1179091D01*
X-114171Y-1178645D01*
X-151422Y-1141393D01*
X-153290Y-1140620D01*
X-216420Y-1140620D01*
X-217153Y-1140483D01*
X-217834Y-1140048D01*
X-218291Y-1139381D01*
X-218452Y-1138588D01*
X-218452Y-1136937D01*
X-220237Y-1135152D01*
X-240763Y-1135152D01*
X-242548Y-1136937D01*
X-242548Y-1154463D01*
X-240763Y-1156248D01*
X-220237Y-1156248D01*
X-218452Y-1154463D01*
X-218452Y-1152812D01*
X-218315Y-1152080D01*
X-217880Y-1151398D01*
X-217213Y-1150941D01*
X-216420Y-1150780D01*
X-157246Y-1150780D01*
X-156483Y-1150929D01*
X-155809Y-1151375D01*
X-118558Y-1188627D01*
X-116690Y-1189400D01*
X-98342Y-1189400D01*
X-97579Y-1189549D01*
X-96905Y-1189995D01*
X-89495Y-1197405D01*
X-89061Y-1198049D01*
X-88900Y-1198842D01*
X-88900Y-1201086D01*
X-86967Y-1205754D01*
X-83394Y-1209327D01*
X-78726Y-1211260D01*
X-76482Y-1211260D01*
X-75719Y-1211409D01*
X-75045Y-1211855D01*
X-38793Y-1248107D01*
X-36926Y-1248880D01*
X-15887Y-1248880D01*
X-15124Y-1249029D01*
X-14450Y-1249475D01*
X-12695Y-1251230D01*
X-12261Y-1251874D01*
X-12100Y-1252667D01*
X-12100Y-1272778D01*
X-12231Y-1273495D01*
X-12661Y-1274180D01*
X-13325Y-1274642D01*
X-14116Y-1274810D01*
X-14910Y-1274655D01*
X-18152Y-1273312D01*
X-32648Y-1273312D01*
X-35805Y-1274619D01*
X-37410Y-1276225D01*
X-38054Y-1276659D01*
X-38847Y-1276820D01*
X-61950Y-1276820D01*
X-63818Y-1277593D01*
X-74481Y-1288257D01*
X-75140Y-1288697D01*
X-75920Y-1289020D01*
X-96905Y-1310005D01*
X-97549Y-1310439D01*
X-98342Y-1310600D01*
X-179858Y-1310600D01*
X-180155Y-1310578D01*
X-180639Y-1310507D01*
X-180765Y-1310539D01*
X-181260Y-1310600D01*
X-181391Y-1310600D01*
X-181842Y-1310787D01*
X-182124Y-1310880D01*
X-182599Y-1311000D01*
X-182703Y-1311077D01*
X-183137Y-1311324D01*
X-183258Y-1311373D01*
X-183603Y-1311719D01*
X-183828Y-1311913D01*
X-193339Y-1318980D01*
X-193744Y-1319213D01*
X-194535Y-1319381D01*
X-195329Y-1319226D01*
X-198405Y-1317952D01*
X-203595Y-1317952D01*
X-208391Y-1319938D01*
X-212062Y-1323609D01*
X-214048Y-1328405D01*
X-214048Y-1333595D01*
X-212062Y-1338391D01*
X-208391Y-1342062D01*
X-203595Y-1344048D01*
X-198405Y-1344048D01*
X-193609Y-1342062D01*
X-189938Y-1338391D01*
X-187877Y-1333415D01*
X-187493Y-1332814D01*
X-186837Y-1332341D01*
X-186049Y-1332161D01*
X-185252Y-1332303D01*
X-184575Y-1332744D01*
X-184123Y-1333415D01*
X-182062Y-1338391D01*
X-178391Y-1342062D01*
X-173595Y-1344048D01*
X-168405Y-1344048D01*
X-167215Y-1343555D01*
X-166503Y-1343402D01*
X-165705Y-1343537D01*
X-165024Y-1343973D01*
X-164567Y-1344640D01*
X-164406Y-1345433D01*
X-164406Y-1379061D01*
X-164548Y-1379809D01*
X-164990Y-1380486D01*
X-165660Y-1380938D01*
X-166717Y-1381376D01*
X-170387Y-1385047D01*
X-172374Y-1389842D01*
X-172374Y-1395033D01*
X-170387Y-1399829D01*
X-166717Y-1403499D01*
X-161921Y-1405486D01*
X-156730Y-1405486D01*
X-151935Y-1403499D01*
X-148264Y-1399829D01*
X-146278Y-1395033D01*
X-146278Y-1389842D01*
X-148264Y-1385047D01*
X-151935Y-1381376D01*
X-152991Y-1380938D01*
X-153628Y-1380521D01*
X-154085Y-1379854D01*
X-154246Y-1379061D01*
X-154246Y-1343741D01*
X-154229Y-1343652D01*
X-154246Y-1342354D01*
X-154246Y-1342327D01*
X-154246Y-1341329D01*
X-154640Y-1340411D01*
X-154650Y-1340387D01*
X-155032Y-1339465D01*
X-155748Y-1338768D01*
X-155767Y-1338749D01*
X-156684Y-1337832D01*
X-156760Y-1337782D01*
X-157858Y-1336711D01*
X-158305Y-1336063D01*
X-158472Y-1335272D01*
X-158318Y-1334478D01*
X-157952Y-1333595D01*
X-157952Y-1328405D01*
X-159955Y-1323570D01*
X-160108Y-1322857D01*
X-159973Y-1322060D01*
X-159537Y-1321378D01*
X-158870Y-1320921D01*
X-158077Y-1320760D01*
X-94385Y-1320760D01*
X-92518Y-1319987D01*
X-70929Y-1298397D01*
X-70270Y-1297957D01*
X-69490Y-1297634D01*
X-59431Y-1287575D01*
X-58787Y-1287141D01*
X-57994Y-1286980D01*
X-38847Y-1286980D01*
X-38084Y-1287129D01*
X-37410Y-1287575D01*
X-35805Y-1289181D01*
X-32648Y-1290488D01*
X-18152Y-1290488D01*
X-14910Y-1289145D01*
X-14197Y-1288991D01*
X-13400Y-1289127D01*
X-12718Y-1289563D01*
X-12261Y-1290230D01*
X-12100Y-1291022D01*
X-12100Y-1301133D01*
X-12249Y-1301896D01*
X-12695Y-1302570D01*
X-16970Y-1306845D01*
X-17614Y-1307279D01*
X-18407Y-1307440D01*
X-36471Y-1307440D01*
X-38339Y-1308213D01*
X-90469Y-1360344D01*
X-91242Y-1362211D01*
X-91242Y-1718366D01*
X-90469Y-1720233D01*
X-56340Y-1754363D01*
X-54472Y-1755136D01*
X-37341Y-1755136D01*
X-36624Y-1755267D01*
X-35939Y-1755697D01*
X-35476Y-1756361D01*
X-35309Y-1757152D01*
X-35464Y-1757946D01*
X-36830Y-1761244D01*
X-36830Y-1782556D01*
X-35090Y-1786757D01*
X-31875Y-1789972D01*
X-31734Y-1790030D01*
X-31098Y-1790448D01*
X-30641Y-1791115D01*
X-30480Y-1791907D01*
X-30480Y-1805168D01*
X-29707Y-1807036D01*
X-28278Y-1808465D01*
X-26410Y-1809238D01*
G37*
G36*
X-9246Y-760929D02*
X9246Y-760929D01*
X27481Y-757849D01*
X44947Y-751775D01*
X61158Y-742876D01*
X75660Y-731401D01*
X81470Y-724963D01*
X81742Y-724712D01*
X81957Y-724547D01*
X82048Y-724389D01*
X82299Y-724044D01*
X82421Y-723909D01*
X82512Y-723653D01*
X82666Y-723317D01*
X189698Y-537933D01*
X189912Y-537631D01*
X190088Y-537424D01*
X190144Y-537251D01*
X190317Y-536861D01*
X190408Y-536703D01*
X190444Y-536434D01*
X190525Y-536074D01*
X193196Y-527823D01*
X195882Y-509527D01*
X195483Y-491038D01*
X192011Y-472874D01*
X185561Y-455543D01*
X176315Y-439528D01*
X164530Y-425277D01*
X150536Y-413187D01*
X134725Y-403598D01*
X117536Y-396776D01*
X109055Y-394964D01*
X108702Y-394854D01*
X108451Y-394750D01*
X108270Y-394750D01*
X107845Y-394705D01*
X107667Y-394667D01*
X107400Y-394716D01*
X107032Y-394750D01*
X-107032Y-394750D01*
X-107400Y-394716D01*
X-107667Y-394667D01*
X-107845Y-394705D01*
X-108270Y-394750D01*
X-108451Y-394750D01*
X-108702Y-394854D01*
X-109055Y-394964D01*
X-117536Y-396776D01*
X-134725Y-403598D01*
X-150536Y-413187D01*
X-164530Y-425277D01*
X-176315Y-439528D01*
X-185561Y-455543D01*
X-192011Y-472874D01*
X-195483Y-491038D01*
X-195882Y-509527D01*
X-193196Y-527823D01*
X-190525Y-536074D01*
X-190444Y-536434D01*
X-190408Y-536703D01*
X-190317Y-536861D01*
X-190144Y-537251D01*
X-190088Y-537424D01*
X-189912Y-537631D01*
X-189698Y-537933D01*
X-82666Y-723317D01*
X-82512Y-723653D01*
X-82421Y-723909D01*
X-82299Y-724044D01*
X-82048Y-724389D01*
X-81957Y-724547D01*
X-81742Y-724712D01*
X-81470Y-724963D01*
X-75660Y-731401D01*
X-61158Y-742876D01*
X-44947Y-751775D01*
X-27481Y-757849D01*
X-9246Y-760929D01*
G37*
G36*
X646765Y-666262D02*
X653235Y-666262D01*
X659212Y-663786D01*
X663786Y-659212D01*
X666262Y-653235D01*
X666262Y-646765D01*
X663786Y-640788D01*
X659212Y-636214D01*
X653235Y-633738D01*
X646765Y-633738D01*
X640788Y-636214D01*
X636214Y-640788D01*
X633738Y-646765D01*
X633738Y-653235D01*
X636214Y-659212D01*
X640788Y-663786D01*
X646765Y-666262D01*
G37*
G36*
X596765Y-666262D02*
X603235Y-666262D01*
X609212Y-663786D01*
X613786Y-659212D01*
X616262Y-653235D01*
X616262Y-646765D01*
X613786Y-640788D01*
X609212Y-636214D01*
X603235Y-633738D01*
X596765Y-633738D01*
X590788Y-636214D01*
X586214Y-640788D01*
X583738Y-646765D01*
X583738Y-653235D01*
X586214Y-659212D01*
X590788Y-663786D01*
X596765Y-666262D01*
G37*
G36*
X-603235Y-666262D02*
X-596765Y-666262D01*
X-590788Y-663786D01*
X-586214Y-659212D01*
X-583738Y-653235D01*
X-583738Y-646765D01*
X-586214Y-640788D01*
X-590788Y-636214D01*
X-596765Y-633738D01*
X-603235Y-633738D01*
X-609212Y-636214D01*
X-613786Y-640788D01*
X-616262Y-646765D01*
X-616262Y-653235D01*
X-613786Y-659212D01*
X-609212Y-663786D01*
X-603235Y-666262D01*
G37*
G36*
X-653235Y-666262D02*
X-646765Y-666262D01*
X-640788Y-663786D01*
X-636214Y-659212D01*
X-633738Y-653235D01*
X-633738Y-646765D01*
X-636214Y-640788D01*
X-640788Y-636214D01*
X-646765Y-633738D01*
X-653235Y-633738D01*
X-659212Y-636214D01*
X-663786Y-640788D01*
X-666262Y-646765D01*
X-666262Y-653235D01*
X-663786Y-659212D01*
X-659212Y-663786D01*
X-653235Y-666262D01*
G37*
G36*
X176899Y-672262D02*
X183368Y-672262D01*
X189345Y-669786D01*
X193920Y-665212D01*
X196395Y-659235D01*
X196395Y-652765D01*
X193920Y-646788D01*
X189345Y-642214D01*
X183368Y-639738D01*
X176899Y-639738D01*
X170922Y-642214D01*
X166347Y-646788D01*
X163871Y-652765D01*
X163871Y-659235D01*
X166347Y-665212D01*
X170922Y-669786D01*
X176899Y-672262D01*
G37*
G36*
X-183368Y-672262D02*
X-176899Y-672262D01*
X-170922Y-669786D01*
X-166347Y-665212D01*
X-163871Y-659235D01*
X-163871Y-652765D01*
X-166347Y-646788D01*
X-170922Y-642214D01*
X-176899Y-639738D01*
X-183368Y-639738D01*
X-189345Y-642214D01*
X-193920Y-646788D01*
X-196395Y-652765D01*
X-196395Y-659235D01*
X-193920Y-665212D01*
X-189345Y-669786D01*
X-183368Y-672262D01*
G37*
G36*
X-431032Y-676467D02*
X-428963Y-683682D01*
X-421394Y-681512D01*
X-425775Y-666234D01*
X-428434Y-668349D01*
X-430540Y-672150D01*
X-431032Y-676467D01*
G37*
G36*
X-418709Y-702265D02*
X-415333Y-702650D01*
X-419714Y-687372D01*
X-427283Y-689542D01*
X-425214Y-696758D01*
X-422509Y-700158D01*
X-418709Y-702265D01*
G37*
G36*
X-40213Y-838828D02*
X-32227Y-838828D01*
X-24514Y-836761D01*
X-17598Y-832768D01*
X-11952Y-827122D01*
X-7959Y-820206D01*
X-5892Y-812493D01*
X-5892Y-804507D01*
X-7959Y-796794D01*
X-11952Y-789878D01*
X-17598Y-784232D01*
X-24514Y-780239D01*
X-32227Y-778172D01*
X-40213Y-778172D01*
X-47926Y-780239D01*
X-54842Y-784232D01*
X-60488Y-789878D01*
X-64481Y-796794D01*
X-66548Y-804507D01*
X-66548Y-812493D01*
X-64481Y-820206D01*
X-60488Y-827122D01*
X-54842Y-832768D01*
X-47926Y-836761D01*
X-40213Y-838828D01*
G37*
G36*
X31814Y-838628D02*
X39746Y-838628D01*
X47409Y-836575D01*
X54279Y-832608D01*
X59888Y-826999D01*
X63855Y-820129D01*
X65908Y-812466D01*
X65908Y-804534D01*
X63855Y-796871D01*
X59888Y-790001D01*
X54279Y-784392D01*
X47409Y-780425D01*
X39746Y-778372D01*
X31814Y-778372D01*
X24151Y-780425D01*
X17281Y-784392D01*
X11672Y-790001D01*
X7705Y-796871D01*
X5652Y-804534D01*
X5652Y-812466D01*
X7705Y-820129D01*
X11672Y-826999D01*
X17281Y-832608D01*
X24151Y-836575D01*
X31814Y-838628D01*
G37*
G36*
X-230478Y-841900D02*
X-222522Y-841900D01*
X-215171Y-838855D01*
X-209545Y-833229D01*
X-206500Y-825878D01*
X-206500Y-817922D01*
X-209545Y-810571D01*
X-215171Y-804945D01*
X-222522Y-801900D01*
X-230478Y-801900D01*
X-237829Y-804945D01*
X-243455Y-810571D01*
X-246500Y-817922D01*
X-246500Y-825878D01*
X-243455Y-833229D01*
X-237829Y-838855D01*
X-230478Y-841900D01*
G37*
G36*
X222522Y-841900D02*
X230478Y-841900D01*
X237829Y-838855D01*
X243455Y-833229D01*
X246500Y-825878D01*
X246500Y-817922D01*
X243455Y-810571D01*
X237829Y-804945D01*
X230478Y-801900D01*
X222522Y-801900D01*
X215171Y-804945D01*
X209545Y-810571D01*
X206500Y-817922D01*
X206500Y-825878D01*
X209545Y-833229D01*
X215171Y-838855D01*
X222522Y-841900D01*
G37*
G36*
X273048Y-844252D02*
X288941Y-844252D01*
X287641Y-841113D01*
X284569Y-838041D01*
X280555Y-836378D01*
X273048Y-836378D01*
X273048Y-844252D01*
G37*
G36*
X251059Y-844252D02*
X266952Y-844252D01*
X266952Y-836378D01*
X259445Y-836378D01*
X255431Y-838041D01*
X252359Y-841113D01*
X251059Y-844252D01*
G37*
G36*
X-11934Y-865312D02*
X-3048Y-865312D01*
X-3048Y-856426D01*
X-6906Y-858024D01*
X-10336Y-861454D01*
X-11934Y-865312D01*
G37*
G36*
X-26957Y-876186D02*
X-23843Y-876186D01*
X-20967Y-874995D01*
X-18765Y-872793D01*
X-17574Y-869917D01*
X-17574Y-866803D01*
X-18765Y-863927D01*
X-20967Y-861725D01*
X-23843Y-860534D01*
X-26957Y-860534D01*
X-29833Y-861725D01*
X-32035Y-863927D01*
X-33226Y-866803D01*
X-33226Y-869917D01*
X-32035Y-872793D01*
X-29833Y-874995D01*
X-26957Y-876186D01*
G37*
G36*
X-52357Y-876186D02*
X-49243Y-876186D01*
X-46367Y-874995D01*
X-44165Y-872793D01*
X-42974Y-869917D01*
X-42974Y-866803D01*
X-44165Y-863927D01*
X-46367Y-861725D01*
X-49243Y-860534D01*
X-52357Y-860534D01*
X-55233Y-861725D01*
X-57435Y-863927D01*
X-58626Y-866803D01*
X-58626Y-869917D01*
X-57435Y-872793D01*
X-55233Y-874995D01*
X-52357Y-876186D01*
G37*
G36*
X-6906Y-878696D02*
X-3048Y-880294D01*
X-3048Y-871408D01*
X-11934Y-871408D01*
X-10336Y-875266D01*
X-6906Y-878696D01*
G37*
G36*
X-266952Y-883622D02*
X-259445Y-883622D01*
X-255431Y-881959D01*
X-252359Y-878887D01*
X-251059Y-875748D01*
X-266952Y-875748D01*
X-266952Y-883622D01*
G37*
G36*
X-230478Y-918100D02*
X-222522Y-918100D01*
X-215171Y-915055D01*
X-209545Y-909429D01*
X-206500Y-902078D01*
X-206500Y-894122D01*
X-209545Y-886771D01*
X-215171Y-881145D01*
X-222522Y-878100D01*
X-230478Y-878100D01*
X-237829Y-881145D01*
X-243455Y-886771D01*
X-246500Y-894122D01*
X-246500Y-902078D01*
X-243455Y-909429D01*
X-237829Y-915055D01*
X-230478Y-918100D01*
G37*
G36*
X534800Y-989817D02*
X542264Y-989817D01*
X549160Y-986961D01*
X554438Y-981683D01*
X557294Y-974787D01*
X557294Y-967323D01*
X554438Y-960428D01*
X549160Y-955150D01*
X542264Y-952293D01*
X534800Y-952293D01*
X527904Y-955150D01*
X522626Y-960428D01*
X519770Y-967323D01*
X519770Y-974787D01*
X522626Y-981683D01*
X527904Y-986961D01*
X534800Y-989817D01*
G37*
G36*
X-542264Y-989817D02*
X-534800Y-989817D01*
X-527904Y-986961D01*
X-522626Y-981683D01*
X-519770Y-974787D01*
X-519770Y-967323D01*
X-522626Y-960428D01*
X-527904Y-955150D01*
X-534800Y-952293D01*
X-542264Y-952293D01*
X-549160Y-955150D01*
X-554438Y-960428D01*
X-557294Y-967323D01*
X-557294Y-974787D01*
X-554438Y-981683D01*
X-549160Y-986961D01*
X-542264Y-989817D01*
G37*
G36*
X74643Y-1003186D02*
X77757Y-1003186D01*
X80633Y-1001995D01*
X82835Y-999793D01*
X84026Y-996917D01*
X84026Y-993803D01*
X82835Y-990927D01*
X80633Y-988725D01*
X77757Y-987534D01*
X74643Y-987534D01*
X71767Y-988725D01*
X69565Y-990927D01*
X68374Y-993803D01*
X68374Y-996917D01*
X69565Y-999793D01*
X71767Y-1001995D01*
X74643Y-1003186D01*
G37*
G36*
X-260241Y-1086452D02*
X-222359Y-1086452D01*
X-223659Y-1083313D01*
X-226731Y-1080241D01*
X-229842Y-1078952D01*
X-230443Y-1078568D01*
X-230916Y-1077912D01*
X-231096Y-1077124D01*
X-230954Y-1076327D01*
X-230513Y-1075650D01*
X-229842Y-1075198D01*
X-226443Y-1073790D01*
X-223228Y-1070575D01*
X-221488Y-1066374D01*
X-221488Y-1061826D01*
X-223228Y-1057625D01*
X-226443Y-1054410D01*
X-230644Y-1052670D01*
X-251956Y-1052670D01*
X-256157Y-1054410D01*
X-259372Y-1057625D01*
X-261112Y-1061826D01*
X-261112Y-1066374D01*
X-259372Y-1070575D01*
X-256157Y-1073790D01*
X-252758Y-1075198D01*
X-252157Y-1075582D01*
X-251684Y-1076238D01*
X-251504Y-1077026D01*
X-251646Y-1077823D01*
X-252087Y-1078500D01*
X-252758Y-1078952D01*
X-255869Y-1080241D01*
X-258941Y-1083313D01*
X-260241Y-1086452D01*
G37*
G36*
X474310Y-1093456D02*
X481774Y-1093456D01*
X488670Y-1090599D01*
X493948Y-1085321D01*
X496804Y-1078426D01*
X496804Y-1070962D01*
X493948Y-1064066D01*
X488670Y-1058788D01*
X481774Y-1055932D01*
X474310Y-1055932D01*
X467414Y-1058788D01*
X462136Y-1064066D01*
X459280Y-1070962D01*
X459280Y-1078426D01*
X462136Y-1085321D01*
X467414Y-1090599D01*
X474310Y-1093456D01*
G37*
G36*
X-481774Y-1093456D02*
X-474310Y-1093456D01*
X-467414Y-1090599D01*
X-462136Y-1085321D01*
X-459280Y-1078426D01*
X-459280Y-1070962D01*
X-462136Y-1064066D01*
X-467414Y-1058788D01*
X-474310Y-1055932D01*
X-481774Y-1055932D01*
X-488670Y-1058788D01*
X-493948Y-1064066D01*
X-496804Y-1070962D01*
X-496804Y-1078426D01*
X-493948Y-1085321D01*
X-488670Y-1090599D01*
X-481774Y-1093456D01*
G37*
G36*
X-77757Y-1079386D02*
X-74643Y-1079386D01*
X-71767Y-1078195D01*
X-69565Y-1075993D01*
X-68374Y-1073117D01*
X-68374Y-1070003D01*
X-69565Y-1067127D01*
X-71767Y-1064925D01*
X-74643Y-1063734D01*
X-77757Y-1063734D01*
X-80633Y-1064925D01*
X-82835Y-1067127D01*
X-84026Y-1070003D01*
X-84026Y-1073117D01*
X-82835Y-1075993D01*
X-80633Y-1078195D01*
X-77757Y-1079386D01*
G37*
G36*
X74643Y-1104786D02*
X77757Y-1104786D01*
X80633Y-1103595D01*
X82835Y-1101393D01*
X84026Y-1098517D01*
X84026Y-1095403D01*
X82835Y-1092527D01*
X80633Y-1090325D01*
X77757Y-1089134D01*
X74643Y-1089134D01*
X71767Y-1090325D01*
X69565Y-1092527D01*
X68374Y-1095403D01*
X68374Y-1098517D01*
X69565Y-1101393D01*
X71767Y-1103595D01*
X74643Y-1104786D01*
G37*
G36*
X-242040Y-1168052D02*
X-233548Y-1168052D01*
X-233548Y-1161060D01*
X-240552Y-1161060D01*
X-242040Y-1162548D01*
X-242040Y-1168052D01*
G37*
G36*
X-227452Y-1168052D02*
X-218960Y-1168052D01*
X-218960Y-1162548D01*
X-220448Y-1161060D01*
X-227452Y-1161060D01*
X-227452Y-1168052D01*
G37*
G36*
X258478Y-1184552D02*
X266352Y-1184552D01*
X266352Y-1168659D01*
X263213Y-1169959D01*
X260141Y-1173031D01*
X258478Y-1177045D01*
X258478Y-1184552D01*
G37*
G36*
X-200263Y-1216648D02*
X-159737Y-1216648D01*
X-157952Y-1214863D01*
X-157952Y-1174337D01*
X-159737Y-1172552D01*
X-200263Y-1172552D01*
X-202048Y-1174337D01*
X-202048Y-1188388D01*
X-202185Y-1189121D01*
X-202620Y-1189802D01*
X-203287Y-1190259D01*
X-204080Y-1190420D01*
X-216420Y-1190420D01*
X-217153Y-1190283D01*
X-217834Y-1189848D01*
X-218291Y-1189181D01*
X-218452Y-1188388D01*
X-218452Y-1187737D01*
X-220237Y-1185952D01*
X-240763Y-1185952D01*
X-242548Y-1187737D01*
X-242548Y-1205263D01*
X-240763Y-1207048D01*
X-220237Y-1207048D01*
X-218452Y-1205263D01*
X-218452Y-1204612D01*
X-218315Y-1203880D01*
X-217880Y-1203198D01*
X-217213Y-1202741D01*
X-216420Y-1202580D01*
X-204080Y-1202580D01*
X-203348Y-1202717D01*
X-202666Y-1203152D01*
X-202209Y-1203819D01*
X-202048Y-1204612D01*
X-202048Y-1214863D01*
X-200263Y-1216648D01*
G37*
G36*
X-227452Y-1181140D02*
X-220448Y-1181140D01*
X-218960Y-1179652D01*
X-218960Y-1174148D01*
X-227452Y-1174148D01*
X-227452Y-1181140D01*
G37*
G36*
X-240552Y-1181140D02*
X-233548Y-1181140D01*
X-233548Y-1174148D01*
X-242040Y-1174148D01*
X-242040Y-1179652D01*
X-240552Y-1181140D01*
G37*
G36*
X168308Y-1185982D02*
X175815Y-1185982D01*
X179829Y-1184319D01*
X182901Y-1181247D01*
X184201Y-1178108D01*
X168308Y-1178108D01*
X168308Y-1185982D01*
G37*
G36*
X154705Y-1185982D02*
X162212Y-1185982D01*
X162212Y-1178108D01*
X146319Y-1178108D01*
X147619Y-1181247D01*
X150691Y-1184319D01*
X154705Y-1185982D01*
G37*
G36*
X263213Y-1205241D02*
X266352Y-1206541D01*
X266352Y-1190648D01*
X258478Y-1190648D01*
X258478Y-1198155D01*
X260141Y-1202169D01*
X263213Y-1205241D01*
G37*
G36*
X79248Y-1201608D02*
X79248Y-1210494D01*
X83106Y-1208896D01*
X86536Y-1205466D01*
X88134Y-1201608D01*
X79248Y-1201608D01*
G37*
G36*
X-200263Y-1267448D02*
X-159737Y-1267448D01*
X-157952Y-1265663D01*
X-157952Y-1225137D01*
X-159737Y-1223352D01*
X-200263Y-1223352D01*
X-202048Y-1225137D01*
X-202048Y-1236848D01*
X-202173Y-1237550D01*
X-202598Y-1238238D01*
X-203258Y-1238706D01*
X-204048Y-1238880D01*
X-204843Y-1238731D01*
X-205517Y-1238285D01*
X-217857Y-1225945D01*
X-218291Y-1225300D01*
X-218452Y-1224508D01*
X-218452Y-1213137D01*
X-220237Y-1211352D01*
X-240763Y-1211352D01*
X-242548Y-1213137D01*
X-242548Y-1230663D01*
X-240763Y-1232448D01*
X-229392Y-1232448D01*
X-228630Y-1232597D01*
X-227955Y-1233043D01*
X-210444Y-1250554D01*
X-208209Y-1251480D01*
X-204080Y-1251480D01*
X-203348Y-1251617D01*
X-202666Y-1252052D01*
X-202209Y-1252719D01*
X-202048Y-1253512D01*
X-202048Y-1265663D01*
X-200263Y-1267448D01*
G37*
G36*
X-42078Y-1376500D02*
X-34122Y-1376500D01*
X-26771Y-1373455D01*
X-21145Y-1367829D01*
X-18100Y-1360478D01*
X-18100Y-1352522D01*
X-21145Y-1345171D01*
X-26771Y-1339545D01*
X-34122Y-1336500D01*
X-42078Y-1336500D01*
X-49429Y-1339545D01*
X-55055Y-1345171D01*
X-58100Y-1352522D01*
X-58100Y-1360478D01*
X-55055Y-1367829D01*
X-49429Y-1373455D01*
X-42078Y-1376500D01*
G37*
G36*
X15748Y-1396952D02*
X23622Y-1396952D01*
X23622Y-1389445D01*
X21959Y-1385431D01*
X18887Y-1382359D01*
X15748Y-1381059D01*
X15748Y-1396952D01*
G37*
G36*
X15748Y-1403048D02*
X15748Y-1418941D01*
X18887Y-1417641D01*
X21959Y-1414569D01*
X23622Y-1410555D01*
X23622Y-1403048D01*
X15748Y-1403048D01*
G37*
G36*
X136809Y-1471254D02*
X145832Y-1472554D01*
X147142Y-1463466D01*
X145920Y-1463466D01*
X141311Y-1465375D01*
X137783Y-1468902D01*
X136809Y-1471254D01*
G37*
G36*
X-146055Y-1464050D02*
X-144761Y-1473143D01*
X-135736Y-1471858D01*
X-136718Y-1469486D01*
X-140246Y-1465959D01*
X-144855Y-1464050D01*
X-146055Y-1464050D01*
G37*
G36*
X151866Y-1473424D02*
X160954Y-1474733D01*
X160954Y-1473511D01*
X159045Y-1468902D01*
X155517Y-1465375D01*
X153166Y-1464401D01*
X151866Y-1473424D01*
G37*
G36*
X-159889Y-1474095D02*
X-159889Y-1475296D01*
X-150796Y-1474002D01*
X-152081Y-1464976D01*
X-154453Y-1465959D01*
X-157980Y-1469486D01*
X-159889Y-1474095D01*
G37*
G36*
X141311Y-1486637D02*
X143662Y-1487611D01*
X144962Y-1478588D01*
X135874Y-1477278D01*
X135874Y-1478500D01*
X137783Y-1483109D01*
X141311Y-1486637D01*
G37*
G36*
X-143902Y-1479178D02*
X-142618Y-1488203D01*
X-140246Y-1487221D01*
X-136718Y-1483693D01*
X-134809Y-1479084D01*
X-134809Y-1477884D01*
X-143902Y-1479178D01*
G37*
G36*
X149686Y-1488546D02*
X150908Y-1488546D01*
X155517Y-1486637D01*
X159045Y-1483109D01*
X160019Y-1480758D01*
X150996Y-1479457D01*
X149686Y-1488546D01*
G37*
G36*
X-149844Y-1489130D02*
X-148643Y-1489130D01*
X-149937Y-1480037D01*
X-158963Y-1481321D01*
X-157980Y-1483693D01*
X-154453Y-1487221D01*
X-149844Y-1489130D01*
G37*
G36*
X136955Y-1571722D02*
X144419Y-1571722D01*
X151315Y-1568866D01*
X156593Y-1563588D01*
X159449Y-1556692D01*
X159449Y-1549228D01*
X156593Y-1542333D01*
X151315Y-1537055D01*
X144419Y-1534198D01*
X136955Y-1534198D01*
X130060Y-1537055D01*
X124782Y-1542333D01*
X121925Y-1549228D01*
X121925Y-1556692D01*
X124782Y-1563588D01*
X130060Y-1568866D01*
X136955Y-1571722D01*
G37*
G36*
X-144419Y-1571722D02*
X-136955Y-1571722D01*
X-130060Y-1568866D01*
X-124782Y-1563588D01*
X-121925Y-1556692D01*
X-121925Y-1549228D01*
X-124782Y-1542333D01*
X-130060Y-1537055D01*
X-136955Y-1534198D01*
X-144419Y-1534198D01*
X-151315Y-1537055D01*
X-156593Y-1542333D01*
X-159449Y-1549228D01*
X-159449Y-1556692D01*
X-156593Y-1563588D01*
X-151315Y-1568866D01*
X-144419Y-1571722D01*
G37*
G36*
X116489Y-1730408D02*
X123953Y-1730408D01*
X130849Y-1727552D01*
X136127Y-1722274D01*
X138983Y-1715378D01*
X138983Y-1707914D01*
X136127Y-1701018D01*
X130849Y-1695740D01*
X123953Y-1692884D01*
X116489Y-1692884D01*
X109593Y-1695740D01*
X104315Y-1701018D01*
X101459Y-1707914D01*
X101459Y-1715378D01*
X104315Y-1722274D01*
X109593Y-1727552D01*
X116489Y-1730408D01*
G37*
G36*
X-123953Y-1730408D02*
X-116489Y-1730408D01*
X-109593Y-1727552D01*
X-104315Y-1722274D01*
X-101459Y-1715378D01*
X-101459Y-1707914D01*
X-104315Y-1701018D01*
X-109593Y-1695740D01*
X-116489Y-1692884D01*
X-123953Y-1692884D01*
X-130849Y-1695740D01*
X-136127Y-1701018D01*
X-138983Y-1707914D01*
X-138983Y-1715378D01*
X-136127Y-1722274D01*
X-130849Y-1727552D01*
X-123953Y-1730408D01*
G37*
G36*
X28448Y-1768852D02*
X36322Y-1768852D01*
X36322Y-1761345D01*
X34659Y-1757331D01*
X31587Y-1754259D01*
X28448Y-1752959D01*
X28448Y-1768852D01*
G37*
G36*
X28448Y-1774948D02*
X28448Y-1790841D01*
X31587Y-1789541D01*
X34659Y-1786469D01*
X36322Y-1782455D01*
X36322Y-1774948D01*
X28448Y-1774948D01*
G37*
G36*
X101139Y-1849422D02*
X108603Y-1849422D01*
X115499Y-1846566D01*
X120777Y-1841288D01*
X123633Y-1834392D01*
X123633Y-1826928D01*
X120777Y-1820033D01*
X115499Y-1814755D01*
X108603Y-1811898D01*
X101139Y-1811898D01*
X94243Y-1814755D01*
X88966Y-1820033D01*
X86109Y-1826928D01*
X86109Y-1834392D01*
X88966Y-1841288D01*
X94243Y-1846566D01*
X101139Y-1849422D01*
G37*
G36*
X-108603Y-1849422D02*
X-101139Y-1849422D01*
X-94243Y-1846566D01*
X-88966Y-1841288D01*
X-86109Y-1834392D01*
X-86109Y-1826928D01*
X-88966Y-1820033D01*
X-94243Y-1814755D01*
X-101139Y-1811898D01*
X-108603Y-1811898D01*
X-115499Y-1814755D01*
X-120777Y-1820033D01*
X-123633Y-1826928D01*
X-123633Y-1834392D01*
X-120777Y-1841288D01*
X-115499Y-1846566D01*
X-108603Y-1849422D01*
G37*
G36*
X-3235Y-2123311D02*
X3235Y-2123311D01*
X9212Y-2120835D01*
X13786Y-2116260D01*
X16262Y-2110283D01*
X16262Y-2103814D01*
X13786Y-2097837D01*
X9212Y-2093262D01*
X7873Y-2092708D01*
X7284Y-2092335D01*
X6806Y-2091682D01*
X6620Y-2090895D01*
X6755Y-2090098D01*
X7191Y-2089417D01*
X7858Y-2088960D01*
X8651Y-2088799D01*
X62095Y-2088799D01*
X63657Y-2088152D01*
X64853Y-2086956D01*
X65500Y-2085394D01*
X65500Y-1852703D01*
X64853Y-1851141D01*
X63657Y-1849946D01*
X62095Y-1849299D01*
X8651Y-1849299D01*
X7964Y-1849179D01*
X7272Y-1848760D01*
X6799Y-1848104D01*
X6619Y-1847315D01*
X6761Y-1846519D01*
X7203Y-1845841D01*
X7873Y-1845389D01*
X9212Y-1844835D01*
X13786Y-1840260D01*
X16262Y-1834283D01*
X16262Y-1827814D01*
X13786Y-1821837D01*
X9212Y-1817262D01*
X3235Y-1814787D01*
X-3235Y-1814787D01*
X-9212Y-1817262D01*
X-13786Y-1821837D01*
X-16262Y-1827814D01*
X-16262Y-1834283D01*
X-13786Y-1840260D01*
X-9212Y-1844835D01*
X-7873Y-1845389D01*
X-7284Y-1845763D01*
X-6806Y-1846415D01*
X-6620Y-1847202D01*
X-6755Y-1847999D01*
X-7191Y-1848680D01*
X-7858Y-1849138D01*
X-8651Y-1849299D01*
X-62095Y-1849299D01*
X-63657Y-1849946D01*
X-64853Y-1851141D01*
X-65500Y-1852703D01*
X-65500Y-2085394D01*
X-64853Y-2086956D01*
X-63657Y-2088152D01*
X-62095Y-2088799D01*
X-8651Y-2088799D01*
X-7964Y-2088918D01*
X-7272Y-2089338D01*
X-6799Y-2089994D01*
X-6619Y-2090782D01*
X-6761Y-2091578D01*
X-7203Y-2092256D01*
X-7873Y-2092708D01*
X-9212Y-2093262D01*
X-13786Y-2097837D01*
X-16262Y-2103814D01*
X-16262Y-2110283D01*
X-13786Y-2116260D01*
X-9212Y-2120835D01*
X-3235Y-2123311D01*
G37*
%LPD*%
G36*
X527787Y-595119D02*
X526994Y-595280D01*
X409430Y-595280D01*
X408728Y-595155D01*
X408040Y-594730D01*
X407572Y-594070D01*
X407398Y-593280D01*
X407547Y-592485D01*
X407993Y-591811D01*
X422692Y-577112D01*
X423307Y-576691D01*
X424097Y-576517D01*
X424892Y-576666D01*
X424999Y-576737D01*
X429526Y-578612D01*
X434074Y-578612D01*
X438275Y-576872D01*
X441490Y-573657D01*
X442623Y-570922D01*
X443007Y-570321D01*
X443663Y-569848D01*
X444451Y-569668D01*
X445248Y-569810D01*
X445925Y-570251D01*
X446377Y-570922D01*
X447510Y-573657D01*
X450725Y-576872D01*
X454926Y-578612D01*
X459474Y-578612D01*
X463675Y-576872D01*
X466890Y-573657D01*
X468023Y-570922D01*
X468407Y-570321D01*
X469063Y-569848D01*
X469851Y-569668D01*
X470648Y-569810D01*
X471325Y-570251D01*
X471777Y-570922D01*
X472910Y-573657D01*
X476125Y-576872D01*
X480326Y-578612D01*
X484874Y-578612D01*
X489075Y-576872D01*
X492290Y-573657D01*
X493423Y-570922D01*
X493807Y-570321D01*
X494463Y-569848D01*
X495251Y-569668D01*
X496048Y-569810D01*
X496725Y-570251D01*
X497177Y-570922D01*
X498310Y-573657D01*
X501525Y-576872D01*
X505726Y-578612D01*
X510274Y-578612D01*
X514475Y-576872D01*
X517690Y-573657D01*
X519430Y-569456D01*
X519430Y-548144D01*
X517690Y-543943D01*
X514475Y-540728D01*
X510274Y-538988D01*
X505726Y-538988D01*
X501525Y-540728D01*
X498310Y-543943D01*
X497177Y-546678D01*
X496793Y-547279D01*
X496137Y-547752D01*
X495349Y-547932D01*
X494552Y-547790D01*
X493875Y-547349D01*
X493423Y-546678D01*
X492290Y-543943D01*
X489075Y-540728D01*
X484874Y-538988D01*
X480326Y-538988D01*
X476125Y-540728D01*
X472910Y-543943D01*
X471777Y-546678D01*
X471393Y-547279D01*
X470737Y-547752D01*
X469949Y-547932D01*
X469152Y-547790D01*
X468475Y-547349D01*
X468023Y-546678D01*
X466890Y-543943D01*
X463675Y-540728D01*
X459474Y-538988D01*
X454926Y-538988D01*
X450725Y-540728D01*
X447510Y-543943D01*
X446377Y-546678D01*
X445993Y-547279D01*
X445337Y-547752D01*
X444549Y-547932D01*
X443752Y-547790D01*
X443075Y-547349D01*
X442623Y-546678D01*
X441490Y-543943D01*
X438275Y-540728D01*
X434074Y-538988D01*
X429526Y-538988D01*
X425325Y-540728D01*
X422110Y-543943D01*
X420977Y-546678D01*
X420593Y-547279D01*
X419937Y-547752D01*
X419149Y-547932D01*
X418352Y-547790D01*
X417675Y-547349D01*
X417223Y-546678D01*
X416090Y-543943D01*
X412706Y-540560D01*
X412285Y-539945D01*
X412111Y-539155D01*
X412260Y-538360D01*
X412706Y-537686D01*
X424980Y-525412D01*
X425624Y-524978D01*
X426417Y-524817D01*
X457247Y-524817D01*
X459114Y-524043D01*
X463040Y-520118D01*
X463814Y-518250D01*
X463814Y-445912D01*
X463962Y-445150D01*
X464409Y-444475D01*
X611109Y-297775D01*
X611753Y-297341D01*
X612546Y-297180D01*
X615623Y-297180D01*
X616371Y-297323D01*
X617049Y-297764D01*
X617501Y-298434D01*
X617938Y-299491D01*
X621811Y-303363D01*
X622232Y-303978D01*
X622405Y-304768D01*
X622257Y-305563D01*
X621811Y-306237D01*
X617938Y-310109D01*
X615952Y-314905D01*
X615952Y-320095D01*
X617938Y-324891D01*
X621811Y-328763D01*
X622232Y-329378D01*
X622405Y-330168D01*
X622257Y-330963D01*
X621811Y-331637D01*
X617938Y-335509D01*
X615952Y-340305D01*
X615952Y-345495D01*
X617938Y-350291D01*
X621609Y-353962D01*
X621696Y-353998D01*
X622297Y-354382D01*
X622770Y-355038D01*
X622950Y-355826D01*
X622808Y-356623D01*
X622367Y-357300D01*
X622057Y-357509D01*
X618369Y-361197D01*
X616689Y-365252D01*
X641311Y-365252D01*
X639631Y-361197D01*
X635978Y-357543D01*
X635703Y-357368D01*
X635230Y-356712D01*
X635050Y-355924D01*
X635192Y-355127D01*
X635633Y-354450D01*
X636304Y-353998D01*
X636391Y-353962D01*
X640062Y-350291D01*
X642048Y-345495D01*
X642048Y-340305D01*
X640062Y-335509D01*
X636190Y-331637D01*
X635768Y-331022D01*
X635595Y-330232D01*
X635743Y-329437D01*
X636190Y-328763D01*
X640062Y-324891D01*
X642048Y-320095D01*
X642048Y-314905D01*
X640062Y-310109D01*
X636190Y-306237D01*
X635768Y-305622D01*
X635595Y-304832D01*
X635743Y-304037D01*
X636190Y-303363D01*
X640062Y-299491D01*
X642048Y-294695D01*
X642048Y-289505D01*
X640062Y-284709D01*
X636190Y-280837D01*
X635768Y-280222D01*
X635595Y-279432D01*
X635743Y-278637D01*
X636190Y-277963D01*
X640062Y-274091D01*
X642048Y-269295D01*
X642048Y-264105D01*
X640062Y-259309D01*
X636190Y-255437D01*
X635768Y-254822D01*
X635595Y-254032D01*
X635743Y-253237D01*
X636190Y-252563D01*
X640062Y-248691D01*
X640499Y-247634D01*
X640917Y-246998D01*
X641584Y-246541D01*
X642377Y-246380D01*
X644754Y-246380D01*
X645517Y-246529D01*
X646191Y-246975D01*
X654725Y-255509D01*
X655159Y-256153D01*
X655320Y-256946D01*
X655320Y-378054D01*
X655171Y-378817D01*
X654725Y-379491D01*
X544891Y-489325D01*
X544247Y-489759D01*
X543454Y-489920D01*
X527797Y-489920D01*
X527034Y-489771D01*
X526360Y-489325D01*
X524755Y-487719D01*
X521598Y-486412D01*
X507102Y-486412D01*
X503945Y-487719D01*
X501529Y-490135D01*
X500222Y-493292D01*
X500222Y-496708D01*
X501529Y-499865D01*
X503945Y-502281D01*
X507102Y-503588D01*
X521598Y-503588D01*
X524755Y-502281D01*
X526360Y-500675D01*
X527004Y-500241D01*
X527797Y-500080D01*
X547410Y-500080D01*
X549278Y-499307D01*
X664551Y-384033D01*
X665136Y-383625D01*
X665923Y-383439D01*
X666721Y-383575D01*
X667402Y-384010D01*
X667859Y-384677D01*
X668020Y-385470D01*
X668020Y-454254D01*
X667871Y-455017D01*
X667425Y-455691D01*
X528431Y-594685D01*
X527787Y-595119D01*
G37*
%LPC*%
G36*
X621897Y-378931D02*
X625952Y-380611D01*
X625952Y-371348D01*
X616689Y-371348D01*
X618369Y-375403D01*
X621897Y-378931D01*
G37*
G36*
X632048Y-371348D02*
X632048Y-380611D01*
X636103Y-378931D01*
X639631Y-375403D01*
X641311Y-371348D01*
X632048Y-371348D01*
G37*
%LPD*%
D10*
X156878Y-1098860D02*
X173642Y-1098860D01*
X173642Y-1124260D02*
X156878Y-1124260D01*
X156878Y-1149660D02*
X173642Y-1149660D01*
X173642Y-1175060D02*
X156878Y-1175060D01*
D11*
X303100Y-1086000D03*
X388100Y-1086000D03*
X201000Y-1331000D03*
X171000Y-1331000D03*
X-201000Y-1331000D03*
X-171000Y-1331000D03*
D12*
X76200Y-1147760D03*
X76200Y-1122360D03*
X76200Y-1071560D03*
X76200Y-1020760D03*
X76200Y-969960D03*
X76200Y-944560D03*
X76200Y-919160D03*
X76200Y-893760D03*
X76200Y-868360D03*
X-76200Y-868360D03*
X-76200Y-893760D03*
X-76200Y-919160D03*
X-76200Y-944560D03*
X-76200Y-969960D03*
X-76200Y-995360D03*
X-76200Y-1020760D03*
X-76200Y-1046160D03*
X-76200Y-1096960D03*
X-76200Y-1122360D03*
X76200Y-1173160D03*
X-76200Y-1147760D03*
X76200Y-1198560D03*
X-76200Y-1198560D03*
X-76200Y-1173160D03*
X0Y-868360D03*
X25400Y-868360D03*
D11*
X148414Y-1476006D03*
X160537Y-1391875D03*
X-147349Y-1476590D03*
X-159326Y-1392438D03*
D10*
X-232918Y-1064100D02*
X-249682Y-1064100D01*
X-249682Y-987900D02*
X-232918Y-987900D01*
X-232918Y-1089500D02*
X-249682Y-1089500D01*
X-249682Y-1114900D02*
X-232918Y-1114900D01*
X-232918Y-962500D02*
X-249682Y-962500D01*
X269400Y-1179218D02*
X269400Y-1195982D01*
X294800Y-1195982D02*
X294800Y-1179218D01*
X320200Y-1179218D02*
X320200Y-1195982D01*
X345600Y-1195982D02*
X345600Y-1179218D01*
D13*
X-230500Y-1221900D03*
X-230500Y-1196500D03*
X-230500Y-1171100D03*
X-230500Y-1145700D03*
D11*
X381000Y-368300D03*
X381000Y-342900D03*
X381000Y-317500D03*
X381000Y-292100D03*
X381000Y-266700D03*
X381000Y-241300D03*
X381000Y-215900D03*
X381000Y-190500D03*
X629000Y-368300D03*
X629000Y-342900D03*
X629000Y-317500D03*
X629000Y-292100D03*
X629000Y-266700D03*
X629000Y-241300D03*
X629000Y-215900D03*
X629000Y-190500D03*
D10*
X406400Y-550418D02*
X406400Y-567182D01*
X431800Y-567182D02*
X431800Y-550418D01*
X457200Y-550418D02*
X457200Y-567182D01*
X482600Y-567182D02*
X482600Y-550418D01*
X508000Y-550418D02*
X508000Y-567182D01*
X381000Y-567182D02*
X381000Y-550418D01*
X355600Y-550418D02*
X355600Y-567182D01*
X330200Y-567182D02*
X330200Y-550418D01*
X304800Y-550418D02*
X304800Y-567182D01*
X-366482Y-677657D02*
X-371102Y-661542D01*
X-346686Y-654541D02*
X-342066Y-670655D01*
X-390898Y-684658D02*
X-395518Y-668543D01*
X-419934Y-675545D02*
X-415314Y-691659D01*
D14*
X-348440Y-749300D02*
X-337360Y-749300D01*
X-272240Y-749300D02*
X-261160Y-749300D01*
X399376Y-498640D02*
X399376Y-487560D01*
X399376Y-422440D02*
X399376Y-411360D01*
X432610Y-495000D02*
X443690Y-495000D01*
X508810Y-495000D02*
X519890Y-495000D01*
X56340Y-1281900D02*
X45260Y-1281900D01*
X-19860Y-1281900D02*
X-30940Y-1281900D01*
D10*
X-25400Y-1763518D02*
X-25400Y-1780282D01*
X0Y-1780282D02*
X0Y-1763518D01*
X25400Y-1763518D02*
X25400Y-1780282D01*
X-261618Y-872700D02*
X-278382Y-872700D01*
X-278382Y-847300D02*
X-261618Y-847300D01*
X12700Y-1391618D02*
X12700Y-1408382D01*
X-12700Y-1408382D02*
X-12700Y-1391618D01*
X261618Y-847300D02*
X278382Y-847300D01*
X278382Y-872700D02*
X261618Y-872700D01*
D15*
X-36220Y-808500D03*
D16*
X35780Y-808500D03*
D17*
X-180000Y-1245400D03*
X-180000Y-1194600D03*
D18*
X458734Y-517240D02*
X458734Y-448380D01*
X458734Y-517240D02*
X456237Y-519737D01*
X458734Y-448380D02*
X451394Y-448380D01*
X343861Y-448380D01*
X609600Y-292100D02*
X629000Y-292100D01*
X609600Y-292100D02*
X458734Y-442966D01*
X458734Y-448380D01*
X-76200Y-868360D02*
X-100000Y-844560D01*
X-100000Y-750000D01*
X-151500Y-698500D01*
X-198500Y-698500D01*
X-211500Y-698500D01*
X-250000Y-660000D01*
X-250000Y-430000D01*
X-140000Y-320000D01*
X220000Y-320000D01*
X343861Y-443861D01*
X343861Y-448380D01*
X458734Y-448380D01*
X456237Y-519737D02*
X423471Y-519737D01*
X406400Y-536808D01*
X406400Y-558800D01*
X372160Y-300940D02*
X381000Y-292100D01*
X372160Y-300940D02*
X-156160Y-300940D01*
X-269240Y-414020D01*
X-269240Y-469240D01*
X-117848Y-758394D02*
X-117848Y-816640D01*
X-117848Y-758394D02*
X-161563Y-714679D01*
X-219348Y-714679D01*
X-269240Y-664787D01*
X-269240Y-469240D01*
X-117848Y-816640D02*
X-117848Y-852112D01*
X-76200Y-893760D01*
X-128600Y-819800D02*
X-128600Y-765480D01*
X-167640Y-726440D01*
X-226060Y-726440D01*
X-284480Y-668020D01*
X-284480Y-398780D01*
X364232Y-283468D02*
X381000Y-266700D01*
X-169168Y-283468D02*
X-284480Y-398780D01*
X-169168Y-283468D02*
X364232Y-283468D01*
X-128600Y-866760D02*
X-76200Y-919160D01*
X-128600Y-866760D02*
X-128600Y-819800D01*
X388100Y-1086000D02*
X388100Y-1145100D01*
X345600Y-1187600D01*
X381000Y-241300D02*
X374500Y-234800D01*
X-194487Y-234800D01*
X-346686Y-386999D01*
X-346686Y-654541D01*
X-344376Y-662598D01*
X-344376Y-662598D01*
X220726Y-1222144D02*
X325776Y-1222144D01*
X345600Y-1202320D01*
X345600Y-1187600D01*
X-344376Y-662598D02*
X-346686Y-654541D01*
X-344376Y-662598D02*
X-344376Y-662598D01*
X-444500Y-663100D02*
X-444500Y-942620D01*
X-272220Y-1114900D01*
X-241300Y-1114900D01*
X-344376Y-662598D02*
X-370137Y-636837D01*
X-418237Y-636837D01*
X-444500Y-663100D01*
X304800Y-617380D02*
X304800Y-558800D01*
X304800Y-617380D02*
X90258Y-831922D01*
X24940Y-977440D02*
X38100Y-990600D01*
X182520Y-1111400D02*
X210560Y-1139440D01*
X210726Y-1139606D01*
X182520Y-1111400D02*
X169980Y-1098860D01*
X165260Y-1098860D01*
X38100Y-1002291D02*
X38100Y-1000000D01*
X128860Y-1098860D02*
X165260Y-1098860D01*
X128860Y-1098860D02*
X90000Y-1060000D01*
X86640Y-1056640D01*
X66040Y-1056640D01*
X38100Y-1028700D01*
X38100Y-1002291D01*
X38100Y-1000000D02*
X38100Y-990600D01*
X-76200Y-1147760D02*
X-107140Y-1147760D01*
X-140000Y-1114900D01*
X-241300Y-1114900D01*
X25400Y-868360D02*
X33760Y-860000D01*
X40000Y-860000D01*
X60000Y-840000D01*
X80000Y-840000D01*
X82180Y-840000D01*
X90258Y-831922D01*
X3620Y-894819D02*
X3620Y-921461D01*
X25400Y-873039D02*
X25400Y-868360D01*
X24940Y-942781D02*
X24940Y-977440D01*
X3620Y-894819D02*
X25400Y-873039D01*
X3620Y-921461D02*
X24940Y-942781D01*
X210560Y-1211978D02*
X220726Y-1222144D01*
X210560Y-1211978D02*
X210560Y-1139440D01*
X-86162Y-1363221D02*
X-86162Y-1717356D01*
X-7020Y-1249721D02*
X-12941Y-1243800D01*
X-119800Y-1180200D02*
X-120000Y-1180000D01*
X-154300Y-1145700D01*
X-230500Y-1145700D01*
X-35461Y-1312520D02*
X-86162Y-1363221D01*
X-35461Y-1312520D02*
X-15461Y-1312520D01*
X-7020Y-1304079D01*
X-7020Y-1249721D01*
X-12941Y-1243800D02*
X-35916Y-1243800D01*
X-92420Y-1187296D02*
X-95396Y-1184320D01*
X-92420Y-1187296D01*
X-95396Y-1184320D02*
X-115680Y-1184320D01*
X-92420Y-1187296D02*
X-35916Y-1243800D01*
X-95396Y-1184320D02*
X-115680Y-1184320D01*
X-119800Y-1180200D01*
X-81156Y-1198560D02*
X-76200Y-1198560D01*
X-81156Y-1198560D02*
X-92420Y-1187296D01*
X-86162Y-1717356D02*
X-53462Y-1750056D01*
X-19824Y-1750056D01*
X0Y-1769880D02*
X0Y-1771900D01*
X0Y-1769880D02*
X-19824Y-1750056D01*
X431800Y-560820D02*
X431800Y-558800D01*
X431800Y-560820D02*
X399372Y-593248D01*
X396844Y-593248D01*
X90932Y-899160D01*
X90932Y-904428D02*
X76200Y-919160D01*
X90932Y-904428D02*
X90932Y-899160D01*
X-210058Y-975360D02*
X-222918Y-962500D01*
X-241300Y-962500D01*
X-190058Y-995360D02*
X-76200Y-995360D01*
X-190058Y-995360D02*
X-210058Y-975360D01*
X-222918Y-987900D02*
X-210058Y-1000760D01*
X-222918Y-987900D02*
X-241300Y-987900D01*
X-190058Y-1020760D02*
X-76200Y-1020760D01*
X-190058Y-1020760D02*
X-210058Y-1000760D01*
X529940Y-600360D02*
X673100Y-457200D01*
X632358Y-215900D02*
X629000Y-215900D01*
X632358Y-215900D02*
X673100Y-256642D01*
X673100Y-457200D01*
X80694Y-944560D02*
X76200Y-944560D01*
X405058Y-600360D02*
X529940Y-600360D01*
X405058Y-600360D02*
X100932Y-904486D01*
X100932Y-924322D01*
X80694Y-944560D01*
X-308260Y-730131D02*
X-368792Y-669599D01*
X-308260Y-740999D02*
X-285019Y-764240D01*
X-308260Y-740999D02*
X-308260Y-730131D01*
X-285019Y-764240D02*
X-169740Y-764240D01*
X-154584Y-779396D01*
X-154584Y-891576D02*
X-76200Y-969960D01*
X-154584Y-891576D02*
X-154584Y-779396D01*
X-165700Y-749300D02*
X-266700Y-749300D01*
X-165700Y-749300D02*
X-140332Y-774668D01*
X-140332Y-856802D01*
X-140332Y-880428D02*
X-76200Y-944560D01*
X-140332Y-880428D02*
X-140332Y-856802D01*
X287860Y-1070760D02*
X303100Y-1086000D01*
X320200Y-1103100D01*
X320200Y-1187600D01*
X126200Y-1070760D02*
X76200Y-1020760D01*
X126200Y-1070760D02*
X287860Y-1070760D01*
X30960Y-1155700D02*
X30960Y-1308260D01*
X56464Y-1804158D02*
X-25400Y-1804158D01*
X-25400Y-1771900D01*
X56464Y-1804158D02*
X87717Y-1772905D01*
X87717Y-1365017D02*
X30960Y-1308260D01*
X87717Y-1365017D02*
X87717Y-1772905D01*
X-17460Y-1155700D02*
X-76200Y-1096960D01*
X-17460Y-1155700D02*
X30960Y-1155700D01*
X-12700Y-1381618D02*
X-12700Y-1400000D01*
X-12700Y-1381618D02*
X10000Y-1358918D01*
X10000Y-1169500D01*
X-29060Y-1169500D02*
X-76200Y-1122360D01*
X-29060Y-1169500D02*
X10000Y-1169500D01*
X-342900Y-749300D02*
X-348440Y-749300D01*
X-390898Y-706842D01*
X-390898Y-684658D01*
X-393208Y-676601D01*
X76200Y-1147760D02*
X133378Y-1147760D01*
X156878Y-1124260D01*
X165260Y-1124260D01*
X133378Y-1173160D02*
X76200Y-1173160D01*
X133378Y-1173160D02*
X156878Y-1149660D01*
X165260Y-1149660D01*
X181618Y-872700D02*
X270000Y-872700D01*
X96200Y-949960D02*
X76200Y-969960D01*
X96200Y-949960D02*
X141618Y-949960D01*
X181618Y-909960D01*
X181618Y-872700D01*
X171000Y-1331000D02*
X171000Y-1381412D01*
X160537Y-1391875D01*
X-159326Y-1342374D02*
X-171000Y-1331000D01*
X-159326Y-1342374D02*
X-159326Y-1392438D01*
X56340Y-1231900D02*
X112000Y-1231900D01*
X201000Y-1331000D01*
X56340Y-1142220D02*
X76200Y-1122360D01*
X56340Y-1142220D02*
X56340Y-1231900D01*
X56340Y-1281900D02*
X50800Y-1281900D01*
X56340Y-1281900D02*
X56340Y-1231900D01*
X99574Y-873760D02*
X381000Y-592334D01*
X96200Y-873760D02*
X76200Y-893760D01*
X96200Y-873760D02*
X99574Y-873760D01*
X381000Y-592334D02*
X381000Y-558800D01*
X428150Y-495000D02*
X438150Y-495000D01*
X428150Y-495000D02*
X381000Y-542150D01*
X381000Y-558800D01*
X355600Y-567182D02*
X355600Y-596900D01*
X355600Y-567182D02*
X355600Y-558800D01*
X355600Y-550418D01*
X399376Y-506642D01*
X399376Y-502640D01*
X399376Y-493100D01*
X355600Y-596900D02*
X84140Y-868360D01*
X76200Y-868360D01*
X399376Y-416900D02*
X399376Y-411360D01*
X544036Y-266700D01*
X629000Y-266700D01*
X546400Y-495000D02*
X514350Y-495000D01*
X546400Y-495000D02*
X660400Y-381000D01*
X660400Y-254000D01*
X647700Y-241300D01*
X629000Y-241300D01*
X-25400Y-1281900D02*
X-60940Y-1281900D01*
X-72367Y-1293327D01*
X-73043Y-1293327D01*
X-95396Y-1315680D01*
X-180380Y-1315680D02*
X-201000Y-1331000D01*
X-180380Y-1315680D02*
X-95396Y-1315680D01*
X-291844Y-857124D02*
X-283958Y-849238D01*
X-271938Y-849238D02*
X-270000Y-847300D01*
X-271938Y-849238D02*
X-283958Y-849238D01*
X-291844Y-857124D02*
X-291844Y-974776D01*
X-208760Y-1046160D02*
X-76200Y-1046160D01*
X-208760Y-1046160D02*
X-228600Y-1026320D01*
X-266540Y-1026320D01*
X-291844Y-1001016D01*
X-291844Y-974776D01*
D19*
X-230500Y-1221900D02*
X-211200Y-1241200D01*
X-207000Y-1245400D01*
X-180000Y-1245400D01*
X-181900Y-1196500D02*
X-230500Y-1196500D01*
X-181900Y-1196500D02*
X-180000Y-1194600D01*
M02*
