G04 EAGLE Gerber RS-274X export*
G75*
%MOMM*%
%FSLAX34Y34*%
%LPD*%
%INSilkscreen Top*%
%IPPOS*%
%AMOC8*
5,1,8,0,0,1.08239X$1,22.5*%
G01*
G04 Define Apertures*
%ADD10C,0.152400*%
%ADD11C,0.120000*%
%ADD12C,0.304800*%
%ADD13C,0.127000*%
%ADD14C,0.500000*%
G36*
X250473Y-690000D02*
X242560Y-690000D01*
X242560Y-631629D01*
X270026Y-631629D01*
X271241Y-631646D01*
X272421Y-631697D01*
X273566Y-631784D01*
X274675Y-631904D01*
X275750Y-632059D01*
X276789Y-632249D01*
X277793Y-632473D01*
X278762Y-632732D01*
X279696Y-633025D01*
X280595Y-633352D01*
X281459Y-633714D01*
X282288Y-634110D01*
X283081Y-634541D01*
X283840Y-635006D01*
X284563Y-635506D01*
X285251Y-636041D01*
X285901Y-636606D01*
X286508Y-637198D01*
X287074Y-637817D01*
X287598Y-638463D01*
X288080Y-639136D01*
X288520Y-639836D01*
X288918Y-640563D01*
X289275Y-641317D01*
X289589Y-642099D01*
X289861Y-642907D01*
X290092Y-643742D01*
X290281Y-644604D01*
X290427Y-645494D01*
X290532Y-646410D01*
X290595Y-647353D01*
X290616Y-648324D01*
X290601Y-649129D01*
X290557Y-649918D01*
X290483Y-650690D01*
X290379Y-651446D01*
X290246Y-652187D01*
X290083Y-652911D01*
X289890Y-653618D01*
X289668Y-654310D01*
X289416Y-654986D01*
X289135Y-655645D01*
X288824Y-656288D01*
X288484Y-656915D01*
X288113Y-657526D01*
X287714Y-658120D01*
X287284Y-658699D01*
X286825Y-659261D01*
X286340Y-659802D01*
X285833Y-660318D01*
X285303Y-660808D01*
X284750Y-661273D01*
X284175Y-661712D01*
X283577Y-662125D01*
X283053Y-662453D01*
X282957Y-662513D01*
X282315Y-662875D01*
X281650Y-663212D01*
X280962Y-663523D01*
X280252Y-663809D01*
X279520Y-664069D01*
X278765Y-664303D01*
X277987Y-664512D01*
X277187Y-664696D01*
X276365Y-664853D01*
X283419Y-675558D01*
X292936Y-690000D01*
X283822Y-690000D01*
X268659Y-665765D01*
X250473Y-665765D01*
X250473Y-690000D01*
G37*
%LPC*%
G36*
X269571Y-659509D02*
X270342Y-659498D01*
X271090Y-659464D01*
X271817Y-659407D01*
X272521Y-659327D01*
X273203Y-659224D01*
X273863Y-659099D01*
X274501Y-658950D01*
X275117Y-658779D01*
X275710Y-658585D01*
X276282Y-658368D01*
X276831Y-658129D01*
X277358Y-657866D01*
X277863Y-657581D01*
X278345Y-657273D01*
X278806Y-656942D01*
X279244Y-656589D01*
X279658Y-656214D01*
X280045Y-655822D01*
X280406Y-655411D01*
X280739Y-654982D01*
X281046Y-654535D01*
X281327Y-654069D01*
X281580Y-653585D01*
X281807Y-653083D01*
X282008Y-652562D01*
X282181Y-652024D01*
X282328Y-651466D01*
X282448Y-650891D01*
X282542Y-650297D01*
X282608Y-649685D01*
X282648Y-649055D01*
X282662Y-648407D01*
X282648Y-647779D01*
X282608Y-647171D01*
X282540Y-646581D01*
X282446Y-646010D01*
X282324Y-645459D01*
X282175Y-644926D01*
X282000Y-644412D01*
X281797Y-643917D01*
X281567Y-643441D01*
X281311Y-642984D01*
X281027Y-642546D01*
X280716Y-642127D01*
X280378Y-641726D01*
X280013Y-641345D01*
X279621Y-640983D01*
X279203Y-640639D01*
X278758Y-640315D01*
X278290Y-640013D01*
X277798Y-639731D01*
X277283Y-639470D01*
X276743Y-639230D01*
X276180Y-639011D01*
X275593Y-638812D01*
X274982Y-638635D01*
X274348Y-638478D01*
X273689Y-638343D01*
X273007Y-638228D01*
X272301Y-638134D01*
X271571Y-638061D01*
X270818Y-638009D01*
X270040Y-637977D01*
X269239Y-637967D01*
X250473Y-637967D01*
X250473Y-659509D01*
X269571Y-659509D01*
G37*
%LPD*%
G36*
X371173Y-690829D02*
X370542Y-690821D01*
X369926Y-690800D01*
X369322Y-690764D01*
X368732Y-690713D01*
X368156Y-690649D01*
X367593Y-690569D01*
X367043Y-690476D01*
X366507Y-690368D01*
X365984Y-690245D01*
X365475Y-690108D01*
X364979Y-689957D01*
X364496Y-689792D01*
X364027Y-689612D01*
X363572Y-689417D01*
X363129Y-689208D01*
X362701Y-688985D01*
X362284Y-688746D01*
X361876Y-688489D01*
X361479Y-688214D01*
X361091Y-687922D01*
X360714Y-687612D01*
X360346Y-687285D01*
X359988Y-686940D01*
X359640Y-686577D01*
X359302Y-686197D01*
X358974Y-685799D01*
X358655Y-685383D01*
X358347Y-684950D01*
X358048Y-684499D01*
X357759Y-684030D01*
X357481Y-683544D01*
X357211Y-683040D01*
X357129Y-683040D01*
X357118Y-683766D01*
X357087Y-684661D01*
X356963Y-686955D01*
X356818Y-689032D01*
X356761Y-689654D01*
X356714Y-690000D01*
X349506Y-690000D01*
X349564Y-689366D01*
X349615Y-688584D01*
X349657Y-687652D01*
X349692Y-686572D01*
X349739Y-683965D01*
X349755Y-680762D01*
X349755Y-628521D01*
X357211Y-628521D01*
X357211Y-646045D01*
X357201Y-647451D01*
X357170Y-648976D01*
X357118Y-650620D01*
X357046Y-652384D01*
X357211Y-652384D01*
X357476Y-651855D01*
X357750Y-651345D01*
X358036Y-650854D01*
X358331Y-650382D01*
X358638Y-649930D01*
X358954Y-649496D01*
X359282Y-649082D01*
X359619Y-648686D01*
X359968Y-648310D01*
X360327Y-647953D01*
X360696Y-647615D01*
X361076Y-647296D01*
X361466Y-646996D01*
X361867Y-646715D01*
X362279Y-646454D01*
X362701Y-646211D01*
X363134Y-645985D01*
X363581Y-645774D01*
X364040Y-645577D01*
X364512Y-645395D01*
X364997Y-645228D01*
X365494Y-645075D01*
X366004Y-644937D01*
X366528Y-644813D01*
X367063Y-644704D01*
X367612Y-644609D01*
X368174Y-644529D01*
X368748Y-644463D01*
X369335Y-644412D01*
X369935Y-644376D01*
X370547Y-644354D01*
X371173Y-644347D01*
X372217Y-644369D01*
X373226Y-644436D01*
X374199Y-644548D01*
X375138Y-644704D01*
X376042Y-644905D01*
X376910Y-645151D01*
X377743Y-645441D01*
X378542Y-645776D01*
X379305Y-646156D01*
X380033Y-646580D01*
X380725Y-647049D01*
X381383Y-647563D01*
X382006Y-648121D01*
X382593Y-648724D01*
X383146Y-649372D01*
X383663Y-650064D01*
X384147Y-650801D01*
X384600Y-651585D01*
X385022Y-652415D01*
X385412Y-653290D01*
X385771Y-654211D01*
X386099Y-655179D01*
X386396Y-656192D01*
X386661Y-657252D01*
X386896Y-658357D01*
X387099Y-659508D01*
X387270Y-660705D01*
X387411Y-661948D01*
X387520Y-663237D01*
X387598Y-664573D01*
X387645Y-665954D01*
X387661Y-667381D01*
X387645Y-668823D01*
X387596Y-670220D01*
X387516Y-671571D01*
X387403Y-672876D01*
X387258Y-674136D01*
X387081Y-675349D01*
X386872Y-676517D01*
X386630Y-677639D01*
X386357Y-678715D01*
X386051Y-679746D01*
X385712Y-680730D01*
X385342Y-681669D01*
X384940Y-682562D01*
X384505Y-683409D01*
X384038Y-684211D01*
X383539Y-684967D01*
X383007Y-685676D01*
X382444Y-686340D01*
X381848Y-686959D01*
X381220Y-687531D01*
X380560Y-688058D01*
X379868Y-688539D01*
X379143Y-688974D01*
X378386Y-689363D01*
X377597Y-689707D01*
X376776Y-690004D01*
X375923Y-690256D01*
X375037Y-690462D01*
X374119Y-690622D01*
X373169Y-690737D01*
X372187Y-690806D01*
X371173Y-690829D01*
G37*
%LPC*%
G36*
X369184Y-685319D02*
X369876Y-685302D01*
X370544Y-685254D01*
X371187Y-685172D01*
X371806Y-685058D01*
X372400Y-684912D01*
X372970Y-684733D01*
X373515Y-684522D01*
X374036Y-684278D01*
X374533Y-684001D01*
X375005Y-683692D01*
X375453Y-683351D01*
X375876Y-682977D01*
X376275Y-682570D01*
X376649Y-682131D01*
X376999Y-681659D01*
X377325Y-681155D01*
X377628Y-680614D01*
X377912Y-680033D01*
X378176Y-679411D01*
X378421Y-678749D01*
X378646Y-678045D01*
X378852Y-677301D01*
X379038Y-676517D01*
X379204Y-675692D01*
X379351Y-674826D01*
X379478Y-673920D01*
X379586Y-672973D01*
X379674Y-671985D01*
X379743Y-670957D01*
X379792Y-669889D01*
X379821Y-668779D01*
X379831Y-667629D01*
X379821Y-666474D01*
X379792Y-665362D01*
X379744Y-664290D01*
X379676Y-663261D01*
X379588Y-662273D01*
X379481Y-661328D01*
X379355Y-660423D01*
X379210Y-659561D01*
X379044Y-658740D01*
X378860Y-657962D01*
X378656Y-657224D01*
X378433Y-656529D01*
X378190Y-655875D01*
X377928Y-655264D01*
X377646Y-654694D01*
X377345Y-654165D01*
X377022Y-653674D01*
X376675Y-653214D01*
X376304Y-652785D01*
X375908Y-652389D01*
X375488Y-652024D01*
X375044Y-651691D01*
X374576Y-651390D01*
X374083Y-651120D01*
X373566Y-650882D01*
X373025Y-650676D01*
X372459Y-650502D01*
X371869Y-650359D01*
X371255Y-650248D01*
X370617Y-650169D01*
X369954Y-650121D01*
X369267Y-650105D01*
X368493Y-650122D01*
X367746Y-650173D01*
X367026Y-650257D01*
X366332Y-650375D01*
X365665Y-650526D01*
X365025Y-650711D01*
X364411Y-650930D01*
X363824Y-651182D01*
X363264Y-651468D01*
X362731Y-651788D01*
X362224Y-652142D01*
X361744Y-652529D01*
X361291Y-652950D01*
X360864Y-653404D01*
X360464Y-653892D01*
X360091Y-654414D01*
X359742Y-654972D01*
X359416Y-655570D01*
X359112Y-656207D01*
X358831Y-656884D01*
X358572Y-657600D01*
X358336Y-658356D01*
X358122Y-659151D01*
X357931Y-659986D01*
X357763Y-660860D01*
X357616Y-661774D01*
X357493Y-662727D01*
X357391Y-663719D01*
X357313Y-664752D01*
X357256Y-665823D01*
X357223Y-666934D01*
X357211Y-668085D01*
X357222Y-669170D01*
X357255Y-670219D01*
X357311Y-671231D01*
X357388Y-672208D01*
X357487Y-673149D01*
X357608Y-674053D01*
X357751Y-674922D01*
X357916Y-675754D01*
X358103Y-676550D01*
X358312Y-677311D01*
X358543Y-678035D01*
X358796Y-678723D01*
X359071Y-679375D01*
X359368Y-679990D01*
X359687Y-680570D01*
X360029Y-681114D01*
X360394Y-681623D01*
X360788Y-682099D01*
X361209Y-682543D01*
X361657Y-682953D01*
X362133Y-683331D01*
X362637Y-683676D01*
X363168Y-683988D01*
X363726Y-684267D01*
X364312Y-684514D01*
X364925Y-684727D01*
X365566Y-684908D01*
X366235Y-685056D01*
X366931Y-685171D01*
X367654Y-685253D01*
X368406Y-685302D01*
X369184Y-685319D01*
G37*
%LPD*%
G36*
X320257Y-690829D02*
X319048Y-690805D01*
X317877Y-690735D01*
X316744Y-690618D01*
X315648Y-690454D01*
X314589Y-690244D01*
X313569Y-689987D01*
X312585Y-689683D01*
X311640Y-689332D01*
X310731Y-688934D01*
X309861Y-688490D01*
X309028Y-687999D01*
X308232Y-687461D01*
X307474Y-686877D01*
X306754Y-686245D01*
X306071Y-685567D01*
X305426Y-684842D01*
X304819Y-684073D01*
X304251Y-683263D01*
X303722Y-682410D01*
X303232Y-681516D01*
X302782Y-680581D01*
X302371Y-679604D01*
X301999Y-678585D01*
X301666Y-677525D01*
X301372Y-676423D01*
X301118Y-675280D01*
X300902Y-674095D01*
X300726Y-672868D01*
X300589Y-671600D01*
X300491Y-670291D01*
X300432Y-668939D01*
X300413Y-667546D01*
X300432Y-666119D01*
X300491Y-664737D01*
X300589Y-663400D01*
X300727Y-662109D01*
X300903Y-660863D01*
X301119Y-659662D01*
X301374Y-658507D01*
X301669Y-657397D01*
X302002Y-656332D01*
X302375Y-655312D01*
X302787Y-654338D01*
X303238Y-653409D01*
X303729Y-652526D01*
X304259Y-651687D01*
X304828Y-650894D01*
X305436Y-650147D01*
X306083Y-649444D01*
X306770Y-648787D01*
X307496Y-648176D01*
X308261Y-647609D01*
X309066Y-647088D01*
X309910Y-646612D01*
X310793Y-646182D01*
X311715Y-645797D01*
X312676Y-645457D01*
X313677Y-645162D01*
X314717Y-644913D01*
X315796Y-644709D01*
X316914Y-644551D01*
X318072Y-644437D01*
X319269Y-644369D01*
X320505Y-644347D01*
X321768Y-644369D01*
X322989Y-644435D01*
X324167Y-644546D01*
X325303Y-644700D01*
X326396Y-644899D01*
X327448Y-645142D01*
X328456Y-645429D01*
X329422Y-645761D01*
X330346Y-646136D01*
X331228Y-646556D01*
X332067Y-647020D01*
X332864Y-647528D01*
X333618Y-648080D01*
X334330Y-648676D01*
X334999Y-649317D01*
X335626Y-650002D01*
X336213Y-650733D01*
X336762Y-651513D01*
X337273Y-652341D01*
X337747Y-653219D01*
X338182Y-654145D01*
X338580Y-655120D01*
X338940Y-656143D01*
X339262Y-657215D01*
X339546Y-658336D01*
X339792Y-659506D01*
X340000Y-660724D01*
X340170Y-661991D01*
X340303Y-663307D01*
X340398Y-664671D01*
X340454Y-666084D01*
X340473Y-667546D01*
X340453Y-668993D01*
X340392Y-670394D01*
X340291Y-671747D01*
X340150Y-673054D01*
X339968Y-674313D01*
X339745Y-675526D01*
X339482Y-676691D01*
X339179Y-677810D01*
X338835Y-678882D01*
X338450Y-679907D01*
X338026Y-680885D01*
X337560Y-681815D01*
X337055Y-682700D01*
X336509Y-683537D01*
X335922Y-684327D01*
X335295Y-685070D01*
X334629Y-685767D01*
X333927Y-686420D01*
X333188Y-687027D01*
X332413Y-687589D01*
X331601Y-688107D01*
X330753Y-688579D01*
X329868Y-689007D01*
X328946Y-689389D01*
X327988Y-689726D01*
X326993Y-690019D01*
X325962Y-690266D01*
X324894Y-690469D01*
X323789Y-690626D01*
X322648Y-690739D01*
X321471Y-690806D01*
X320257Y-690829D01*
G37*
%LPC*%
G36*
X320174Y-685319D02*
X320998Y-685302D01*
X321792Y-685251D01*
X322556Y-685167D01*
X323290Y-685049D01*
X323994Y-684898D01*
X324668Y-684713D01*
X325313Y-684494D01*
X325927Y-684242D01*
X326511Y-683955D01*
X327066Y-683636D01*
X327591Y-683282D01*
X328085Y-682895D01*
X328550Y-682474D01*
X328985Y-682020D01*
X329389Y-681532D01*
X329764Y-681010D01*
X330113Y-680453D01*
X330439Y-679857D01*
X330743Y-679224D01*
X331024Y-678553D01*
X331283Y-677844D01*
X331519Y-677097D01*
X331732Y-676313D01*
X331924Y-675490D01*
X332092Y-674630D01*
X332239Y-673731D01*
X332362Y-672795D01*
X332464Y-671821D01*
X332542Y-670809D01*
X332598Y-669759D01*
X332632Y-668672D01*
X332643Y-667546D01*
X332633Y-666406D01*
X332600Y-665306D01*
X332547Y-664245D01*
X332471Y-663224D01*
X332374Y-662242D01*
X332256Y-661300D01*
X332116Y-660398D01*
X331955Y-659535D01*
X331772Y-658712D01*
X331567Y-657929D01*
X331341Y-657185D01*
X331094Y-656481D01*
X330825Y-655817D01*
X330534Y-655192D01*
X330222Y-654607D01*
X329889Y-654062D01*
X329530Y-653552D01*
X329141Y-653076D01*
X328724Y-652633D01*
X328277Y-652222D01*
X327801Y-651844D01*
X327295Y-651499D01*
X326760Y-651187D01*
X326196Y-650908D01*
X325603Y-650662D01*
X324980Y-650448D01*
X324328Y-650267D01*
X323647Y-650119D01*
X322937Y-650005D01*
X322197Y-649922D01*
X321428Y-649873D01*
X320629Y-649857D01*
X319825Y-649873D01*
X319050Y-649924D01*
X318302Y-650007D01*
X317583Y-650125D01*
X316892Y-650275D01*
X316230Y-650460D01*
X315596Y-650677D01*
X314990Y-650929D01*
X314413Y-651213D01*
X313863Y-651532D01*
X313343Y-651883D01*
X312850Y-652269D01*
X312386Y-652687D01*
X311950Y-653139D01*
X311542Y-653625D01*
X311163Y-654144D01*
X310810Y-654699D01*
X310479Y-655292D01*
X310171Y-655922D01*
X309885Y-656590D01*
X309623Y-657296D01*
X309383Y-658039D01*
X309167Y-658820D01*
X308973Y-659639D01*
X308802Y-660495D01*
X308653Y-661389D01*
X308528Y-662321D01*
X308425Y-663291D01*
X308345Y-664298D01*
X308288Y-665343D01*
X308254Y-666426D01*
X308243Y-667546D01*
X308254Y-668637D01*
X308288Y-669694D01*
X308344Y-670716D01*
X308423Y-671703D01*
X308524Y-672656D01*
X308647Y-673575D01*
X308794Y-674459D01*
X308962Y-675309D01*
X309154Y-676124D01*
X309367Y-676905D01*
X309603Y-677651D01*
X309862Y-678363D01*
X310143Y-679040D01*
X310447Y-679683D01*
X310773Y-680291D01*
X311122Y-680865D01*
X311495Y-681405D01*
X311893Y-681909D01*
X312317Y-682379D01*
X312767Y-682814D01*
X313243Y-683214D01*
X313744Y-683579D01*
X314272Y-683910D01*
X314824Y-684205D01*
X315403Y-684466D01*
X316007Y-684692D01*
X316637Y-684884D01*
X317293Y-685040D01*
X317975Y-685162D01*
X318682Y-685249D01*
X319415Y-685301D01*
X320174Y-685319D01*
G37*
%LPD*%
G36*
X414632Y-690829D02*
X413423Y-690805D01*
X412252Y-690735D01*
X411119Y-690618D01*
X410023Y-690454D01*
X408964Y-690244D01*
X407944Y-689987D01*
X406960Y-689683D01*
X406015Y-689332D01*
X405106Y-688934D01*
X404236Y-688490D01*
X403403Y-687999D01*
X402607Y-687461D01*
X401849Y-686877D01*
X401129Y-686245D01*
X400446Y-685567D01*
X399801Y-684842D01*
X399194Y-684073D01*
X398626Y-683263D01*
X398097Y-682410D01*
X397607Y-681516D01*
X397157Y-680581D01*
X396746Y-679604D01*
X396374Y-678585D01*
X396041Y-677525D01*
X395747Y-676423D01*
X395493Y-675280D01*
X395277Y-674095D01*
X395101Y-672868D01*
X394964Y-671600D01*
X394866Y-670291D01*
X394807Y-668939D01*
X394788Y-667546D01*
X394807Y-666119D01*
X394866Y-664737D01*
X394964Y-663400D01*
X395102Y-662109D01*
X395278Y-660863D01*
X395494Y-659662D01*
X395749Y-658507D01*
X396044Y-657397D01*
X396377Y-656332D01*
X396750Y-655312D01*
X397162Y-654338D01*
X397613Y-653409D01*
X398104Y-652526D01*
X398634Y-651687D01*
X399203Y-650894D01*
X399811Y-650147D01*
X400458Y-649444D01*
X401145Y-648787D01*
X401871Y-648176D01*
X402636Y-647609D01*
X403441Y-647088D01*
X404285Y-646612D01*
X405168Y-646182D01*
X406090Y-645797D01*
X407051Y-645457D01*
X408052Y-645162D01*
X409092Y-644913D01*
X410171Y-644709D01*
X411289Y-644551D01*
X412447Y-644437D01*
X413644Y-644369D01*
X414880Y-644347D01*
X416143Y-644369D01*
X417364Y-644435D01*
X418542Y-644546D01*
X419678Y-644700D01*
X420771Y-644899D01*
X421823Y-645142D01*
X422831Y-645429D01*
X423797Y-645761D01*
X424721Y-646136D01*
X425603Y-646556D01*
X426442Y-647020D01*
X427239Y-647528D01*
X427993Y-648080D01*
X428705Y-648676D01*
X429374Y-649317D01*
X430001Y-650002D01*
X430588Y-650733D01*
X431137Y-651513D01*
X431648Y-652341D01*
X432122Y-653219D01*
X432557Y-654145D01*
X432955Y-655120D01*
X433315Y-656143D01*
X433637Y-657215D01*
X433921Y-658336D01*
X434167Y-659506D01*
X434375Y-660724D01*
X434545Y-661991D01*
X434678Y-663307D01*
X434773Y-664671D01*
X434829Y-666084D01*
X434848Y-667546D01*
X434828Y-668993D01*
X434767Y-670394D01*
X434666Y-671747D01*
X434525Y-673054D01*
X434343Y-674313D01*
X434120Y-675526D01*
X433857Y-676691D01*
X433554Y-677810D01*
X433210Y-678882D01*
X432825Y-679907D01*
X432401Y-680885D01*
X431935Y-681815D01*
X431430Y-682700D01*
X430884Y-683537D01*
X430297Y-684327D01*
X429670Y-685070D01*
X429004Y-685767D01*
X428302Y-686420D01*
X427563Y-687027D01*
X426788Y-687589D01*
X425976Y-688107D01*
X425128Y-688579D01*
X424243Y-689007D01*
X423321Y-689389D01*
X422363Y-689726D01*
X421368Y-690019D01*
X420337Y-690266D01*
X419269Y-690469D01*
X418164Y-690626D01*
X417023Y-690739D01*
X415846Y-690806D01*
X414632Y-690829D01*
G37*
%LPC*%
G36*
X414549Y-685319D02*
X415373Y-685302D01*
X416167Y-685251D01*
X416931Y-685167D01*
X417665Y-685049D01*
X418369Y-684898D01*
X419043Y-684713D01*
X419688Y-684494D01*
X420302Y-684242D01*
X420886Y-683955D01*
X421441Y-683636D01*
X421966Y-683282D01*
X422460Y-682895D01*
X422925Y-682474D01*
X423360Y-682020D01*
X423764Y-681532D01*
X424139Y-681010D01*
X424488Y-680453D01*
X424814Y-679857D01*
X425118Y-679224D01*
X425399Y-678553D01*
X425658Y-677844D01*
X425894Y-677097D01*
X426107Y-676313D01*
X426299Y-675490D01*
X426467Y-674630D01*
X426614Y-673731D01*
X426737Y-672795D01*
X426839Y-671821D01*
X426917Y-670809D01*
X426973Y-669759D01*
X427007Y-668672D01*
X427018Y-667546D01*
X427008Y-666406D01*
X426975Y-665306D01*
X426922Y-664245D01*
X426846Y-663224D01*
X426749Y-662242D01*
X426631Y-661300D01*
X426491Y-660398D01*
X426330Y-659535D01*
X426147Y-658712D01*
X425942Y-657929D01*
X425716Y-657185D01*
X425469Y-656481D01*
X425200Y-655817D01*
X424909Y-655192D01*
X424597Y-654607D01*
X424264Y-654062D01*
X423905Y-653552D01*
X423516Y-653076D01*
X423099Y-652633D01*
X422652Y-652222D01*
X422176Y-651844D01*
X421670Y-651499D01*
X421135Y-651187D01*
X420571Y-650908D01*
X419978Y-650662D01*
X419355Y-650448D01*
X418703Y-650267D01*
X418022Y-650119D01*
X417312Y-650005D01*
X416572Y-649922D01*
X415803Y-649873D01*
X415004Y-649857D01*
X414200Y-649873D01*
X413425Y-649924D01*
X412677Y-650007D01*
X411958Y-650125D01*
X411267Y-650275D01*
X410605Y-650460D01*
X409971Y-650677D01*
X409365Y-650929D01*
X408788Y-651213D01*
X408238Y-651532D01*
X407718Y-651883D01*
X407225Y-652269D01*
X406761Y-652687D01*
X406325Y-653139D01*
X405917Y-653625D01*
X405538Y-654144D01*
X405185Y-654699D01*
X404854Y-655292D01*
X404546Y-655922D01*
X404260Y-656590D01*
X403998Y-657296D01*
X403758Y-658039D01*
X403542Y-658820D01*
X403348Y-659639D01*
X403177Y-660495D01*
X403028Y-661389D01*
X402903Y-662321D01*
X402800Y-663291D01*
X402720Y-664298D01*
X402663Y-665343D01*
X402629Y-666426D01*
X402618Y-667546D01*
X402629Y-668637D01*
X402663Y-669694D01*
X402719Y-670716D01*
X402798Y-671703D01*
X402899Y-672656D01*
X403022Y-673575D01*
X403169Y-674459D01*
X403337Y-675309D01*
X403529Y-676124D01*
X403742Y-676905D01*
X403978Y-677651D01*
X404237Y-678363D01*
X404518Y-679040D01*
X404822Y-679683D01*
X405148Y-680291D01*
X405497Y-680865D01*
X405870Y-681405D01*
X406268Y-681909D01*
X406692Y-682379D01*
X407142Y-682814D01*
X407618Y-683214D01*
X408119Y-683579D01*
X408647Y-683910D01*
X409199Y-684205D01*
X409778Y-684466D01*
X410382Y-684692D01*
X411012Y-684884D01*
X411668Y-685040D01*
X412350Y-685162D01*
X413057Y-685249D01*
X413790Y-685301D01*
X414549Y-685319D01*
G37*
%LPD*%
G36*
X503759Y-690829D02*
X502601Y-690805D01*
X501478Y-690736D01*
X500390Y-690620D01*
X499336Y-690457D01*
X498317Y-690248D01*
X497333Y-689993D01*
X496383Y-689691D01*
X495469Y-689342D01*
X494589Y-688948D01*
X493744Y-688506D01*
X492934Y-688019D01*
X492158Y-687485D01*
X491418Y-686904D01*
X490712Y-686277D01*
X490041Y-685604D01*
X489405Y-684884D01*
X488805Y-684119D01*
X488245Y-683312D01*
X487722Y-682463D01*
X487239Y-681571D01*
X486794Y-680636D01*
X486388Y-679659D01*
X486021Y-678639D01*
X485692Y-677577D01*
X485402Y-676472D01*
X485150Y-675325D01*
X484938Y-674135D01*
X484764Y-672902D01*
X484628Y-671627D01*
X484532Y-670309D01*
X484474Y-668949D01*
X484454Y-667546D01*
X484474Y-666154D01*
X484532Y-664803D01*
X484629Y-663494D01*
X484765Y-662227D01*
X484940Y-661002D01*
X485153Y-659818D01*
X485406Y-658677D01*
X485697Y-657578D01*
X486027Y-656520D01*
X486396Y-655505D01*
X486804Y-654531D01*
X487251Y-653599D01*
X487736Y-652710D01*
X488260Y-651862D01*
X488824Y-651056D01*
X489426Y-650292D01*
X490064Y-649572D01*
X490736Y-648898D01*
X491441Y-648271D01*
X492180Y-647691D01*
X492953Y-647157D01*
X493760Y-646669D01*
X494600Y-646228D01*
X495474Y-645833D01*
X496381Y-645485D01*
X497323Y-645183D01*
X498297Y-644927D01*
X499306Y-644718D01*
X500348Y-644556D01*
X501424Y-644440D01*
X502533Y-644370D01*
X503677Y-644347D01*
X504527Y-644361D01*
X505359Y-644402D01*
X506173Y-644472D01*
X506969Y-644569D01*
X507746Y-644695D01*
X508505Y-644848D01*
X509246Y-645029D01*
X509968Y-645237D01*
X510673Y-645474D01*
X511359Y-645739D01*
X512026Y-646031D01*
X512675Y-646351D01*
X513307Y-646699D01*
X513919Y-647075D01*
X514514Y-647478D01*
X515090Y-647910D01*
X515644Y-648365D01*
X516171Y-648842D01*
X516672Y-649340D01*
X517147Y-649859D01*
X517595Y-650399D01*
X518017Y-650960D01*
X518413Y-651542D01*
X518782Y-652146D01*
X519125Y-652770D01*
X519441Y-653415D01*
X519732Y-654081D01*
X519995Y-654768D01*
X520233Y-655477D01*
X520443Y-656206D01*
X520628Y-656956D01*
X520786Y-657728D01*
X513122Y-658308D01*
X513043Y-657848D01*
X512949Y-657400D01*
X512842Y-656964D01*
X512721Y-656539D01*
X512586Y-656127D01*
X512437Y-655727D01*
X512274Y-655339D01*
X512097Y-654963D01*
X511906Y-654598D01*
X511701Y-654246D01*
X511483Y-653906D01*
X511250Y-653577D01*
X511004Y-653261D01*
X510743Y-652957D01*
X510469Y-652664D01*
X510181Y-652384D01*
X509878Y-652118D01*
X509559Y-651869D01*
X509225Y-651638D01*
X508876Y-651423D01*
X508511Y-651226D01*
X508130Y-651046D01*
X507734Y-650883D01*
X507322Y-650737D01*
X506895Y-650608D01*
X506452Y-650497D01*
X505994Y-650403D01*
X505520Y-650325D01*
X505031Y-650265D01*
X504526Y-650222D01*
X504005Y-650197D01*
X503469Y-650188D01*
X502742Y-650203D01*
X502040Y-650250D01*
X501363Y-650326D01*
X500712Y-650434D01*
X500086Y-650572D01*
X499487Y-650742D01*
X498912Y-650941D01*
X498364Y-651172D01*
X497840Y-651433D01*
X497343Y-651725D01*
X496871Y-652048D01*
X496424Y-652402D01*
X496003Y-652786D01*
X495608Y-653201D01*
X495238Y-653647D01*
X494894Y-654124D01*
X494573Y-654637D01*
X494273Y-655192D01*
X493993Y-655789D01*
X493734Y-656428D01*
X493496Y-657109D01*
X493278Y-657833D01*
X493082Y-658598D01*
X492905Y-659406D01*
X492750Y-660255D01*
X492615Y-661147D01*
X492502Y-662081D01*
X492408Y-663057D01*
X492336Y-664074D01*
X492284Y-665134D01*
X492253Y-666236D01*
X492243Y-667381D01*
X492254Y-668481D01*
X492287Y-669545D01*
X492342Y-670573D01*
X492419Y-671565D01*
X492518Y-672520D01*
X492639Y-673439D01*
X492782Y-674322D01*
X492947Y-675169D01*
X493134Y-675979D01*
X493343Y-676754D01*
X493574Y-677491D01*
X493827Y-678193D01*
X494102Y-678859D01*
X494399Y-679488D01*
X494719Y-680081D01*
X495060Y-680637D01*
X495423Y-681159D01*
X495809Y-681647D01*
X496217Y-682102D01*
X496647Y-682522D01*
X497099Y-682909D01*
X497574Y-683263D01*
X498072Y-683583D01*
X498591Y-683869D01*
X499133Y-684121D01*
X499698Y-684340D01*
X500284Y-684525D01*
X500893Y-684677D01*
X501524Y-684794D01*
X502178Y-684879D01*
X502854Y-684929D01*
X503552Y-684946D01*
X504044Y-684937D01*
X504526Y-684912D01*
X504998Y-684870D01*
X505459Y-684811D01*
X505911Y-684735D01*
X506352Y-684643D01*
X506782Y-684534D01*
X507203Y-684407D01*
X507614Y-684264D01*
X508014Y-684104D01*
X508404Y-683928D01*
X508784Y-683734D01*
X509154Y-683524D01*
X509513Y-683297D01*
X509862Y-683052D01*
X510201Y-682792D01*
X510527Y-682513D01*
X510837Y-682217D01*
X511131Y-681902D01*
X511409Y-681570D01*
X511671Y-681219D01*
X511917Y-680850D01*
X512147Y-680463D01*
X512361Y-680057D01*
X512559Y-679634D01*
X512741Y-679193D01*
X512906Y-678733D01*
X513056Y-678255D01*
X513190Y-677759D01*
X513308Y-677246D01*
X513409Y-676713D01*
X513495Y-676163D01*
X521035Y-676660D01*
X520911Y-677458D01*
X520758Y-678235D01*
X520576Y-678992D01*
X520364Y-679729D01*
X520123Y-680445D01*
X519852Y-681140D01*
X519552Y-681816D01*
X519222Y-682471D01*
X518863Y-683105D01*
X518475Y-683719D01*
X518057Y-684313D01*
X517609Y-684886D01*
X517132Y-685439D01*
X516626Y-685972D01*
X516090Y-686484D01*
X515525Y-686976D01*
X514935Y-687442D01*
X514326Y-687879D01*
X513698Y-688285D01*
X513050Y-688661D01*
X512382Y-689008D01*
X511695Y-689324D01*
X510989Y-689610D01*
X510264Y-689865D01*
X509519Y-690091D01*
X508754Y-690287D01*
X507970Y-690452D01*
X507167Y-690588D01*
X506344Y-690693D01*
X505502Y-690768D01*
X504640Y-690814D01*
X503759Y-690829D01*
G37*
G36*
X453824Y-690663D02*
X453273Y-690653D01*
X452740Y-690623D01*
X452224Y-690574D01*
X451726Y-690504D01*
X451246Y-690415D01*
X450783Y-690306D01*
X450337Y-690177D01*
X449909Y-690028D01*
X449498Y-689860D01*
X449105Y-689672D01*
X448729Y-689464D01*
X448371Y-689236D01*
X448030Y-688988D01*
X447707Y-688720D01*
X447401Y-688433D01*
X447112Y-688125D01*
X446841Y-687798D01*
X446588Y-687451D01*
X446352Y-687085D01*
X446134Y-686698D01*
X445933Y-686292D01*
X445749Y-685866D01*
X445583Y-685419D01*
X445434Y-684954D01*
X445303Y-684468D01*
X445190Y-683962D01*
X445094Y-683437D01*
X445015Y-682892D01*
X444954Y-682327D01*
X444910Y-681742D01*
X444884Y-681138D01*
X444875Y-680513D01*
X444875Y-650602D01*
X439697Y-650602D01*
X439697Y-645175D01*
X445165Y-645175D01*
X447361Y-635150D01*
X452332Y-635150D01*
X452332Y-645175D01*
X460618Y-645175D01*
X460618Y-650602D01*
X452332Y-650602D01*
X452332Y-678897D01*
X452349Y-679675D01*
X452398Y-680393D01*
X452481Y-681050D01*
X452596Y-681647D01*
X452745Y-682184D01*
X452926Y-682661D01*
X453141Y-683077D01*
X453389Y-683434D01*
X453677Y-683740D01*
X454014Y-684005D01*
X454399Y-684229D01*
X454833Y-684412D01*
X455316Y-684555D01*
X455847Y-684657D01*
X456427Y-684718D01*
X457055Y-684739D01*
X457448Y-684730D01*
X457883Y-684702D01*
X458360Y-684657D01*
X458878Y-684594D01*
X460038Y-684412D01*
X461363Y-684159D01*
X461363Y-689669D01*
X460439Y-689902D01*
X459510Y-690104D01*
X458575Y-690274D01*
X457635Y-690414D01*
X456690Y-690523D01*
X455740Y-690601D01*
X454784Y-690647D01*
X453824Y-690663D01*
G37*
G36*
X475108Y-690000D02*
X467651Y-690000D01*
X467651Y-645175D01*
X475108Y-645175D01*
X475108Y-690000D01*
G37*
G36*
X475108Y-635647D02*
X467651Y-635647D01*
X467651Y-628521D01*
X475108Y-628521D01*
X475108Y-635647D01*
G37*
G36*
X266256Y-760000D02*
X242560Y-760000D01*
X242560Y-701629D01*
X263771Y-701629D01*
X265035Y-701642D01*
X266259Y-701684D01*
X267443Y-701753D01*
X268587Y-701850D01*
X269690Y-701974D01*
X270754Y-702127D01*
X271777Y-702307D01*
X272761Y-702514D01*
X273704Y-702749D01*
X274607Y-703012D01*
X275470Y-703303D01*
X276292Y-703621D01*
X277075Y-703967D01*
X277817Y-704340D01*
X278520Y-704742D01*
X279182Y-705171D01*
X279804Y-705627D01*
X280386Y-706111D01*
X280928Y-706623D01*
X281429Y-707163D01*
X281891Y-707730D01*
X282312Y-708325D01*
X282693Y-708948D01*
X283035Y-709598D01*
X283336Y-710276D01*
X283596Y-710982D01*
X283817Y-711715D01*
X283998Y-712476D01*
X284138Y-713265D01*
X284239Y-714081D01*
X284299Y-714925D01*
X284319Y-715797D01*
X284308Y-716438D01*
X284274Y-717065D01*
X284217Y-717680D01*
X284138Y-718282D01*
X284036Y-718871D01*
X283911Y-719448D01*
X283764Y-720011D01*
X283594Y-720561D01*
X283401Y-721098D01*
X283186Y-721623D01*
X282948Y-722134D01*
X282688Y-722632D01*
X282404Y-723118D01*
X282099Y-723590D01*
X281770Y-724050D01*
X281419Y-724497D01*
X281047Y-724928D01*
X280656Y-725341D01*
X280247Y-725736D01*
X280191Y-725785D01*
X279819Y-726112D01*
X279372Y-726471D01*
X278906Y-726811D01*
X278422Y-727134D01*
X277918Y-727438D01*
X277396Y-727724D01*
X276855Y-727992D01*
X276296Y-728242D01*
X275717Y-728474D01*
X275120Y-728687D01*
X274504Y-728883D01*
X273870Y-729060D01*
X273216Y-729219D01*
X274074Y-729335D01*
X274906Y-729473D01*
X275714Y-729636D01*
X276497Y-729821D01*
X277255Y-730030D01*
X277988Y-730263D01*
X278696Y-730519D01*
X279379Y-730799D01*
X280037Y-731102D01*
X280670Y-731428D01*
X281278Y-731778D01*
X281862Y-732152D01*
X282420Y-732548D01*
X282954Y-732969D01*
X283397Y-733356D01*
X283462Y-733413D01*
X283946Y-733880D01*
X284403Y-734367D01*
X284830Y-734869D01*
X285227Y-735388D01*
X285595Y-735922D01*
X285934Y-736471D01*
X286243Y-737037D01*
X286523Y-737618D01*
X286773Y-738214D01*
X286994Y-738827D01*
X287186Y-739455D01*
X287348Y-740099D01*
X287480Y-740758D01*
X287583Y-741433D01*
X287657Y-742124D01*
X287701Y-742831D01*
X287716Y-743553D01*
X287694Y-744513D01*
X287627Y-745446D01*
X287516Y-746352D01*
X287361Y-747231D01*
X287162Y-748083D01*
X286918Y-748908D01*
X286630Y-749706D01*
X286297Y-750477D01*
X285920Y-751221D01*
X285499Y-751938D01*
X285033Y-752627D01*
X284523Y-753290D01*
X283969Y-753926D01*
X283371Y-754534D01*
X282728Y-755116D01*
X282040Y-755671D01*
X281314Y-756195D01*
X280552Y-756685D01*
X279756Y-757142D01*
X278926Y-757565D01*
X278060Y-757954D01*
X277160Y-758309D01*
X276226Y-758630D01*
X275257Y-758918D01*
X274253Y-759171D01*
X273214Y-759391D01*
X272141Y-759577D01*
X271034Y-759729D01*
X269891Y-759848D01*
X268714Y-759932D01*
X267503Y-759983D01*
X266256Y-760000D01*
G37*
%LPC*%
G36*
X265842Y-753662D02*
X266733Y-753651D01*
X267593Y-753620D01*
X268422Y-753567D01*
X269221Y-753493D01*
X269989Y-753399D01*
X270726Y-753283D01*
X271432Y-753146D01*
X272108Y-752988D01*
X272753Y-752810D01*
X273367Y-752610D01*
X273950Y-752389D01*
X274503Y-752147D01*
X275025Y-751884D01*
X275516Y-751600D01*
X275977Y-751295D01*
X276406Y-750969D01*
X276808Y-750622D01*
X277183Y-750254D01*
X277533Y-749866D01*
X277856Y-749457D01*
X278154Y-749027D01*
X278426Y-748576D01*
X278672Y-748105D01*
X278892Y-747613D01*
X279086Y-747101D01*
X279254Y-746567D01*
X279397Y-746013D01*
X279513Y-745438D01*
X279604Y-744843D01*
X279669Y-744226D01*
X279707Y-743590D01*
X279720Y-742932D01*
X279706Y-742297D01*
X279664Y-741683D01*
X279593Y-741088D01*
X279494Y-740514D01*
X279366Y-739960D01*
X279211Y-739426D01*
X279027Y-738912D01*
X278814Y-738419D01*
X278573Y-737945D01*
X278304Y-737492D01*
X278007Y-737059D01*
X277681Y-736646D01*
X277327Y-736253D01*
X276945Y-735880D01*
X276534Y-735528D01*
X276095Y-735195D01*
X275628Y-734883D01*
X275133Y-734591D01*
X274609Y-734319D01*
X274056Y-734067D01*
X273476Y-733835D01*
X272867Y-733624D01*
X272230Y-733432D01*
X271564Y-733261D01*
X270871Y-733110D01*
X270148Y-732979D01*
X269398Y-732868D01*
X268619Y-732778D01*
X267812Y-732707D01*
X266977Y-732657D01*
X266113Y-732626D01*
X265221Y-732616D01*
X250473Y-732616D01*
X250473Y-753662D01*
X265842Y-753662D01*
G37*
G36*
X263771Y-726444D02*
X264551Y-726434D01*
X265305Y-726406D01*
X266035Y-726360D01*
X266739Y-726295D01*
X267419Y-726211D01*
X268073Y-726109D01*
X268702Y-725988D01*
X269307Y-725848D01*
X269886Y-725690D01*
X270440Y-725513D01*
X270969Y-725318D01*
X271472Y-725104D01*
X271951Y-724871D01*
X272405Y-724620D01*
X272833Y-724350D01*
X273237Y-724062D01*
X273616Y-723754D01*
X273970Y-723426D01*
X274300Y-723079D01*
X274605Y-722711D01*
X274886Y-722324D01*
X275143Y-721917D01*
X275375Y-721490D01*
X275583Y-721043D01*
X275766Y-720576D01*
X275925Y-720089D01*
X276059Y-719582D01*
X276169Y-719055D01*
X276255Y-718509D01*
X276316Y-717942D01*
X276353Y-717356D01*
X276365Y-716750D01*
X276352Y-716170D01*
X276314Y-715611D01*
X276251Y-715073D01*
X276163Y-714557D01*
X276049Y-714061D01*
X275910Y-713586D01*
X275746Y-713133D01*
X275557Y-712700D01*
X275342Y-712289D01*
X275103Y-711898D01*
X274837Y-711529D01*
X274547Y-711180D01*
X274232Y-710853D01*
X273891Y-710546D01*
X273525Y-710261D01*
X273133Y-709997D01*
X272718Y-709751D01*
X272280Y-709521D01*
X271820Y-709307D01*
X271336Y-709109D01*
X270831Y-708926D01*
X270302Y-708760D01*
X269751Y-708609D01*
X269177Y-708474D01*
X268581Y-708355D01*
X267961Y-708252D01*
X267320Y-708165D01*
X266655Y-708094D01*
X265968Y-708038D01*
X265258Y-707999D01*
X264526Y-707975D01*
X263771Y-707967D01*
X250473Y-707967D01*
X250473Y-726444D01*
X263771Y-726444D01*
G37*
%LPD*%
G36*
X413711Y-777607D02*
X406255Y-777607D01*
X406255Y-724331D01*
X406239Y-721164D01*
X406192Y-718583D01*
X406157Y-717511D01*
X406115Y-716586D01*
X406064Y-715808D01*
X406006Y-715175D01*
X413214Y-715175D01*
X413266Y-715553D01*
X413339Y-716356D01*
X413427Y-717645D01*
X413525Y-719484D01*
X413603Y-721265D01*
X413629Y-722384D01*
X413794Y-722384D01*
X414048Y-721875D01*
X414312Y-721383D01*
X414585Y-720908D01*
X414869Y-720451D01*
X415163Y-720011D01*
X415466Y-719588D01*
X415780Y-719183D01*
X416104Y-718795D01*
X416438Y-718424D01*
X416782Y-718071D01*
X417136Y-717735D01*
X417500Y-717416D01*
X417873Y-717115D01*
X418258Y-716831D01*
X418652Y-716564D01*
X419056Y-716315D01*
X419473Y-716081D01*
X419906Y-715863D01*
X420356Y-715660D01*
X420821Y-715472D01*
X421303Y-715299D01*
X421802Y-715141D01*
X422316Y-714998D01*
X422846Y-714870D01*
X423393Y-714757D01*
X423956Y-714659D01*
X424535Y-714576D01*
X425130Y-714509D01*
X425741Y-714456D01*
X426369Y-714418D01*
X427013Y-714396D01*
X427673Y-714388D01*
X428692Y-714410D01*
X429679Y-714475D01*
X430633Y-714583D01*
X431554Y-714735D01*
X432442Y-714930D01*
X433298Y-715169D01*
X434122Y-715451D01*
X434912Y-715776D01*
X435670Y-716145D01*
X436395Y-716557D01*
X437087Y-717012D01*
X437747Y-717511D01*
X438374Y-718053D01*
X438969Y-718638D01*
X439530Y-719267D01*
X440059Y-719940D01*
X440556Y-720658D01*
X441021Y-721426D01*
X441453Y-722244D01*
X441854Y-723111D01*
X442222Y-724028D01*
X442559Y-724994D01*
X442863Y-726010D01*
X443135Y-727075D01*
X443376Y-728190D01*
X443584Y-729355D01*
X443760Y-730568D01*
X443904Y-731832D01*
X444017Y-733145D01*
X444097Y-734507D01*
X444145Y-735919D01*
X444161Y-737381D01*
X444145Y-738823D01*
X444096Y-740220D01*
X444016Y-741571D01*
X443903Y-742876D01*
X443758Y-744136D01*
X443581Y-745349D01*
X443372Y-746517D01*
X443130Y-747639D01*
X442857Y-748715D01*
X442551Y-749746D01*
X442212Y-750730D01*
X441842Y-751669D01*
X441440Y-752562D01*
X441005Y-753409D01*
X440538Y-754211D01*
X440039Y-754967D01*
X439507Y-755676D01*
X438944Y-756340D01*
X438348Y-756959D01*
X437720Y-757531D01*
X437060Y-758058D01*
X436368Y-758539D01*
X435643Y-758974D01*
X434886Y-759363D01*
X434097Y-759707D01*
X433276Y-760004D01*
X432423Y-760256D01*
X431537Y-760462D01*
X430619Y-760622D01*
X429669Y-760737D01*
X428687Y-760806D01*
X427673Y-760829D01*
X427032Y-760821D01*
X426405Y-760798D01*
X425790Y-760760D01*
X425190Y-760707D01*
X424602Y-760638D01*
X424028Y-760555D01*
X423467Y-760456D01*
X422919Y-760342D01*
X422384Y-760212D01*
X421863Y-760068D01*
X421355Y-759908D01*
X420860Y-759733D01*
X420379Y-759543D01*
X419911Y-759338D01*
X419456Y-759117D01*
X419014Y-758881D01*
X418586Y-758630D01*
X418171Y-758364D01*
X417769Y-758083D01*
X417380Y-757786D01*
X417005Y-757474D01*
X416643Y-757147D01*
X416294Y-756805D01*
X415959Y-756448D01*
X415637Y-756075D01*
X415328Y-755687D01*
X415032Y-755284D01*
X414750Y-754866D01*
X414481Y-754432D01*
X414225Y-753983D01*
X413982Y-753519D01*
X413753Y-753040D01*
X413546Y-753040D01*
X413585Y-753223D01*
X413618Y-753605D01*
X413647Y-754186D01*
X413670Y-754967D01*
X413701Y-757126D01*
X413711Y-760083D01*
X413711Y-777607D01*
G37*
%LPC*%
G36*
X425684Y-755319D02*
X426366Y-755303D01*
X427025Y-755255D01*
X427660Y-755175D01*
X428272Y-755064D01*
X428860Y-754920D01*
X429425Y-754745D01*
X429967Y-754538D01*
X430484Y-754299D01*
X430979Y-754028D01*
X431450Y-753725D01*
X431897Y-753390D01*
X432322Y-753023D01*
X432722Y-752625D01*
X433099Y-752194D01*
X433453Y-751732D01*
X433783Y-751238D01*
X434092Y-750706D01*
X434380Y-750132D01*
X434649Y-749513D01*
X434898Y-748852D01*
X435127Y-748148D01*
X435336Y-747400D01*
X435525Y-746609D01*
X435694Y-745775D01*
X435843Y-744897D01*
X435973Y-743977D01*
X436082Y-743013D01*
X436172Y-742006D01*
X436241Y-740956D01*
X436291Y-739863D01*
X436321Y-738726D01*
X436331Y-737546D01*
X436321Y-736397D01*
X436291Y-735289D01*
X436242Y-734223D01*
X436173Y-733199D01*
X436084Y-732217D01*
X435976Y-731276D01*
X435847Y-730377D01*
X435699Y-729520D01*
X435531Y-728704D01*
X435344Y-727931D01*
X435137Y-727199D01*
X434909Y-726508D01*
X434663Y-725860D01*
X434396Y-725253D01*
X434110Y-724688D01*
X433804Y-724165D01*
X433476Y-723679D01*
X433125Y-723223D01*
X432751Y-722799D01*
X432354Y-722407D01*
X431933Y-722046D01*
X431489Y-721716D01*
X431022Y-721418D01*
X430531Y-721151D01*
X430017Y-720916D01*
X429480Y-720712D01*
X428919Y-720539D01*
X428335Y-720398D01*
X427728Y-720288D01*
X427098Y-720209D01*
X426444Y-720162D01*
X425767Y-720147D01*
X425220Y-720154D01*
X424689Y-720176D01*
X424172Y-720212D01*
X423671Y-720263D01*
X423185Y-720329D01*
X422713Y-720409D01*
X422257Y-720503D01*
X421816Y-720613D01*
X421390Y-720737D01*
X420978Y-720875D01*
X420582Y-721028D01*
X420201Y-721195D01*
X419835Y-721377D01*
X419484Y-721574D01*
X419149Y-721785D01*
X418828Y-722011D01*
X418519Y-722252D01*
X418220Y-722510D01*
X417930Y-722784D01*
X417650Y-723074D01*
X417379Y-723380D01*
X417117Y-723703D01*
X416865Y-724043D01*
X416622Y-724398D01*
X416388Y-724770D01*
X416164Y-725158D01*
X415949Y-725563D01*
X415744Y-725984D01*
X415361Y-726875D01*
X415016Y-727831D01*
X414858Y-728335D01*
X414711Y-728858D01*
X414573Y-729399D01*
X414446Y-729959D01*
X414221Y-731134D01*
X414038Y-732383D01*
X413895Y-733707D01*
X413793Y-735106D01*
X413732Y-736579D01*
X413711Y-738126D01*
X413722Y-739211D01*
X413755Y-740260D01*
X413811Y-741272D01*
X413888Y-742248D01*
X413987Y-743188D01*
X414108Y-744092D01*
X414251Y-744959D01*
X414416Y-745790D01*
X414603Y-746585D01*
X414812Y-747344D01*
X415043Y-748066D01*
X415296Y-748752D01*
X415571Y-749402D01*
X415868Y-750016D01*
X416187Y-750593D01*
X416529Y-751135D01*
X416894Y-751641D01*
X417288Y-752115D01*
X417709Y-752556D01*
X418157Y-752965D01*
X418633Y-753341D01*
X419137Y-753684D01*
X419668Y-753995D01*
X420226Y-754273D01*
X420812Y-754518D01*
X421425Y-754730D01*
X422066Y-754910D01*
X422735Y-755057D01*
X423431Y-755172D01*
X424154Y-755253D01*
X424906Y-755302D01*
X425684Y-755319D01*
G37*
%LPD*%
G36*
X343180Y-760000D02*
X335764Y-760000D01*
X335764Y-724745D01*
X335748Y-721211D01*
X335702Y-718438D01*
X335667Y-717337D01*
X335624Y-716426D01*
X335574Y-715705D01*
X335515Y-715175D01*
X342558Y-715175D01*
X342600Y-715559D01*
X342641Y-716294D01*
X342745Y-718386D01*
X342812Y-720090D01*
X342890Y-722839D01*
X343014Y-722839D01*
X343626Y-721694D01*
X343940Y-721155D01*
X344259Y-720639D01*
X344584Y-720145D01*
X344915Y-719674D01*
X345251Y-719226D01*
X345593Y-718800D01*
X345940Y-718397D01*
X346292Y-718017D01*
X346651Y-717659D01*
X347014Y-717324D01*
X347383Y-717012D01*
X347758Y-716722D01*
X348138Y-716455D01*
X348524Y-716211D01*
X348917Y-715985D01*
X349322Y-715774D01*
X349737Y-715577D01*
X350163Y-715395D01*
X350599Y-715228D01*
X351046Y-715075D01*
X351504Y-714937D01*
X351973Y-714813D01*
X352452Y-714704D01*
X352942Y-714609D01*
X353442Y-714529D01*
X353953Y-714463D01*
X354475Y-714412D01*
X355008Y-714376D01*
X355551Y-714354D01*
X356105Y-714347D01*
X356734Y-714355D01*
X357345Y-714379D01*
X357941Y-714418D01*
X358519Y-714474D01*
X359081Y-714545D01*
X359627Y-714632D01*
X360155Y-714735D01*
X360667Y-714854D01*
X361162Y-714989D01*
X361641Y-715140D01*
X362103Y-715306D01*
X362548Y-715489D01*
X362977Y-715687D01*
X363389Y-715901D01*
X363784Y-716131D01*
X364163Y-716377D01*
X364526Y-716640D01*
X364875Y-716922D01*
X365210Y-717222D01*
X365531Y-717542D01*
X365838Y-717880D01*
X366131Y-718237D01*
X366409Y-718613D01*
X366674Y-719007D01*
X366925Y-719421D01*
X367161Y-719853D01*
X367384Y-720304D01*
X367592Y-720773D01*
X367786Y-721262D01*
X367966Y-721769D01*
X368133Y-722295D01*
X368285Y-722839D01*
X368409Y-722839D01*
X368703Y-722285D01*
X369004Y-721750D01*
X369313Y-721235D01*
X369630Y-720740D01*
X369954Y-720264D01*
X370286Y-719808D01*
X370625Y-719372D01*
X370972Y-718956D01*
X371327Y-718559D01*
X371689Y-718182D01*
X372059Y-717825D01*
X372436Y-717488D01*
X372822Y-717170D01*
X373214Y-716872D01*
X373614Y-716594D01*
X374022Y-716335D01*
X374439Y-716095D01*
X374867Y-715869D01*
X375306Y-715660D01*
X375756Y-715465D01*
X376216Y-715287D01*
X376688Y-715124D01*
X377170Y-714976D01*
X377663Y-714844D01*
X378167Y-714727D01*
X378681Y-714626D01*
X379207Y-714541D01*
X379743Y-714471D01*
X380290Y-714417D01*
X380849Y-714378D01*
X381417Y-714355D01*
X381997Y-714347D01*
X382832Y-714361D01*
X383638Y-714404D01*
X384415Y-714476D01*
X385163Y-714577D01*
X385881Y-714707D01*
X386571Y-714865D01*
X387232Y-715053D01*
X387864Y-715269D01*
X388467Y-715513D01*
X389041Y-715787D01*
X389587Y-716090D01*
X390103Y-716421D01*
X390590Y-716781D01*
X391048Y-717170D01*
X391477Y-717587D01*
X391878Y-718034D01*
X392251Y-718513D01*
X392601Y-719029D01*
X392927Y-719583D01*
X393228Y-720173D01*
X393505Y-720799D01*
X393758Y-721463D01*
X393987Y-722164D01*
X394192Y-722902D01*
X394373Y-723676D01*
X394530Y-724488D01*
X394663Y-725336D01*
X394771Y-726221D01*
X394856Y-727143D01*
X394916Y-728102D01*
X394952Y-729098D01*
X394964Y-730131D01*
X394964Y-760000D01*
X387590Y-760000D01*
X387590Y-731581D01*
X387583Y-730783D01*
X387562Y-730017D01*
X387527Y-729283D01*
X387479Y-728580D01*
X387416Y-727908D01*
X387339Y-727268D01*
X387249Y-726659D01*
X387145Y-726081D01*
X387026Y-725535D01*
X386894Y-725020D01*
X386748Y-724537D01*
X386588Y-724085D01*
X386414Y-723664D01*
X386226Y-723275D01*
X386024Y-722917D01*
X385809Y-722591D01*
X385575Y-722290D01*
X385319Y-722008D01*
X385040Y-721746D01*
X384739Y-721503D01*
X384416Y-721280D01*
X384071Y-721076D01*
X383703Y-720892D01*
X383313Y-720727D01*
X382900Y-720581D01*
X382465Y-720455D01*
X382008Y-720348D01*
X381529Y-720261D01*
X381027Y-720193D01*
X380503Y-720144D01*
X379956Y-720115D01*
X379387Y-720105D01*
X378785Y-720119D01*
X378199Y-720162D01*
X377631Y-720233D01*
X377079Y-720332D01*
X376544Y-720459D01*
X376027Y-720615D01*
X375526Y-720799D01*
X375043Y-721011D01*
X374576Y-721252D01*
X374126Y-721521D01*
X373694Y-721819D01*
X373278Y-722144D01*
X372879Y-722498D01*
X372498Y-722881D01*
X372133Y-723291D01*
X371785Y-723730D01*
X371457Y-724195D01*
X371149Y-724684D01*
X370863Y-725197D01*
X370598Y-725733D01*
X370354Y-726293D01*
X370132Y-726877D01*
X369930Y-727485D01*
X369750Y-728116D01*
X369591Y-728772D01*
X369453Y-729451D01*
X369337Y-730154D01*
X369241Y-730880D01*
X369167Y-731631D01*
X369114Y-732405D01*
X369082Y-733203D01*
X369072Y-734025D01*
X369072Y-760000D01*
X361698Y-760000D01*
X361698Y-731581D01*
X361691Y-730783D01*
X361670Y-730017D01*
X361635Y-729283D01*
X361586Y-728580D01*
X361524Y-727908D01*
X361447Y-727268D01*
X361357Y-726659D01*
X361252Y-726081D01*
X361134Y-725535D01*
X361002Y-725020D01*
X360856Y-724537D01*
X360696Y-724085D01*
X360522Y-723664D01*
X360334Y-723275D01*
X360132Y-722917D01*
X359916Y-722591D01*
X359682Y-722290D01*
X359426Y-722008D01*
X359148Y-721746D01*
X358847Y-721503D01*
X358524Y-721280D01*
X358178Y-721076D01*
X357810Y-720892D01*
X357420Y-720727D01*
X357008Y-720581D01*
X356573Y-720455D01*
X356116Y-720348D01*
X355636Y-720261D01*
X355134Y-720193D01*
X354610Y-720144D01*
X354064Y-720115D01*
X353495Y-720105D01*
X352907Y-720119D01*
X352335Y-720162D01*
X351778Y-720233D01*
X351237Y-720333D01*
X350712Y-720461D01*
X350201Y-720618D01*
X349707Y-720803D01*
X349228Y-721017D01*
X348764Y-721259D01*
X348317Y-721529D01*
X347884Y-721828D01*
X347467Y-722156D01*
X347066Y-722512D01*
X346680Y-722896D01*
X346310Y-723309D01*
X345955Y-723751D01*
X345619Y-724218D01*
X345305Y-724709D01*
X345012Y-725223D01*
X344741Y-725760D01*
X344491Y-726321D01*
X344264Y-726905D01*
X344058Y-727512D01*
X343873Y-728142D01*
X343711Y-728796D01*
X343570Y-729473D01*
X343451Y-730173D01*
X343353Y-730897D01*
X343277Y-731644D01*
X343223Y-732414D01*
X343190Y-733208D01*
X343180Y-734025D01*
X343180Y-760000D01*
G37*
G36*
X305336Y-760000D02*
X297880Y-760000D01*
X297880Y-698521D01*
X305336Y-698521D01*
X305336Y-760000D01*
G37*
G36*
X324170Y-760000D02*
X316713Y-760000D01*
X316713Y-715175D01*
X324170Y-715175D01*
X324170Y-760000D01*
G37*
G36*
X324170Y-705647D02*
X316713Y-705647D01*
X316713Y-698521D01*
X324170Y-698521D01*
X324170Y-705647D01*
G37*
G36*
X342268Y-1092550D02*
X340595Y-1092550D01*
X340595Y-1080209D01*
X346402Y-1080209D01*
X346908Y-1080224D01*
X347384Y-1080268D01*
X347831Y-1080340D01*
X348249Y-1080442D01*
X348636Y-1080574D01*
X348994Y-1080734D01*
X349322Y-1080923D01*
X349620Y-1081142D01*
X349886Y-1081387D01*
X350117Y-1081654D01*
X350312Y-1081944D01*
X350471Y-1082258D01*
X350595Y-1082594D01*
X350684Y-1082953D01*
X350737Y-1083334D01*
X350755Y-1083739D01*
X350742Y-1084076D01*
X350704Y-1084399D01*
X350642Y-1084709D01*
X350554Y-1085005D01*
X350442Y-1085287D01*
X350304Y-1085555D01*
X350141Y-1085810D01*
X349953Y-1086051D01*
X349743Y-1086275D01*
X349514Y-1086477D01*
X349267Y-1086657D01*
X349156Y-1086723D01*
X349000Y-1086815D01*
X348714Y-1086952D01*
X348409Y-1087068D01*
X348085Y-1087161D01*
X347742Y-1087234D01*
X349233Y-1089497D01*
X351245Y-1092550D01*
X349318Y-1092550D01*
X346113Y-1087426D01*
X342268Y-1087426D01*
X342268Y-1092550D01*
G37*
%LPC*%
G36*
X346305Y-1086104D02*
X346626Y-1086094D01*
X346929Y-1086065D01*
X347213Y-1086017D01*
X347478Y-1085949D01*
X347724Y-1085863D01*
X347952Y-1085756D01*
X348160Y-1085631D01*
X348350Y-1085486D01*
X348520Y-1085324D01*
X348666Y-1085147D01*
X348791Y-1084954D01*
X348892Y-1084745D01*
X348971Y-1084521D01*
X349028Y-1084282D01*
X349062Y-1084027D01*
X349073Y-1083756D01*
X349061Y-1083495D01*
X349027Y-1083250D01*
X348970Y-1083021D01*
X348890Y-1082807D01*
X348787Y-1082610D01*
X348662Y-1082429D01*
X348513Y-1082263D01*
X348342Y-1082114D01*
X348149Y-1081982D01*
X347936Y-1081867D01*
X347703Y-1081770D01*
X347449Y-1081691D01*
X347176Y-1081629D01*
X346882Y-1081585D01*
X346569Y-1081558D01*
X346235Y-1081549D01*
X342268Y-1081549D01*
X342268Y-1086104D01*
X346305Y-1086104D01*
G37*
%LPD*%
G36*
X14813Y-1029330D02*
X13889Y-1029310D01*
X13025Y-1029252D01*
X12220Y-1029154D01*
X11475Y-1029018D01*
X10790Y-1028843D01*
X10165Y-1028629D01*
X9600Y-1028376D01*
X9094Y-1028084D01*
X8863Y-1027922D01*
X8648Y-1027750D01*
X8447Y-1027566D01*
X8261Y-1027370D01*
X8090Y-1027164D01*
X7934Y-1026946D01*
X7793Y-1026717D01*
X7667Y-1026476D01*
X7555Y-1026225D01*
X7459Y-1025962D01*
X7377Y-1025687D01*
X7310Y-1025402D01*
X7258Y-1025105D01*
X7221Y-1024797D01*
X7198Y-1024477D01*
X7191Y-1024146D01*
X7199Y-1023825D01*
X7221Y-1023513D01*
X7259Y-1023213D01*
X7311Y-1022923D01*
X7379Y-1022644D01*
X7462Y-1022376D01*
X7559Y-1022118D01*
X7672Y-1021872D01*
X7800Y-1021636D01*
X7943Y-1021410D01*
X8100Y-1021195D01*
X8273Y-1020991D01*
X8461Y-1020798D01*
X8664Y-1020616D01*
X8882Y-1020444D01*
X9115Y-1020283D01*
X9625Y-1019991D01*
X10193Y-1019738D01*
X10818Y-1019524D01*
X11501Y-1019348D01*
X12243Y-1019212D01*
X13042Y-1019115D01*
X13898Y-1019056D01*
X14813Y-1019037D01*
X15714Y-1019057D01*
X16559Y-1019119D01*
X17350Y-1019221D01*
X18085Y-1019364D01*
X18766Y-1019548D01*
X19392Y-1019773D01*
X19964Y-1020039D01*
X20480Y-1020346D01*
X20717Y-1020514D01*
X20938Y-1020693D01*
X21144Y-1020881D01*
X21335Y-1021078D01*
X21511Y-1021286D01*
X21671Y-1021503D01*
X21817Y-1021730D01*
X21946Y-1021966D01*
X22061Y-1022213D01*
X22160Y-1022469D01*
X22244Y-1022735D01*
X22313Y-1023010D01*
X22367Y-1023295D01*
X22405Y-1023590D01*
X22428Y-1023895D01*
X22435Y-1024210D01*
X22428Y-1024524D01*
X22405Y-1024828D01*
X22367Y-1025123D01*
X22314Y-1025407D01*
X22245Y-1025682D01*
X22162Y-1025947D01*
X22063Y-1026201D01*
X21949Y-1026446D01*
X21820Y-1026681D01*
X21676Y-1026906D01*
X21516Y-1027121D01*
X21341Y-1027326D01*
X21151Y-1027521D01*
X20946Y-1027706D01*
X20726Y-1027882D01*
X20490Y-1028047D01*
X19976Y-1028348D01*
X19406Y-1028608D01*
X18780Y-1028829D01*
X18099Y-1029009D01*
X17361Y-1029149D01*
X16568Y-1029249D01*
X15718Y-1029309D01*
X14813Y-1029330D01*
G37*
%LPC*%
G36*
X14813Y-1027416D02*
X15575Y-1027404D01*
X16284Y-1027368D01*
X16941Y-1027307D01*
X17544Y-1027223D01*
X18094Y-1027114D01*
X18592Y-1026981D01*
X19037Y-1026824D01*
X19428Y-1026643D01*
X19771Y-1026436D01*
X20068Y-1026200D01*
X20319Y-1025936D01*
X20525Y-1025643D01*
X20684Y-1025322D01*
X20799Y-1024973D01*
X20867Y-1024595D01*
X20890Y-1024189D01*
X20867Y-1023785D01*
X20797Y-1023409D01*
X20680Y-1023060D01*
X20517Y-1022740D01*
X20307Y-1022448D01*
X20050Y-1022184D01*
X19747Y-1021947D01*
X19397Y-1021739D01*
X18999Y-1021557D01*
X18551Y-1021399D01*
X18053Y-1021265D01*
X17505Y-1021155D01*
X16907Y-1021070D01*
X16259Y-1021010D01*
X15561Y-1020973D01*
X14813Y-1020961D01*
X14039Y-1020973D01*
X13320Y-1021007D01*
X12657Y-1021065D01*
X12048Y-1021146D01*
X11495Y-1021250D01*
X10997Y-1021378D01*
X10554Y-1021528D01*
X10166Y-1021702D01*
X9829Y-1021902D01*
X9536Y-1022133D01*
X9289Y-1022393D01*
X9086Y-1022684D01*
X8928Y-1023004D01*
X8816Y-1023355D01*
X8748Y-1023736D01*
X8726Y-1024146D01*
X8748Y-1024567D01*
X8815Y-1024958D01*
X8926Y-1025317D01*
X9081Y-1025646D01*
X9280Y-1025944D01*
X9524Y-1026211D01*
X9813Y-1026448D01*
X10145Y-1026654D01*
X10529Y-1026833D01*
X10969Y-1026987D01*
X11467Y-1027118D01*
X12022Y-1027226D01*
X12634Y-1027309D01*
X13303Y-1027368D01*
X14030Y-1027404D01*
X14813Y-1027416D01*
G37*
%LPD*%
G36*
X3175Y-1032605D02*
X-11638Y-1032605D01*
X-11638Y-1030271D01*
X1062Y-1022259D01*
X-715Y-1022354D01*
X-1390Y-1022378D01*
X-1924Y-1022386D01*
X-11638Y-1022386D01*
X-11638Y-1020577D01*
X3175Y-1020577D01*
X3175Y-1022995D01*
X-9441Y-1030922D01*
X-8421Y-1030870D01*
X-6665Y-1030817D01*
X3175Y-1030817D01*
X3175Y-1032605D01*
G37*
G36*
X18871Y-1047614D02*
X17399Y-1047614D01*
X7412Y-1040833D01*
X7412Y-1038846D01*
X17378Y-1038846D01*
X17378Y-1036764D01*
X18871Y-1036764D01*
X18871Y-1038846D01*
X22225Y-1038846D01*
X22225Y-1040633D01*
X18871Y-1040633D01*
X18871Y-1047614D01*
G37*
%LPC*%
G36*
X17378Y-1045869D02*
X17378Y-1040633D01*
X9546Y-1040633D01*
X10103Y-1040928D01*
X10797Y-1041338D01*
X16390Y-1045133D01*
X17168Y-1045701D01*
X17378Y-1045869D01*
G37*
%LPD*%
G36*
X3175Y-1061323D02*
X-11638Y-1061323D01*
X-11638Y-1050085D01*
X-9998Y-1050085D01*
X-9998Y-1059315D01*
X-5246Y-1059315D01*
X-5246Y-1050715D01*
X-3627Y-1050715D01*
X-3627Y-1059315D01*
X1535Y-1059315D01*
X1535Y-1049654D01*
X3175Y-1049654D01*
X3175Y-1061323D01*
G37*
G36*
X3175Y-1046948D02*
X-11638Y-1046948D01*
X-11638Y-1035710D01*
X-9998Y-1035710D01*
X-9998Y-1044940D01*
X-5246Y-1044940D01*
X-5246Y-1036340D01*
X-3627Y-1036340D01*
X-3627Y-1044940D01*
X1535Y-1044940D01*
X1535Y-1035279D01*
X3175Y-1035279D01*
X3175Y-1046948D01*
G37*
G36*
X-378Y-1017831D02*
X-767Y-1015886D01*
X-445Y-1015790D01*
X-144Y-1015670D01*
X134Y-1015527D01*
X390Y-1015360D01*
X624Y-1015169D01*
X836Y-1014955D01*
X1026Y-1014717D01*
X1193Y-1014456D01*
X1340Y-1014170D01*
X1467Y-1013860D01*
X1574Y-1013525D01*
X1662Y-1013165D01*
X1731Y-1012781D01*
X1780Y-1012372D01*
X1809Y-1011939D01*
X1819Y-1011481D01*
X1808Y-1011008D01*
X1777Y-1010564D01*
X1725Y-1010147D01*
X1652Y-1009758D01*
X1558Y-1009396D01*
X1443Y-1009063D01*
X1308Y-1008757D01*
X1151Y-1008479D01*
X975Y-1008231D01*
X778Y-1008017D01*
X563Y-1007835D01*
X327Y-1007687D01*
X72Y-1007571D01*
X-202Y-1007488D01*
X-496Y-1007439D01*
X-810Y-1007422D01*
X-1155Y-1007443D01*
X-1467Y-1007505D01*
X-1744Y-1007609D01*
X-1987Y-1007754D01*
X-2203Y-1007936D01*
X-2400Y-1008152D01*
X-2576Y-1008401D01*
X-2733Y-1008684D01*
X-2875Y-1008998D01*
X-3004Y-1009341D01*
X-3122Y-1009713D01*
X-3228Y-1010114D01*
X-3659Y-1011954D01*
X-3853Y-1012779D01*
X-4048Y-1013498D01*
X-4242Y-1014111D01*
X-4437Y-1014619D01*
X-4637Y-1015049D01*
X-4848Y-1015432D01*
X-5070Y-1015767D01*
X-5304Y-1016054D01*
X-5553Y-1016301D01*
X-5823Y-1016518D01*
X-6113Y-1016703D01*
X-6424Y-1016858D01*
X-6756Y-1016980D01*
X-7112Y-1017067D01*
X-7492Y-1017119D01*
X-7896Y-1017137D01*
X-8358Y-1017114D01*
X-8792Y-1017046D01*
X-9200Y-1016932D01*
X-9580Y-1016773D01*
X-9933Y-1016568D01*
X-10259Y-1016318D01*
X-10558Y-1016022D01*
X-10829Y-1015681D01*
X-11070Y-1015297D01*
X-11279Y-1014874D01*
X-11457Y-1014412D01*
X-11601Y-1013910D01*
X-11714Y-1013370D01*
X-11795Y-1012790D01*
X-11843Y-1012171D01*
X-11859Y-1011512D01*
X-11847Y-1010900D01*
X-11811Y-1010325D01*
X-11750Y-1009787D01*
X-11666Y-1009286D01*
X-11557Y-1008822D01*
X-11424Y-1008396D01*
X-11267Y-1008006D01*
X-11086Y-1007654D01*
X-10876Y-1007332D01*
X-10632Y-1007036D01*
X-10354Y-1006765D01*
X-10042Y-1006518D01*
X-9695Y-1006297D01*
X-9315Y-1006100D01*
X-8901Y-1005929D01*
X-8453Y-1005782D01*
X-8106Y-1007759D01*
X-8390Y-1007849D01*
X-8654Y-1007959D01*
X-8898Y-1008086D01*
X-9122Y-1008232D01*
X-9325Y-1008396D01*
X-9508Y-1008579D01*
X-9671Y-1008780D01*
X-9814Y-1008999D01*
X-9939Y-1009239D01*
X-10046Y-1009501D01*
X-10138Y-1009784D01*
X-10212Y-1010090D01*
X-10270Y-1010418D01*
X-10312Y-1010768D01*
X-10337Y-1011139D01*
X-10345Y-1011533D01*
X-10336Y-1011964D01*
X-10308Y-1012369D01*
X-10262Y-1012747D01*
X-10198Y-1013100D01*
X-10115Y-1013425D01*
X-10014Y-1013725D01*
X-9894Y-1013998D01*
X-9756Y-1014246D01*
X-9600Y-1014465D01*
X-9426Y-1014655D01*
X-9233Y-1014816D01*
X-9023Y-1014947D01*
X-8795Y-1015050D01*
X-8548Y-1015123D01*
X-8283Y-1015167D01*
X-8001Y-1015181D01*
X-7674Y-1015159D01*
X-7376Y-1015091D01*
X-7109Y-1014977D01*
X-6870Y-1014818D01*
X-6656Y-1014617D01*
X-6458Y-1014376D01*
X-6277Y-1014094D01*
X-6114Y-1013772D01*
X-5950Y-1013346D01*
X-5768Y-1012750D01*
X-5568Y-1011984D01*
X-5351Y-1011049D01*
X-5031Y-1009688D01*
X-4852Y-1009024D01*
X-4642Y-1008390D01*
X-4396Y-1007789D01*
X-4111Y-1007228D01*
X-3950Y-1006966D01*
X-3772Y-1006722D01*
X-3577Y-1006496D01*
X-3364Y-1006287D01*
X-3134Y-1006098D01*
X-2883Y-1005931D01*
X-2613Y-1005785D01*
X-2323Y-1005661D01*
X-2011Y-1005563D01*
X-1672Y-1005492D01*
X-1306Y-1005449D01*
X-915Y-1005435D01*
X-662Y-1005442D01*
X-417Y-1005460D01*
X-178Y-1005492D01*
X53Y-1005536D01*
X493Y-1005661D01*
X904Y-1005836D01*
X1287Y-1006062D01*
X1640Y-1006337D01*
X1965Y-1006663D01*
X2260Y-1007039D01*
X2524Y-1007460D01*
X2753Y-1007922D01*
X2946Y-1008425D01*
X3104Y-1008969D01*
X3227Y-1009554D01*
X3315Y-1010180D01*
X3368Y-1010847D01*
X3385Y-1011554D01*
X3371Y-1012213D01*
X3326Y-1012837D01*
X3253Y-1013424D01*
X3150Y-1013977D01*
X3018Y-1014494D01*
X2856Y-1014975D01*
X2665Y-1015420D01*
X2444Y-1015830D01*
X2194Y-1016205D01*
X1915Y-1016544D01*
X1606Y-1016847D01*
X1268Y-1017115D01*
X901Y-1017347D01*
X504Y-1017544D01*
X77Y-1017705D01*
X-378Y-1017831D01*
G37*
G36*
X-11638Y-1003960D02*
X-11638Y-1001752D01*
X-4584Y-997242D01*
X-11638Y-992753D01*
X-11638Y-990545D01*
X-2965Y-996264D01*
X3175Y-996264D01*
X3175Y-998262D01*
X-2965Y-998262D01*
X-11638Y-1003960D01*
G37*
G36*
X-9998Y-1075731D02*
X-11638Y-1075731D01*
X-11638Y-1063557D01*
X-9998Y-1063557D01*
X-9998Y-1068645D01*
X3175Y-1068645D01*
X3175Y-1070642D01*
X-9998Y-1070642D01*
X-9998Y-1075731D01*
G37*
G36*
X22225Y-1034173D02*
X19923Y-1034173D01*
X19923Y-1032123D01*
X22225Y-1032123D01*
X22225Y-1034173D01*
G37*
G36*
X160245Y-1439829D02*
X148030Y-1438069D01*
X148858Y-1432321D01*
X148945Y-1431822D01*
X149056Y-1431357D01*
X149192Y-1430925D01*
X149353Y-1430526D01*
X149538Y-1430161D01*
X149747Y-1429830D01*
X149982Y-1429532D01*
X150241Y-1429268D01*
X150521Y-1429040D01*
X150818Y-1428850D01*
X151134Y-1428699D01*
X151466Y-1428585D01*
X151817Y-1428510D01*
X152184Y-1428474D01*
X152570Y-1428476D01*
X152973Y-1428516D01*
X153305Y-1428576D01*
X153619Y-1428660D01*
X153917Y-1428766D01*
X154197Y-1428895D01*
X154460Y-1429047D01*
X154706Y-1429221D01*
X154935Y-1429419D01*
X155147Y-1429639D01*
X155338Y-1429879D01*
X155506Y-1430134D01*
X155649Y-1430405D01*
X155698Y-1430524D01*
X155768Y-1430692D01*
X155862Y-1430994D01*
X155933Y-1431313D01*
X155980Y-1431647D01*
X156002Y-1431997D01*
X158455Y-1430843D01*
X161764Y-1429287D01*
X161489Y-1431194D01*
X155960Y-1433636D01*
X155412Y-1437442D01*
X160483Y-1438173D01*
X160245Y-1439829D01*
G37*
%LPC*%
G36*
X154103Y-1437254D02*
X154679Y-1433257D01*
X154715Y-1432938D01*
X154730Y-1432634D01*
X154722Y-1432346D01*
X154693Y-1432075D01*
X154643Y-1431818D01*
X154570Y-1431578D01*
X154476Y-1431354D01*
X154359Y-1431145D01*
X154223Y-1430954D01*
X154068Y-1430783D01*
X153895Y-1430633D01*
X153703Y-1430503D01*
X153493Y-1430393D01*
X153264Y-1430303D01*
X153016Y-1430233D01*
X152750Y-1430183D01*
X152490Y-1430157D01*
X152242Y-1430156D01*
X152007Y-1430180D01*
X151785Y-1430229D01*
X151575Y-1430302D01*
X151378Y-1430401D01*
X151193Y-1430524D01*
X151021Y-1430673D01*
X150862Y-1430845D01*
X150718Y-1431039D01*
X150589Y-1431256D01*
X150474Y-1431495D01*
X150374Y-1431757D01*
X150288Y-1432041D01*
X150217Y-1432348D01*
X150161Y-1432677D01*
X149595Y-1436604D01*
X154103Y-1437254D01*
G37*
%LPD*%
G36*
X-158631Y-1440969D02*
X-158902Y-1439061D01*
X-154281Y-1435166D01*
X-154823Y-1431359D01*
X-159896Y-1432081D01*
X-160131Y-1430425D01*
X-147914Y-1428686D01*
X-147096Y-1434435D01*
X-147039Y-1434938D01*
X-147015Y-1435416D01*
X-147024Y-1435869D01*
X-147066Y-1436296D01*
X-147142Y-1436698D01*
X-147250Y-1437075D01*
X-147391Y-1437427D01*
X-147566Y-1437753D01*
X-147770Y-1438051D01*
X-148003Y-1438316D01*
X-148263Y-1438550D01*
X-148550Y-1438752D01*
X-148865Y-1438923D01*
X-149208Y-1439061D01*
X-149579Y-1439167D01*
X-149977Y-1439242D01*
X-150312Y-1439277D01*
X-150637Y-1439285D01*
X-150953Y-1439267D01*
X-151258Y-1439222D01*
X-151553Y-1439150D01*
X-151838Y-1439051D01*
X-152114Y-1438926D01*
X-152379Y-1438774D01*
X-152630Y-1438598D01*
X-152862Y-1438400D01*
X-153075Y-1438180D01*
X-153156Y-1438079D01*
X-153270Y-1437938D01*
X-153446Y-1437674D01*
X-153603Y-1437388D01*
X-153741Y-1437081D01*
X-153861Y-1436751D01*
X-155892Y-1438547D01*
X-158631Y-1440969D01*
G37*
%LPC*%
G36*
X-150757Y-1437609D02*
X-150500Y-1437606D01*
X-150231Y-1437579D01*
X-149974Y-1437531D01*
X-149736Y-1437463D01*
X-149517Y-1437374D01*
X-149317Y-1437265D01*
X-149136Y-1437135D01*
X-148974Y-1436985D01*
X-148832Y-1436815D01*
X-148708Y-1436624D01*
X-148604Y-1436414D01*
X-148521Y-1436187D01*
X-148457Y-1435943D01*
X-148414Y-1435681D01*
X-148392Y-1435402D01*
X-148389Y-1435105D01*
X-148407Y-1434791D01*
X-148446Y-1434459D01*
X-149005Y-1430531D01*
X-153514Y-1431173D01*
X-152945Y-1435170D01*
X-152890Y-1435487D01*
X-152819Y-1435782D01*
X-152731Y-1436056D01*
X-152627Y-1436309D01*
X-152506Y-1436541D01*
X-152369Y-1436751D01*
X-152215Y-1436940D01*
X-152045Y-1437108D01*
X-151861Y-1437253D01*
X-151665Y-1437373D01*
X-151456Y-1437469D01*
X-151235Y-1437540D01*
X-151002Y-1437587D01*
X-150757Y-1437609D01*
G37*
%LPD*%
G36*
X517414Y-285025D02*
X517152Y-285019D01*
X516899Y-285000D01*
X516653Y-284968D01*
X516416Y-284924D01*
X515967Y-284797D01*
X515551Y-284620D01*
X515168Y-284392D01*
X514818Y-284114D01*
X514501Y-283785D01*
X514217Y-283405D01*
X513967Y-282977D01*
X513750Y-282502D01*
X513566Y-281980D01*
X513416Y-281412D01*
X513299Y-280798D01*
X513216Y-280137D01*
X513166Y-279429D01*
X513149Y-278675D01*
X513165Y-277905D01*
X513214Y-277185D01*
X513295Y-276515D01*
X513408Y-275894D01*
X513554Y-275324D01*
X513733Y-274803D01*
X513944Y-274332D01*
X514187Y-273911D01*
X514465Y-273539D01*
X514781Y-273217D01*
X515135Y-272945D01*
X515526Y-272722D01*
X515955Y-272548D01*
X516183Y-272480D01*
X516421Y-272424D01*
X516668Y-272381D01*
X516925Y-272350D01*
X517191Y-272332D01*
X517467Y-272325D01*
X517735Y-272332D01*
X517994Y-272350D01*
X518245Y-272382D01*
X518486Y-272425D01*
X518718Y-272482D01*
X518942Y-272551D01*
X519362Y-272726D01*
X519747Y-272951D01*
X520095Y-273227D01*
X520408Y-273552D01*
X520686Y-273928D01*
X520929Y-274353D01*
X521140Y-274826D01*
X521318Y-275347D01*
X521464Y-275916D01*
X521578Y-276534D01*
X521659Y-277199D01*
X521707Y-277913D01*
X521724Y-278675D01*
X521707Y-279425D01*
X521655Y-280130D01*
X521570Y-280788D01*
X521451Y-281401D01*
X521298Y-281969D01*
X521110Y-282490D01*
X520889Y-282966D01*
X520633Y-283396D01*
X520344Y-283778D01*
X520023Y-284109D01*
X519669Y-284389D01*
X519283Y-284618D01*
X518865Y-284796D01*
X518414Y-284923D01*
X518176Y-284968D01*
X517930Y-285000D01*
X517676Y-285019D01*
X517414Y-285025D01*
G37*
%LPC*%
G36*
X517432Y-283738D02*
X517768Y-283718D01*
X518082Y-283660D01*
X518372Y-283563D01*
X518638Y-283427D01*
X518882Y-283252D01*
X519102Y-283038D01*
X519299Y-282785D01*
X519473Y-282494D01*
X519625Y-282162D01*
X519756Y-281789D01*
X519868Y-281374D01*
X519959Y-280917D01*
X520030Y-280419D01*
X520080Y-279880D01*
X520111Y-279298D01*
X520121Y-278675D01*
X520111Y-278030D01*
X520082Y-277432D01*
X520034Y-276879D01*
X519966Y-276372D01*
X519880Y-275911D01*
X519773Y-275496D01*
X519648Y-275127D01*
X519503Y-274804D01*
X519336Y-274523D01*
X519144Y-274279D01*
X518927Y-274073D01*
X518685Y-273904D01*
X518418Y-273773D01*
X518126Y-273679D01*
X517809Y-273623D01*
X517467Y-273604D01*
X517116Y-273623D01*
X516791Y-273678D01*
X516492Y-273770D01*
X516218Y-273900D01*
X515969Y-274066D01*
X515747Y-274269D01*
X515550Y-274509D01*
X515378Y-274786D01*
X515229Y-275106D01*
X515100Y-275473D01*
X514991Y-275888D01*
X514902Y-276350D01*
X514832Y-276860D01*
X514783Y-277417D01*
X514753Y-278022D01*
X514743Y-278675D01*
X514753Y-279310D01*
X514783Y-279901D01*
X514834Y-280448D01*
X514904Y-280950D01*
X514994Y-281409D01*
X515105Y-281823D01*
X515236Y-282194D01*
X515387Y-282520D01*
X515560Y-282806D01*
X515756Y-283053D01*
X515976Y-283262D01*
X516220Y-283433D01*
X516487Y-283566D01*
X516779Y-283662D01*
X517093Y-283719D01*
X517432Y-283738D01*
G37*
%LPD*%
G36*
X486718Y-284850D02*
X485045Y-284850D01*
X485045Y-272509D01*
X490852Y-272509D01*
X491358Y-272524D01*
X491834Y-272568D01*
X492281Y-272640D01*
X492699Y-272742D01*
X493086Y-272874D01*
X493444Y-273034D01*
X493772Y-273223D01*
X494070Y-273442D01*
X494336Y-273687D01*
X494567Y-273954D01*
X494762Y-274244D01*
X494921Y-274558D01*
X495045Y-274894D01*
X495134Y-275253D01*
X495187Y-275634D01*
X495205Y-276039D01*
X495192Y-276376D01*
X495155Y-276699D01*
X495092Y-277009D01*
X495004Y-277305D01*
X494892Y-277587D01*
X494754Y-277855D01*
X494591Y-278110D01*
X494403Y-278351D01*
X494193Y-278575D01*
X493964Y-278777D01*
X493717Y-278957D01*
X493606Y-279023D01*
X493450Y-279115D01*
X493164Y-279252D01*
X492859Y-279368D01*
X492535Y-279461D01*
X492192Y-279534D01*
X493683Y-281797D01*
X495695Y-284850D01*
X493768Y-284850D01*
X490563Y-279726D01*
X486718Y-279726D01*
X486718Y-284850D01*
G37*
%LPC*%
G36*
X490755Y-278404D02*
X491077Y-278394D01*
X491379Y-278365D01*
X491663Y-278317D01*
X491928Y-278249D01*
X492174Y-278163D01*
X492402Y-278056D01*
X492610Y-277931D01*
X492800Y-277786D01*
X492970Y-277624D01*
X493117Y-277447D01*
X493241Y-277254D01*
X493342Y-277045D01*
X493421Y-276821D01*
X493478Y-276582D01*
X493512Y-276327D01*
X493523Y-276056D01*
X493512Y-275795D01*
X493477Y-275550D01*
X493420Y-275321D01*
X493340Y-275107D01*
X493237Y-274910D01*
X493112Y-274729D01*
X492963Y-274563D01*
X492792Y-274414D01*
X492599Y-274282D01*
X492386Y-274167D01*
X492153Y-274070D01*
X491899Y-273991D01*
X491626Y-273929D01*
X491332Y-273885D01*
X491019Y-273858D01*
X490685Y-273849D01*
X486718Y-273849D01*
X486718Y-278404D01*
X490755Y-278404D01*
G37*
%LPD*%
G36*
X500137Y-285025D02*
X499791Y-285013D01*
X499467Y-284978D01*
X499166Y-284919D01*
X498887Y-284837D01*
X498629Y-284731D01*
X498394Y-284602D01*
X498182Y-284449D01*
X497991Y-284272D01*
X497823Y-284075D01*
X497677Y-283860D01*
X497553Y-283628D01*
X497452Y-283379D01*
X497374Y-283111D01*
X497318Y-282827D01*
X497284Y-282525D01*
X497273Y-282205D01*
X497288Y-281848D01*
X497333Y-281512D01*
X497409Y-281197D01*
X497515Y-280904D01*
X497651Y-280633D01*
X497817Y-280382D01*
X498014Y-280153D01*
X498241Y-279945D01*
X498501Y-279760D01*
X498799Y-279597D01*
X499133Y-279458D01*
X499505Y-279341D01*
X499914Y-279247D01*
X500360Y-279177D01*
X500843Y-279129D01*
X501363Y-279104D01*
X503491Y-279069D01*
X503491Y-278553D01*
X503484Y-278274D01*
X503461Y-278016D01*
X503422Y-277778D01*
X503369Y-277561D01*
X503300Y-277364D01*
X503215Y-277188D01*
X503116Y-277032D01*
X503001Y-276897D01*
X502869Y-276780D01*
X502721Y-276679D01*
X502554Y-276593D01*
X502370Y-276523D01*
X502169Y-276468D01*
X501950Y-276429D01*
X501713Y-276406D01*
X501459Y-276398D01*
X500966Y-276420D01*
X500746Y-276449D01*
X500544Y-276488D01*
X500360Y-276538D01*
X500195Y-276600D01*
X500047Y-276673D01*
X499918Y-276757D01*
X499803Y-276854D01*
X499701Y-276964D01*
X499611Y-277087D01*
X499532Y-277224D01*
X499466Y-277374D01*
X499412Y-277537D01*
X499370Y-277714D01*
X499340Y-277905D01*
X497693Y-277756D01*
X497755Y-277446D01*
X497841Y-277156D01*
X497950Y-276886D01*
X498082Y-276637D01*
X498237Y-276407D01*
X498417Y-276197D01*
X498619Y-276007D01*
X498845Y-275837D01*
X499094Y-275688D01*
X499367Y-275558D01*
X499663Y-275448D01*
X499982Y-275358D01*
X500325Y-275288D01*
X500692Y-275238D01*
X501081Y-275208D01*
X501494Y-275198D01*
X501927Y-275211D01*
X502332Y-275249D01*
X502710Y-275313D01*
X503060Y-275403D01*
X503382Y-275518D01*
X503677Y-275659D01*
X503944Y-275825D01*
X504183Y-276017D01*
X504395Y-276233D01*
X504578Y-276472D01*
X504733Y-276734D01*
X504860Y-277019D01*
X504959Y-277326D01*
X505029Y-277657D01*
X505071Y-278010D01*
X505085Y-278386D01*
X505085Y-282468D01*
X505097Y-282796D01*
X505131Y-283082D01*
X505189Y-283324D01*
X505269Y-283523D01*
X505382Y-283678D01*
X505536Y-283789D01*
X505732Y-283856D01*
X505970Y-283878D01*
X506213Y-283863D01*
X506487Y-283817D01*
X506487Y-284797D01*
X506187Y-284859D01*
X505885Y-284903D01*
X505579Y-284929D01*
X505269Y-284938D01*
X505058Y-284930D01*
X504861Y-284909D01*
X504680Y-284873D01*
X504513Y-284823D01*
X504361Y-284758D01*
X504224Y-284679D01*
X504102Y-284586D01*
X503995Y-284478D01*
X503901Y-284355D01*
X503817Y-284215D01*
X503745Y-284060D01*
X503683Y-283888D01*
X503632Y-283699D01*
X503592Y-283495D01*
X503544Y-283037D01*
X503491Y-283037D01*
X503177Y-283540D01*
X503010Y-283762D01*
X502838Y-283964D01*
X502659Y-284147D01*
X502474Y-284309D01*
X502283Y-284451D01*
X502086Y-284574D01*
X501880Y-284680D01*
X501663Y-284771D01*
X501436Y-284849D01*
X501198Y-284912D01*
X500949Y-284962D01*
X500689Y-284997D01*
X500418Y-285018D01*
X500137Y-285025D01*
G37*
%LPC*%
G36*
X500496Y-283843D02*
X500710Y-283837D01*
X500917Y-283818D01*
X501315Y-283744D01*
X501688Y-283621D01*
X502037Y-283449D01*
X502357Y-283233D01*
X502641Y-282981D01*
X502889Y-282692D01*
X503102Y-282367D01*
X503272Y-282021D01*
X503394Y-281670D01*
X503467Y-281313D01*
X503491Y-280952D01*
X503491Y-280173D01*
X501766Y-280208D01*
X501243Y-280229D01*
X500788Y-280274D01*
X500400Y-280343D01*
X500080Y-280436D01*
X499810Y-280555D01*
X499573Y-280703D01*
X499370Y-280879D01*
X499200Y-281084D01*
X499066Y-281320D01*
X498970Y-281590D01*
X498912Y-281893D01*
X498893Y-282231D01*
X498900Y-282418D01*
X498919Y-282595D01*
X498952Y-282760D01*
X498997Y-282914D01*
X499056Y-283058D01*
X499127Y-283190D01*
X499212Y-283312D01*
X499309Y-283422D01*
X499419Y-283521D01*
X499539Y-283606D01*
X499671Y-283679D01*
X499814Y-283738D01*
X499968Y-283784D01*
X500133Y-283817D01*
X500309Y-283836D01*
X500496Y-283843D01*
G37*
%LPD*%
G36*
X531522Y-284850D02*
X523350Y-284850D01*
X523350Y-283738D01*
X523586Y-283240D01*
X523846Y-282773D01*
X524131Y-282336D01*
X524441Y-281929D01*
X524767Y-281546D01*
X525101Y-281182D01*
X525443Y-280837D01*
X525794Y-280510D01*
X526500Y-279898D01*
X527200Y-279332D01*
X527862Y-278789D01*
X528457Y-278246D01*
X528723Y-277971D01*
X528964Y-277690D01*
X529177Y-277402D01*
X529363Y-277107D01*
X529514Y-276800D01*
X529623Y-276472D01*
X529687Y-276125D01*
X529709Y-275759D01*
X529700Y-275512D01*
X529672Y-275279D01*
X529625Y-275061D01*
X529560Y-274857D01*
X529476Y-274667D01*
X529374Y-274491D01*
X529253Y-274329D01*
X529114Y-274182D01*
X528957Y-274051D01*
X528787Y-273937D01*
X528602Y-273841D01*
X528402Y-273762D01*
X528188Y-273700D01*
X527959Y-273657D01*
X527716Y-273630D01*
X527458Y-273622D01*
X527212Y-273630D01*
X526977Y-273656D01*
X526753Y-273699D01*
X526540Y-273758D01*
X526338Y-273835D01*
X526147Y-273929D01*
X525967Y-274041D01*
X525798Y-274169D01*
X525644Y-274313D01*
X525506Y-274470D01*
X525385Y-274642D01*
X525281Y-274827D01*
X525193Y-275026D01*
X525123Y-275239D01*
X525069Y-275466D01*
X525032Y-275706D01*
X523420Y-275557D01*
X523478Y-275197D01*
X523565Y-274855D01*
X523679Y-274532D01*
X523822Y-274228D01*
X523994Y-273943D01*
X524193Y-273677D01*
X524421Y-273430D01*
X524677Y-273201D01*
X524957Y-272996D01*
X525257Y-272818D01*
X525575Y-272667D01*
X525913Y-272544D01*
X526271Y-272448D01*
X526647Y-272380D01*
X527043Y-272339D01*
X527458Y-272325D01*
X527911Y-272339D01*
X528337Y-272380D01*
X528736Y-272449D01*
X529108Y-272545D01*
X529453Y-272669D01*
X529771Y-272820D01*
X530062Y-272999D01*
X530327Y-273206D01*
X530562Y-273437D01*
X530765Y-273692D01*
X530938Y-273970D01*
X531079Y-274271D01*
X531188Y-274595D01*
X531267Y-274942D01*
X531314Y-275313D01*
X531329Y-275706D01*
X531309Y-276065D01*
X531247Y-276422D01*
X531145Y-276778D01*
X531001Y-277134D01*
X530817Y-277488D01*
X530593Y-277843D01*
X530328Y-278198D01*
X530024Y-278553D01*
X529626Y-278956D01*
X529081Y-279457D01*
X528387Y-280055D01*
X527546Y-280751D01*
X527068Y-281153D01*
X526641Y-281534D01*
X526266Y-281895D01*
X525943Y-282236D01*
X525666Y-282563D01*
X525431Y-282885D01*
X525237Y-283200D01*
X525085Y-283510D01*
X531522Y-283510D01*
X531522Y-284850D01*
G37*
G36*
X511656Y-280786D02*
X507277Y-280786D01*
X507277Y-279385D01*
X511656Y-279385D01*
X511656Y-280786D01*
G37*
D10*
X184310Y-1081960D02*
X184310Y-1191960D01*
X146210Y-1191960D02*
X146210Y-1081960D01*
X146210Y-1191960D02*
X184310Y-1191960D01*
X146210Y-1191960D02*
X146210Y-1081960D01*
X184310Y-1081960D01*
D11*
X313100Y-1073500D02*
X313100Y-1098500D01*
X313100Y-1073500D02*
X378100Y-1073500D01*
X378100Y-1098500D01*
X313100Y-1098500D01*
X313100Y-1086000D02*
X315640Y-1086000D01*
X375560Y-1086000D02*
X378100Y-1086000D01*
X211314Y-1343540D02*
X211003Y-1344157D01*
X210676Y-1344765D01*
X210335Y-1345366D01*
X209979Y-1345958D01*
X209608Y-1346542D01*
X209224Y-1347116D01*
X208825Y-1347680D01*
X208413Y-1348234D01*
X207987Y-1348779D01*
X207548Y-1349312D01*
X207096Y-1349835D01*
X206632Y-1350346D01*
X206155Y-1350846D01*
X205666Y-1351334D01*
X205165Y-1351810D01*
X204653Y-1352274D01*
X204129Y-1352725D01*
X203595Y-1353163D01*
X203050Y-1353587D01*
X202494Y-1353998D01*
X201929Y-1354396D01*
X201354Y-1354779D01*
X200770Y-1355148D01*
X200177Y-1355503D01*
X199576Y-1355843D01*
X198966Y-1356169D01*
X198349Y-1356479D01*
X197724Y-1356774D01*
X197092Y-1357054D01*
X196454Y-1357318D01*
X195809Y-1357566D01*
X195159Y-1357799D01*
X194502Y-1358015D01*
X193841Y-1358215D01*
X193175Y-1358399D01*
X192505Y-1358567D01*
X191831Y-1358718D01*
X191153Y-1358853D01*
X190472Y-1358971D01*
X189789Y-1359072D01*
X189103Y-1359157D01*
X188415Y-1359224D01*
X187726Y-1359275D01*
X187036Y-1359309D01*
X186345Y-1359326D01*
X185655Y-1359326D01*
X184964Y-1359309D01*
X184274Y-1359275D01*
X183585Y-1359224D01*
X182897Y-1359157D01*
X182211Y-1359072D01*
X181528Y-1358971D01*
X180847Y-1358853D01*
X180169Y-1358718D01*
X179495Y-1358567D01*
X178825Y-1358399D01*
X178159Y-1358215D01*
X177498Y-1358015D01*
X176841Y-1357799D01*
X176191Y-1357566D01*
X175546Y-1357318D01*
X174908Y-1357054D01*
X174276Y-1356774D01*
X173651Y-1356479D01*
X173034Y-1356169D01*
X172424Y-1355843D01*
X171823Y-1355503D01*
X171230Y-1355148D01*
X170646Y-1354779D01*
X170071Y-1354396D01*
X169506Y-1353998D01*
X168950Y-1353587D01*
X168405Y-1353163D01*
X167871Y-1352725D01*
X167347Y-1352274D01*
X166835Y-1351810D01*
X166334Y-1351334D01*
X165845Y-1350846D01*
X165368Y-1350346D01*
X164904Y-1349835D01*
X164452Y-1349312D01*
X164013Y-1348779D01*
X163587Y-1348234D01*
X163175Y-1347680D01*
X162776Y-1347116D01*
X162392Y-1346542D01*
X162021Y-1345958D01*
X161665Y-1345366D01*
X161324Y-1344765D01*
X160997Y-1344157D01*
X160686Y-1343540D01*
X160686Y-1318460D02*
X160997Y-1317843D01*
X161324Y-1317235D01*
X161665Y-1316634D01*
X162021Y-1316042D01*
X162392Y-1315458D01*
X162776Y-1314884D01*
X163175Y-1314320D01*
X163587Y-1313766D01*
X164013Y-1313221D01*
X164452Y-1312688D01*
X164904Y-1312165D01*
X165368Y-1311654D01*
X165845Y-1311154D01*
X166334Y-1310666D01*
X166835Y-1310190D01*
X167347Y-1309726D01*
X167871Y-1309275D01*
X168405Y-1308837D01*
X168950Y-1308413D01*
X169506Y-1308002D01*
X170071Y-1307604D01*
X170646Y-1307221D01*
X171230Y-1306852D01*
X171823Y-1306497D01*
X172424Y-1306157D01*
X173034Y-1305831D01*
X173651Y-1305521D01*
X174276Y-1305226D01*
X174908Y-1304946D01*
X175546Y-1304682D01*
X176191Y-1304434D01*
X176841Y-1304201D01*
X177498Y-1303985D01*
X178159Y-1303785D01*
X178825Y-1303601D01*
X179495Y-1303433D01*
X180169Y-1303282D01*
X180847Y-1303147D01*
X181528Y-1303029D01*
X182211Y-1302928D01*
X182897Y-1302843D01*
X183585Y-1302776D01*
X184274Y-1302725D01*
X184964Y-1302691D01*
X185655Y-1302674D01*
X186345Y-1302674D01*
X187036Y-1302691D01*
X187726Y-1302725D01*
X188415Y-1302776D01*
X189103Y-1302843D01*
X189789Y-1302928D01*
X190472Y-1303029D01*
X191153Y-1303147D01*
X191831Y-1303282D01*
X192505Y-1303433D01*
X193175Y-1303601D01*
X193841Y-1303785D01*
X194502Y-1303985D01*
X195159Y-1304201D01*
X195809Y-1304434D01*
X196454Y-1304682D01*
X197092Y-1304946D01*
X197724Y-1305226D01*
X198349Y-1305521D01*
X198966Y-1305831D01*
X199576Y-1306157D01*
X200177Y-1306497D01*
X200770Y-1306852D01*
X201354Y-1307221D01*
X201929Y-1307604D01*
X202494Y-1308002D01*
X203050Y-1308413D01*
X203595Y-1308837D01*
X204129Y-1309275D01*
X204653Y-1309726D01*
X205165Y-1310190D01*
X205666Y-1310666D01*
X206155Y-1311154D01*
X206632Y-1311654D01*
X207096Y-1312165D01*
X207548Y-1312688D01*
X207987Y-1313221D01*
X208413Y-1313766D01*
X208825Y-1314320D01*
X209224Y-1314884D01*
X209608Y-1315458D01*
X209979Y-1316042D01*
X210335Y-1316634D01*
X210676Y-1317235D01*
X211003Y-1317843D01*
X211314Y-1318460D01*
X211946Y-1356946D02*
X204446Y-1356946D01*
X208196Y-1360696D02*
X208196Y-1353196D01*
X-160686Y-1318460D02*
X-160997Y-1317843D01*
X-161324Y-1317235D01*
X-161665Y-1316634D01*
X-162021Y-1316042D01*
X-162392Y-1315458D01*
X-162776Y-1314884D01*
X-163175Y-1314320D01*
X-163587Y-1313766D01*
X-164013Y-1313221D01*
X-164452Y-1312688D01*
X-164904Y-1312165D01*
X-165368Y-1311654D01*
X-165845Y-1311154D01*
X-166334Y-1310666D01*
X-166835Y-1310190D01*
X-167347Y-1309726D01*
X-167871Y-1309275D01*
X-168405Y-1308837D01*
X-168950Y-1308413D01*
X-169506Y-1308002D01*
X-170071Y-1307604D01*
X-170646Y-1307221D01*
X-171230Y-1306852D01*
X-171823Y-1306497D01*
X-172424Y-1306157D01*
X-173034Y-1305831D01*
X-173651Y-1305521D01*
X-174276Y-1305226D01*
X-174908Y-1304946D01*
X-175546Y-1304682D01*
X-176191Y-1304434D01*
X-176841Y-1304201D01*
X-177498Y-1303985D01*
X-178159Y-1303785D01*
X-178825Y-1303601D01*
X-179495Y-1303433D01*
X-180169Y-1303282D01*
X-180847Y-1303147D01*
X-181528Y-1303029D01*
X-182211Y-1302928D01*
X-182897Y-1302843D01*
X-183585Y-1302776D01*
X-184274Y-1302725D01*
X-184964Y-1302691D01*
X-185655Y-1302674D01*
X-186345Y-1302674D01*
X-187036Y-1302691D01*
X-187726Y-1302725D01*
X-188415Y-1302776D01*
X-189103Y-1302843D01*
X-189789Y-1302928D01*
X-190472Y-1303029D01*
X-191153Y-1303147D01*
X-191831Y-1303282D01*
X-192505Y-1303433D01*
X-193175Y-1303601D01*
X-193841Y-1303785D01*
X-194502Y-1303985D01*
X-195159Y-1304201D01*
X-195809Y-1304434D01*
X-196454Y-1304682D01*
X-197092Y-1304946D01*
X-197724Y-1305226D01*
X-198349Y-1305521D01*
X-198966Y-1305831D01*
X-199576Y-1306157D01*
X-200177Y-1306497D01*
X-200770Y-1306852D01*
X-201354Y-1307221D01*
X-201929Y-1307604D01*
X-202494Y-1308002D01*
X-203050Y-1308413D01*
X-203595Y-1308837D01*
X-204129Y-1309275D01*
X-204653Y-1309726D01*
X-205165Y-1310190D01*
X-205666Y-1310666D01*
X-206155Y-1311154D01*
X-206632Y-1311654D01*
X-207096Y-1312165D01*
X-207548Y-1312688D01*
X-207987Y-1313221D01*
X-208413Y-1313766D01*
X-208825Y-1314320D01*
X-209224Y-1314884D01*
X-209608Y-1315458D01*
X-209979Y-1316042D01*
X-210335Y-1316634D01*
X-210676Y-1317235D01*
X-211003Y-1317843D01*
X-211314Y-1318460D01*
X-211314Y-1343540D02*
X-211003Y-1344157D01*
X-210676Y-1344765D01*
X-210335Y-1345366D01*
X-209979Y-1345958D01*
X-209608Y-1346542D01*
X-209224Y-1347116D01*
X-208825Y-1347680D01*
X-208413Y-1348234D01*
X-207987Y-1348779D01*
X-207548Y-1349312D01*
X-207096Y-1349835D01*
X-206632Y-1350346D01*
X-206155Y-1350846D01*
X-205666Y-1351334D01*
X-205165Y-1351810D01*
X-204653Y-1352274D01*
X-204129Y-1352725D01*
X-203595Y-1353163D01*
X-203050Y-1353587D01*
X-202494Y-1353998D01*
X-201929Y-1354396D01*
X-201354Y-1354779D01*
X-200770Y-1355148D01*
X-200177Y-1355503D01*
X-199576Y-1355843D01*
X-198966Y-1356169D01*
X-198349Y-1356479D01*
X-197724Y-1356774D01*
X-197092Y-1357054D01*
X-196454Y-1357318D01*
X-195809Y-1357566D01*
X-195159Y-1357799D01*
X-194502Y-1358015D01*
X-193841Y-1358215D01*
X-193175Y-1358399D01*
X-192505Y-1358567D01*
X-191831Y-1358718D01*
X-191153Y-1358853D01*
X-190472Y-1358971D01*
X-189789Y-1359072D01*
X-189103Y-1359157D01*
X-188415Y-1359224D01*
X-187726Y-1359275D01*
X-187036Y-1359309D01*
X-186345Y-1359326D01*
X-185655Y-1359326D01*
X-184964Y-1359309D01*
X-184274Y-1359275D01*
X-183585Y-1359224D01*
X-182897Y-1359157D01*
X-182211Y-1359072D01*
X-181528Y-1358971D01*
X-180847Y-1358853D01*
X-180169Y-1358718D01*
X-179495Y-1358567D01*
X-178825Y-1358399D01*
X-178159Y-1358215D01*
X-177498Y-1358015D01*
X-176841Y-1357799D01*
X-176191Y-1357566D01*
X-175546Y-1357318D01*
X-174908Y-1357054D01*
X-174276Y-1356774D01*
X-173651Y-1356479D01*
X-173034Y-1356169D01*
X-172424Y-1355843D01*
X-171823Y-1355503D01*
X-171230Y-1355148D01*
X-170646Y-1354779D01*
X-170071Y-1354396D01*
X-169506Y-1353998D01*
X-168950Y-1353587D01*
X-168405Y-1353163D01*
X-167871Y-1352725D01*
X-167347Y-1352274D01*
X-166835Y-1351810D01*
X-166334Y-1351334D01*
X-165845Y-1350846D01*
X-165368Y-1350346D01*
X-164904Y-1349835D01*
X-164452Y-1349312D01*
X-164013Y-1348779D01*
X-163587Y-1348234D01*
X-163175Y-1347680D01*
X-162776Y-1347116D01*
X-162392Y-1346542D01*
X-162021Y-1345958D01*
X-161665Y-1345366D01*
X-161324Y-1344765D01*
X-160997Y-1344157D01*
X-160686Y-1343540D01*
X-204446Y-1305054D02*
X-211946Y-1305054D01*
X-208196Y-1301304D02*
X-208196Y-1308804D01*
D12*
X-88900Y-1211260D02*
X-88900Y-855660D01*
X88900Y-855660D02*
X88900Y-1211260D01*
X50800Y-1081720D02*
X50800Y-985200D01*
X50800Y-1081720D02*
X50798Y-1081820D01*
X50792Y-1081919D01*
X50782Y-1082019D01*
X50769Y-1082117D01*
X50751Y-1082216D01*
X50730Y-1082313D01*
X50705Y-1082409D01*
X50676Y-1082505D01*
X50643Y-1082599D01*
X50607Y-1082692D01*
X50567Y-1082783D01*
X50523Y-1082873D01*
X50476Y-1082961D01*
X50426Y-1083047D01*
X50372Y-1083131D01*
X50315Y-1083213D01*
X50255Y-1083292D01*
X50191Y-1083370D01*
X50125Y-1083444D01*
X50056Y-1083516D01*
X49984Y-1083585D01*
X49910Y-1083651D01*
X49832Y-1083715D01*
X49753Y-1083775D01*
X49671Y-1083832D01*
X49587Y-1083886D01*
X49501Y-1083936D01*
X49413Y-1083983D01*
X49323Y-1084027D01*
X49232Y-1084067D01*
X49139Y-1084103D01*
X49045Y-1084136D01*
X48949Y-1084165D01*
X48853Y-1084190D01*
X48756Y-1084211D01*
X48657Y-1084229D01*
X48559Y-1084242D01*
X48459Y-1084252D01*
X48360Y-1084258D01*
X48260Y-1084260D01*
X-48260Y-1084260D01*
X-48360Y-1084258D01*
X-48459Y-1084252D01*
X-48559Y-1084242D01*
X-48657Y-1084229D01*
X-48756Y-1084211D01*
X-48853Y-1084190D01*
X-48949Y-1084165D01*
X-49045Y-1084136D01*
X-49139Y-1084103D01*
X-49232Y-1084067D01*
X-49323Y-1084027D01*
X-49413Y-1083983D01*
X-49501Y-1083936D01*
X-49587Y-1083886D01*
X-49671Y-1083832D01*
X-49753Y-1083775D01*
X-49832Y-1083715D01*
X-49910Y-1083651D01*
X-49984Y-1083585D01*
X-50056Y-1083516D01*
X-50125Y-1083444D01*
X-50191Y-1083370D01*
X-50255Y-1083292D01*
X-50315Y-1083213D01*
X-50372Y-1083131D01*
X-50426Y-1083047D01*
X-50476Y-1082961D01*
X-50523Y-1082873D01*
X-50567Y-1082783D01*
X-50607Y-1082692D01*
X-50643Y-1082599D01*
X-50676Y-1082505D01*
X-50705Y-1082409D01*
X-50730Y-1082313D01*
X-50751Y-1082216D01*
X-50769Y-1082117D01*
X-50782Y-1082019D01*
X-50792Y-1081919D01*
X-50798Y-1081820D01*
X-50800Y-1081720D01*
X-50800Y-985200D01*
X-50798Y-985100D01*
X-50792Y-985001D01*
X-50782Y-984901D01*
X-50769Y-984803D01*
X-50751Y-984704D01*
X-50730Y-984607D01*
X-50705Y-984511D01*
X-50676Y-984415D01*
X-50643Y-984321D01*
X-50607Y-984228D01*
X-50567Y-984137D01*
X-50523Y-984047D01*
X-50476Y-983959D01*
X-50426Y-983873D01*
X-50372Y-983789D01*
X-50315Y-983707D01*
X-50255Y-983628D01*
X-50191Y-983550D01*
X-50125Y-983476D01*
X-50056Y-983404D01*
X-49984Y-983335D01*
X-49910Y-983269D01*
X-49832Y-983205D01*
X-49753Y-983145D01*
X-49671Y-983088D01*
X-49587Y-983034D01*
X-49501Y-982984D01*
X-49413Y-982937D01*
X-49323Y-982893D01*
X-49232Y-982853D01*
X-49139Y-982817D01*
X-49045Y-982784D01*
X-48949Y-982755D01*
X-48853Y-982730D01*
X-48756Y-982709D01*
X-48657Y-982691D01*
X-48559Y-982678D01*
X-48459Y-982668D01*
X-48360Y-982662D01*
X-48260Y-982660D01*
X48260Y-982660D01*
X48360Y-982662D01*
X48459Y-982668D01*
X48559Y-982678D01*
X48657Y-982691D01*
X48756Y-982709D01*
X48853Y-982730D01*
X48949Y-982755D01*
X49045Y-982784D01*
X49139Y-982817D01*
X49232Y-982853D01*
X49323Y-982893D01*
X49413Y-982937D01*
X49501Y-982984D01*
X49587Y-983034D01*
X49671Y-983088D01*
X49753Y-983145D01*
X49832Y-983205D01*
X49910Y-983269D01*
X49984Y-983335D01*
X50056Y-983404D01*
X50125Y-983476D01*
X50191Y-983550D01*
X50255Y-983628D01*
X50315Y-983707D01*
X50372Y-983789D01*
X50426Y-983873D01*
X50476Y-983959D01*
X50523Y-984047D01*
X50567Y-984137D01*
X50607Y-984228D01*
X50643Y-984321D01*
X50676Y-984415D01*
X50705Y-984511D01*
X50730Y-984607D01*
X50751Y-984704D01*
X50769Y-984803D01*
X50782Y-984901D01*
X50792Y-985001D01*
X50798Y-985100D01*
X50800Y-985200D01*
X88900Y-855660D02*
X-88900Y-855660D01*
X-38100Y-1173160D02*
X-38100Y-1192210D01*
X-38100Y-1204910D01*
X-38100Y-1211260D01*
X-38100Y-1223960D01*
X38100Y-1223960D01*
X38100Y-1211260D01*
X38100Y-1204910D01*
X38100Y-1192210D01*
X38100Y-1173160D01*
X31750Y-1173160D01*
X22225Y-1173160D01*
X19050Y-1173160D01*
X12700Y-1173160D01*
X6350Y-1173160D01*
X0Y-1173160D01*
X-6350Y-1173160D01*
X-12700Y-1173160D01*
X-19050Y-1173160D01*
X-22225Y-1173160D01*
X-31750Y-1173160D01*
X-38100Y-1173160D01*
X-38100Y-1211260D02*
X-88900Y-1211260D01*
X38100Y-1211260D02*
X88900Y-1211260D01*
D13*
X15240Y-881060D02*
X-17780Y-881060D01*
X-17880Y-881062D01*
X-17979Y-881068D01*
X-18079Y-881078D01*
X-18177Y-881091D01*
X-18276Y-881109D01*
X-18373Y-881130D01*
X-18469Y-881155D01*
X-18565Y-881184D01*
X-18659Y-881217D01*
X-18752Y-881253D01*
X-18843Y-881293D01*
X-18933Y-881337D01*
X-19021Y-881384D01*
X-19107Y-881434D01*
X-19191Y-881488D01*
X-19273Y-881545D01*
X-19352Y-881605D01*
X-19430Y-881669D01*
X-19504Y-881735D01*
X-19576Y-881804D01*
X-19645Y-881876D01*
X-19711Y-881950D01*
X-19775Y-882028D01*
X-19835Y-882107D01*
X-19892Y-882189D01*
X-19946Y-882273D01*
X-19996Y-882359D01*
X-20043Y-882447D01*
X-20087Y-882537D01*
X-20127Y-882628D01*
X-20163Y-882721D01*
X-20196Y-882815D01*
X-20225Y-882911D01*
X-20250Y-883007D01*
X-20271Y-883104D01*
X-20289Y-883203D01*
X-20302Y-883301D01*
X-20312Y-883401D01*
X-20318Y-883500D01*
X-20320Y-883600D01*
X-20320Y-929320D01*
X-20318Y-929420D01*
X-20312Y-929519D01*
X-20302Y-929619D01*
X-20289Y-929717D01*
X-20271Y-929816D01*
X-20250Y-929913D01*
X-20225Y-930009D01*
X-20196Y-930105D01*
X-20163Y-930199D01*
X-20127Y-930292D01*
X-20087Y-930383D01*
X-20043Y-930473D01*
X-19996Y-930561D01*
X-19946Y-930647D01*
X-19892Y-930731D01*
X-19835Y-930813D01*
X-19775Y-930892D01*
X-19711Y-930970D01*
X-19645Y-931044D01*
X-19576Y-931116D01*
X-19504Y-931185D01*
X-19430Y-931251D01*
X-19352Y-931315D01*
X-19273Y-931375D01*
X-19191Y-931432D01*
X-19107Y-931486D01*
X-19021Y-931536D01*
X-18933Y-931583D01*
X-18843Y-931627D01*
X-18752Y-931667D01*
X-18659Y-931703D01*
X-18565Y-931736D01*
X-18469Y-931765D01*
X-18373Y-931790D01*
X-18276Y-931811D01*
X-18177Y-931829D01*
X-18079Y-931842D01*
X-17979Y-931852D01*
X-17880Y-931858D01*
X-17780Y-931860D01*
X15240Y-931860D01*
X15340Y-931858D01*
X15439Y-931852D01*
X15539Y-931842D01*
X15637Y-931829D01*
X15736Y-931811D01*
X15833Y-931790D01*
X15929Y-931765D01*
X16025Y-931736D01*
X16119Y-931703D01*
X16212Y-931667D01*
X16303Y-931627D01*
X16393Y-931583D01*
X16481Y-931536D01*
X16567Y-931486D01*
X16651Y-931432D01*
X16733Y-931375D01*
X16812Y-931315D01*
X16890Y-931251D01*
X16964Y-931185D01*
X17036Y-931116D01*
X17105Y-931044D01*
X17171Y-930970D01*
X17235Y-930892D01*
X17295Y-930813D01*
X17352Y-930731D01*
X17406Y-930647D01*
X17456Y-930561D01*
X17503Y-930473D01*
X17547Y-930383D01*
X17587Y-930292D01*
X17623Y-930199D01*
X17656Y-930105D01*
X17685Y-930009D01*
X17710Y-929913D01*
X17731Y-929816D01*
X17749Y-929717D01*
X17762Y-929619D01*
X17772Y-929519D01*
X17778Y-929420D01*
X17780Y-929320D01*
X17780Y-883600D01*
X17778Y-883500D01*
X17772Y-883401D01*
X17762Y-883301D01*
X17749Y-883203D01*
X17731Y-883104D01*
X17710Y-883007D01*
X17685Y-882911D01*
X17656Y-882815D01*
X17623Y-882721D01*
X17587Y-882628D01*
X17547Y-882537D01*
X17503Y-882447D01*
X17456Y-882359D01*
X17406Y-882273D01*
X17352Y-882189D01*
X17295Y-882107D01*
X17235Y-882028D01*
X17171Y-881950D01*
X17105Y-881876D01*
X17036Y-881804D01*
X16964Y-881735D01*
X16890Y-881669D01*
X16812Y-881605D01*
X16733Y-881545D01*
X16651Y-881488D01*
X16567Y-881434D01*
X16481Y-881384D01*
X16393Y-881337D01*
X16303Y-881293D01*
X16212Y-881253D01*
X16119Y-881217D01*
X16025Y-881184D01*
X15929Y-881155D01*
X15833Y-881130D01*
X15736Y-881109D01*
X15637Y-881091D01*
X15539Y-881078D01*
X15439Y-881068D01*
X15340Y-881062D01*
X15240Y-881060D01*
D12*
X-1270Y-887410D02*
X-963Y-887414D01*
X-656Y-887425D01*
X-350Y-887443D01*
X-44Y-887469D01*
X261Y-887503D01*
X565Y-887543D01*
X868Y-887591D01*
X1170Y-887647D01*
X1470Y-887709D01*
X1769Y-887779D01*
X2066Y-887856D01*
X2362Y-887940D01*
X2655Y-888032D01*
X2945Y-888130D01*
X3233Y-888235D01*
X3519Y-888348D01*
X3802Y-888467D01*
X4082Y-888593D01*
X4359Y-888725D01*
X4632Y-888865D01*
X4902Y-889011D01*
X5168Y-889163D01*
X5431Y-889322D01*
X5690Y-889487D01*
X5944Y-889658D01*
X6195Y-889835D01*
X6441Y-890019D01*
X6683Y-890208D01*
X6919Y-890403D01*
X7152Y-890604D01*
X7379Y-890810D01*
X7601Y-891022D01*
X7818Y-891239D01*
X8030Y-891461D01*
X8236Y-891688D01*
X8437Y-891921D01*
X8632Y-892157D01*
X8821Y-892399D01*
X9005Y-892645D01*
X9182Y-892896D01*
X9353Y-893150D01*
X9518Y-893409D01*
X9677Y-893672D01*
X9829Y-893938D01*
X9975Y-894208D01*
X10115Y-894481D01*
X10247Y-894758D01*
X10373Y-895038D01*
X10492Y-895321D01*
X10605Y-895607D01*
X10710Y-895895D01*
X10808Y-896185D01*
X10900Y-896478D01*
X10984Y-896774D01*
X11061Y-897071D01*
X11131Y-897370D01*
X11193Y-897670D01*
X11249Y-897972D01*
X11297Y-898275D01*
X11337Y-898579D01*
X11371Y-898884D01*
X11397Y-899190D01*
X11415Y-899496D01*
X11426Y-899803D01*
X11430Y-900110D01*
X11430Y-912810D01*
X11426Y-913117D01*
X11415Y-913424D01*
X11397Y-913730D01*
X11371Y-914036D01*
X11337Y-914341D01*
X11297Y-914645D01*
X11249Y-914948D01*
X11193Y-915250D01*
X11131Y-915550D01*
X11061Y-915849D01*
X10984Y-916146D01*
X10900Y-916442D01*
X10808Y-916735D01*
X10710Y-917025D01*
X10605Y-917313D01*
X10492Y-917599D01*
X10373Y-917882D01*
X10247Y-918162D01*
X10115Y-918439D01*
X9975Y-918712D01*
X9829Y-918982D01*
X9677Y-919248D01*
X9518Y-919511D01*
X9353Y-919770D01*
X9182Y-920024D01*
X9005Y-920275D01*
X8821Y-920521D01*
X8632Y-920763D01*
X8437Y-920999D01*
X8236Y-921232D01*
X8030Y-921459D01*
X7818Y-921681D01*
X7601Y-921898D01*
X7379Y-922110D01*
X7152Y-922316D01*
X6919Y-922517D01*
X6683Y-922712D01*
X6441Y-922901D01*
X6195Y-923085D01*
X5944Y-923262D01*
X5690Y-923433D01*
X5431Y-923598D01*
X5168Y-923757D01*
X4902Y-923909D01*
X4632Y-924055D01*
X4359Y-924195D01*
X4082Y-924327D01*
X3802Y-924453D01*
X3519Y-924572D01*
X3233Y-924685D01*
X2945Y-924790D01*
X2655Y-924888D01*
X2362Y-924980D01*
X2066Y-925064D01*
X1769Y-925141D01*
X1470Y-925211D01*
X1170Y-925273D01*
X868Y-925329D01*
X565Y-925377D01*
X261Y-925417D01*
X-44Y-925451D01*
X-350Y-925477D01*
X-656Y-925495D01*
X-963Y-925506D01*
X-1270Y-925510D01*
X-1577Y-925506D01*
X-1884Y-925495D01*
X-2190Y-925477D01*
X-2496Y-925451D01*
X-2801Y-925417D01*
X-3105Y-925377D01*
X-3408Y-925329D01*
X-3710Y-925273D01*
X-4010Y-925211D01*
X-4309Y-925141D01*
X-4606Y-925064D01*
X-4902Y-924980D01*
X-5195Y-924888D01*
X-5485Y-924790D01*
X-5773Y-924685D01*
X-6059Y-924572D01*
X-6342Y-924453D01*
X-6622Y-924327D01*
X-6899Y-924195D01*
X-7172Y-924055D01*
X-7442Y-923909D01*
X-7708Y-923757D01*
X-7971Y-923598D01*
X-8230Y-923433D01*
X-8484Y-923262D01*
X-8735Y-923085D01*
X-8981Y-922901D01*
X-9223Y-922712D01*
X-9459Y-922517D01*
X-9692Y-922316D01*
X-9919Y-922110D01*
X-10141Y-921898D01*
X-10358Y-921681D01*
X-10570Y-921459D01*
X-10776Y-921232D01*
X-10977Y-920999D01*
X-11172Y-920763D01*
X-11361Y-920521D01*
X-11545Y-920275D01*
X-11722Y-920024D01*
X-11893Y-919770D01*
X-12058Y-919511D01*
X-12217Y-919248D01*
X-12369Y-918982D01*
X-12515Y-918712D01*
X-12655Y-918439D01*
X-12787Y-918162D01*
X-12913Y-917882D01*
X-13032Y-917599D01*
X-13145Y-917313D01*
X-13250Y-917025D01*
X-13348Y-916735D01*
X-13440Y-916442D01*
X-13524Y-916146D01*
X-13601Y-915849D01*
X-13671Y-915550D01*
X-13733Y-915250D01*
X-13789Y-914948D01*
X-13837Y-914645D01*
X-13877Y-914341D01*
X-13911Y-914036D01*
X-13937Y-913730D01*
X-13955Y-913424D01*
X-13966Y-913117D01*
X-13970Y-912810D01*
X-13970Y-900110D01*
X-13966Y-899803D01*
X-13955Y-899496D01*
X-13937Y-899190D01*
X-13911Y-898884D01*
X-13877Y-898579D01*
X-13837Y-898275D01*
X-13789Y-897972D01*
X-13733Y-897670D01*
X-13671Y-897370D01*
X-13601Y-897071D01*
X-13524Y-896774D01*
X-13440Y-896478D01*
X-13348Y-896185D01*
X-13250Y-895895D01*
X-13145Y-895607D01*
X-13032Y-895321D01*
X-12913Y-895038D01*
X-12787Y-894758D01*
X-12655Y-894481D01*
X-12515Y-894208D01*
X-12369Y-893938D01*
X-12217Y-893672D01*
X-12058Y-893409D01*
X-11893Y-893150D01*
X-11722Y-892896D01*
X-11545Y-892645D01*
X-11361Y-892399D01*
X-11172Y-892157D01*
X-10977Y-891921D01*
X-10776Y-891688D01*
X-10570Y-891461D01*
X-10358Y-891239D01*
X-10141Y-891022D01*
X-9919Y-890810D01*
X-9692Y-890604D01*
X-9459Y-890403D01*
X-9223Y-890208D01*
X-8981Y-890019D01*
X-8735Y-889835D01*
X-8484Y-889658D01*
X-8230Y-889487D01*
X-7971Y-889322D01*
X-7708Y-889163D01*
X-7442Y-889011D01*
X-7172Y-888865D01*
X-6899Y-888725D01*
X-6622Y-888593D01*
X-6342Y-888467D01*
X-6059Y-888348D01*
X-5773Y-888235D01*
X-5485Y-888130D01*
X-5195Y-888032D01*
X-4902Y-887940D01*
X-4606Y-887856D01*
X-4309Y-887779D01*
X-4010Y-887709D01*
X-3710Y-887647D01*
X-3408Y-887591D01*
X-3105Y-887543D01*
X-2801Y-887503D01*
X-2496Y-887469D01*
X-2190Y-887443D01*
X-1884Y-887425D01*
X-1577Y-887414D01*
X-1270Y-887410D01*
D13*
X0Y-1160460D02*
X0Y-1173160D01*
X-6350Y-1173160D02*
X-6350Y-1160460D01*
X-12700Y-1160460D02*
X-12700Y-1173160D01*
X6350Y-1173160D02*
X6350Y-1160460D01*
X12700Y-1160460D02*
X12700Y-1173160D01*
X-19050Y-1173160D02*
X-19050Y-1160460D01*
X-31750Y-1160460D01*
X-31750Y-1173160D01*
X19050Y-1173160D02*
X19050Y-1160460D01*
X31750Y-1160460D01*
X31750Y-1173160D01*
X-38100Y-1204910D02*
X-50800Y-1204910D01*
X-50800Y-1192210D01*
X-38100Y-1192210D01*
X38100Y-1204910D02*
X50800Y-1204910D01*
X50800Y-1192210D01*
X38100Y-1192210D01*
X-31750Y-1201735D02*
X-31750Y-1217610D01*
X-31750Y-1201735D02*
X-31748Y-1201624D01*
X-31742Y-1201514D01*
X-31733Y-1201403D01*
X-31719Y-1201293D01*
X-31702Y-1201184D01*
X-31681Y-1201075D01*
X-31656Y-1200967D01*
X-31627Y-1200860D01*
X-31595Y-1200754D01*
X-31559Y-1200649D01*
X-31519Y-1200546D01*
X-31476Y-1200444D01*
X-31429Y-1200343D01*
X-31378Y-1200244D01*
X-31325Y-1200148D01*
X-31268Y-1200053D01*
X-31207Y-1199960D01*
X-31144Y-1199869D01*
X-31077Y-1199780D01*
X-31007Y-1199694D01*
X-30934Y-1199611D01*
X-30859Y-1199529D01*
X-30781Y-1199451D01*
X-30699Y-1199376D01*
X-30616Y-1199303D01*
X-30530Y-1199233D01*
X-30441Y-1199166D01*
X-30350Y-1199103D01*
X-30257Y-1199042D01*
X-30163Y-1198985D01*
X-30066Y-1198932D01*
X-29967Y-1198881D01*
X-29866Y-1198834D01*
X-29764Y-1198791D01*
X-29661Y-1198751D01*
X-29556Y-1198715D01*
X-29450Y-1198683D01*
X-29343Y-1198654D01*
X-29235Y-1198629D01*
X-29126Y-1198608D01*
X-29017Y-1198591D01*
X-28907Y-1198577D01*
X-28796Y-1198568D01*
X-28686Y-1198562D01*
X-28575Y-1198560D01*
X-22225Y-1198560D01*
X-22114Y-1198562D01*
X-22004Y-1198568D01*
X-21893Y-1198577D01*
X-21783Y-1198591D01*
X-21674Y-1198608D01*
X-21565Y-1198629D01*
X-21457Y-1198654D01*
X-21350Y-1198683D01*
X-21244Y-1198715D01*
X-21139Y-1198751D01*
X-21036Y-1198791D01*
X-20934Y-1198834D01*
X-20833Y-1198881D01*
X-20734Y-1198932D01*
X-20638Y-1198985D01*
X-20543Y-1199042D01*
X-20450Y-1199103D01*
X-20359Y-1199166D01*
X-20270Y-1199233D01*
X-20184Y-1199303D01*
X-20101Y-1199376D01*
X-20019Y-1199451D01*
X-19941Y-1199529D01*
X-19866Y-1199611D01*
X-19793Y-1199694D01*
X-19723Y-1199780D01*
X-19656Y-1199869D01*
X-19593Y-1199960D01*
X-19532Y-1200053D01*
X-19475Y-1200148D01*
X-19422Y-1200244D01*
X-19371Y-1200343D01*
X-19324Y-1200444D01*
X-19281Y-1200546D01*
X-19241Y-1200649D01*
X-19205Y-1200754D01*
X-19173Y-1200860D01*
X-19144Y-1200967D01*
X-19119Y-1201075D01*
X-19098Y-1201184D01*
X-19081Y-1201293D01*
X-19067Y-1201403D01*
X-19058Y-1201514D01*
X-19052Y-1201624D01*
X-19050Y-1201735D01*
X-19050Y-1217610D01*
X31750Y-1217610D02*
X31750Y-1201735D01*
X31748Y-1201624D01*
X31742Y-1201514D01*
X31733Y-1201403D01*
X31719Y-1201293D01*
X31702Y-1201184D01*
X31681Y-1201075D01*
X31656Y-1200967D01*
X31627Y-1200860D01*
X31595Y-1200754D01*
X31559Y-1200649D01*
X31519Y-1200546D01*
X31476Y-1200444D01*
X31429Y-1200343D01*
X31378Y-1200244D01*
X31325Y-1200148D01*
X31268Y-1200053D01*
X31207Y-1199960D01*
X31144Y-1199869D01*
X31077Y-1199780D01*
X31007Y-1199694D01*
X30934Y-1199611D01*
X30859Y-1199529D01*
X30781Y-1199451D01*
X30699Y-1199376D01*
X30616Y-1199303D01*
X30530Y-1199233D01*
X30441Y-1199166D01*
X30350Y-1199103D01*
X30257Y-1199042D01*
X30163Y-1198985D01*
X30066Y-1198932D01*
X29967Y-1198881D01*
X29866Y-1198834D01*
X29764Y-1198791D01*
X29661Y-1198751D01*
X29556Y-1198715D01*
X29450Y-1198683D01*
X29343Y-1198654D01*
X29235Y-1198629D01*
X29126Y-1198608D01*
X29017Y-1198591D01*
X28907Y-1198577D01*
X28796Y-1198568D01*
X28686Y-1198562D01*
X28575Y-1198560D01*
X22225Y-1198560D01*
X22114Y-1198562D01*
X22004Y-1198568D01*
X21893Y-1198577D01*
X21783Y-1198591D01*
X21674Y-1198608D01*
X21565Y-1198629D01*
X21457Y-1198654D01*
X21350Y-1198683D01*
X21244Y-1198715D01*
X21139Y-1198751D01*
X21036Y-1198791D01*
X20934Y-1198834D01*
X20833Y-1198881D01*
X20734Y-1198932D01*
X20638Y-1198985D01*
X20543Y-1199042D01*
X20450Y-1199103D01*
X20359Y-1199166D01*
X20270Y-1199233D01*
X20184Y-1199303D01*
X20101Y-1199376D01*
X20019Y-1199451D01*
X19941Y-1199529D01*
X19866Y-1199611D01*
X19793Y-1199694D01*
X19723Y-1199780D01*
X19656Y-1199869D01*
X19593Y-1199960D01*
X19532Y-1200053D01*
X19475Y-1200148D01*
X19422Y-1200244D01*
X19371Y-1200343D01*
X19324Y-1200444D01*
X19281Y-1200546D01*
X19241Y-1200649D01*
X19205Y-1200754D01*
X19173Y-1200860D01*
X19144Y-1200967D01*
X19119Y-1201075D01*
X19098Y-1201184D01*
X19081Y-1201293D01*
X19067Y-1201403D01*
X19058Y-1201514D01*
X19052Y-1201624D01*
X19050Y-1201735D01*
X19050Y-1217610D01*
X-19050Y-1217610D02*
X-31750Y-1217610D01*
X19050Y-1217610D02*
X31750Y-1217610D01*
X-19050Y-1116010D02*
X-19050Y-1112200D01*
X-19052Y-1112100D01*
X-19058Y-1112001D01*
X-19068Y-1111901D01*
X-19081Y-1111803D01*
X-19099Y-1111704D01*
X-19120Y-1111607D01*
X-19145Y-1111511D01*
X-19174Y-1111415D01*
X-19207Y-1111321D01*
X-19243Y-1111228D01*
X-19283Y-1111137D01*
X-19327Y-1111047D01*
X-19374Y-1110959D01*
X-19424Y-1110873D01*
X-19478Y-1110789D01*
X-19535Y-1110707D01*
X-19595Y-1110628D01*
X-19659Y-1110550D01*
X-19725Y-1110476D01*
X-19794Y-1110404D01*
X-19866Y-1110335D01*
X-19940Y-1110269D01*
X-20018Y-1110205D01*
X-20097Y-1110145D01*
X-20179Y-1110088D01*
X-20263Y-1110034D01*
X-20349Y-1109984D01*
X-20437Y-1109937D01*
X-20527Y-1109893D01*
X-20618Y-1109853D01*
X-20711Y-1109817D01*
X-20805Y-1109784D01*
X-20901Y-1109755D01*
X-20997Y-1109730D01*
X-21094Y-1109709D01*
X-21193Y-1109691D01*
X-21291Y-1109678D01*
X-21391Y-1109668D01*
X-21490Y-1109662D01*
X-21590Y-1109660D01*
X-25400Y-1109660D01*
X-31750Y-1109660D01*
X-38100Y-1109660D01*
X-44450Y-1109660D01*
X-48260Y-1109660D01*
X-48360Y-1109662D01*
X-48459Y-1109668D01*
X-48559Y-1109678D01*
X-48657Y-1109691D01*
X-48756Y-1109709D01*
X-48853Y-1109730D01*
X-48949Y-1109755D01*
X-49045Y-1109784D01*
X-49139Y-1109817D01*
X-49232Y-1109853D01*
X-49323Y-1109893D01*
X-49413Y-1109937D01*
X-49501Y-1109984D01*
X-49587Y-1110034D01*
X-49671Y-1110088D01*
X-49753Y-1110145D01*
X-49832Y-1110205D01*
X-49910Y-1110269D01*
X-49984Y-1110335D01*
X-50056Y-1110404D01*
X-50125Y-1110476D01*
X-50191Y-1110550D01*
X-50255Y-1110628D01*
X-50315Y-1110707D01*
X-50372Y-1110789D01*
X-50426Y-1110873D01*
X-50476Y-1110959D01*
X-50523Y-1111047D01*
X-50567Y-1111137D01*
X-50607Y-1111228D01*
X-50643Y-1111321D01*
X-50676Y-1111415D01*
X-50705Y-1111511D01*
X-50730Y-1111607D01*
X-50751Y-1111704D01*
X-50769Y-1111803D01*
X-50782Y-1111901D01*
X-50792Y-1112001D01*
X-50798Y-1112100D01*
X-50800Y-1112200D01*
X-50800Y-1116010D01*
X-50800Y-1122360D01*
X-50800Y-1128710D01*
X-50800Y-1135060D01*
X-50800Y-1138870D01*
X-50798Y-1138970D01*
X-50792Y-1139069D01*
X-50782Y-1139169D01*
X-50769Y-1139267D01*
X-50751Y-1139366D01*
X-50730Y-1139463D01*
X-50705Y-1139559D01*
X-50676Y-1139655D01*
X-50643Y-1139749D01*
X-50607Y-1139842D01*
X-50567Y-1139933D01*
X-50523Y-1140023D01*
X-50476Y-1140111D01*
X-50426Y-1140197D01*
X-50372Y-1140281D01*
X-50315Y-1140363D01*
X-50255Y-1140442D01*
X-50191Y-1140520D01*
X-50125Y-1140594D01*
X-50056Y-1140666D01*
X-49984Y-1140735D01*
X-49910Y-1140801D01*
X-49832Y-1140865D01*
X-49753Y-1140925D01*
X-49671Y-1140982D01*
X-49587Y-1141036D01*
X-49501Y-1141086D01*
X-49413Y-1141133D01*
X-49323Y-1141177D01*
X-49232Y-1141217D01*
X-49139Y-1141253D01*
X-49045Y-1141286D01*
X-48949Y-1141315D01*
X-48853Y-1141340D01*
X-48756Y-1141361D01*
X-48657Y-1141379D01*
X-48559Y-1141392D01*
X-48459Y-1141402D01*
X-48360Y-1141408D01*
X-48260Y-1141410D01*
X-44450Y-1141410D01*
X-38100Y-1141410D01*
X-31750Y-1141410D01*
X-25400Y-1141410D01*
X-21590Y-1141410D01*
X-21490Y-1141408D01*
X-21391Y-1141402D01*
X-21291Y-1141392D01*
X-21193Y-1141379D01*
X-21094Y-1141361D01*
X-20997Y-1141340D01*
X-20901Y-1141315D01*
X-20805Y-1141286D01*
X-20711Y-1141253D01*
X-20618Y-1141217D01*
X-20527Y-1141177D01*
X-20437Y-1141133D01*
X-20349Y-1141086D01*
X-20263Y-1141036D01*
X-20179Y-1140982D01*
X-20097Y-1140925D01*
X-20018Y-1140865D01*
X-19940Y-1140801D01*
X-19866Y-1140735D01*
X-19794Y-1140666D01*
X-19725Y-1140594D01*
X-19659Y-1140520D01*
X-19595Y-1140442D01*
X-19535Y-1140363D01*
X-19478Y-1140281D01*
X-19424Y-1140197D01*
X-19374Y-1140111D01*
X-19327Y-1140023D01*
X-19283Y-1139933D01*
X-19243Y-1139842D01*
X-19207Y-1139749D01*
X-19174Y-1139655D01*
X-19145Y-1139559D01*
X-19120Y-1139463D01*
X-19099Y-1139366D01*
X-19081Y-1139267D01*
X-19068Y-1139169D01*
X-19058Y-1139069D01*
X-19052Y-1138970D01*
X-19050Y-1138870D01*
X-19050Y-1135060D01*
X-19050Y-1128710D01*
X-19050Y-1122360D01*
X-19050Y-1116010D01*
X22860Y-976310D02*
X48260Y-976310D01*
X48360Y-976308D01*
X48459Y-976302D01*
X48559Y-976292D01*
X48657Y-976279D01*
X48756Y-976261D01*
X48853Y-976240D01*
X48949Y-976215D01*
X49045Y-976186D01*
X49139Y-976153D01*
X49232Y-976117D01*
X49323Y-976077D01*
X49413Y-976033D01*
X49501Y-975986D01*
X49587Y-975936D01*
X49671Y-975882D01*
X49753Y-975825D01*
X49832Y-975765D01*
X49910Y-975701D01*
X49984Y-975635D01*
X50056Y-975566D01*
X50125Y-975494D01*
X50191Y-975420D01*
X50255Y-975342D01*
X50315Y-975263D01*
X50372Y-975181D01*
X50426Y-975097D01*
X50476Y-975011D01*
X50523Y-974923D01*
X50567Y-974833D01*
X50607Y-974742D01*
X50643Y-974649D01*
X50676Y-974555D01*
X50705Y-974459D01*
X50730Y-974363D01*
X50751Y-974266D01*
X50769Y-974167D01*
X50782Y-974069D01*
X50792Y-973969D01*
X50798Y-973870D01*
X50800Y-973770D01*
X50800Y-955990D01*
X50798Y-955890D01*
X50792Y-955791D01*
X50782Y-955691D01*
X50769Y-955593D01*
X50751Y-955494D01*
X50730Y-955397D01*
X50705Y-955301D01*
X50676Y-955205D01*
X50643Y-955111D01*
X50607Y-955018D01*
X50567Y-954927D01*
X50523Y-954837D01*
X50476Y-954749D01*
X50426Y-954663D01*
X50372Y-954579D01*
X50315Y-954497D01*
X50255Y-954418D01*
X50191Y-954340D01*
X50125Y-954266D01*
X50056Y-954194D01*
X49984Y-954125D01*
X49910Y-954059D01*
X49832Y-953995D01*
X49753Y-953935D01*
X49671Y-953878D01*
X49587Y-953824D01*
X49501Y-953774D01*
X49413Y-953727D01*
X49323Y-953683D01*
X49232Y-953643D01*
X49139Y-953607D01*
X49045Y-953574D01*
X48949Y-953545D01*
X48853Y-953520D01*
X48756Y-953499D01*
X48657Y-953481D01*
X48559Y-953468D01*
X48459Y-953458D01*
X48360Y-953452D01*
X48260Y-953450D01*
X22860Y-953450D01*
X22760Y-953452D01*
X22661Y-953458D01*
X22561Y-953468D01*
X22463Y-953481D01*
X22364Y-953499D01*
X22267Y-953520D01*
X22171Y-953545D01*
X22075Y-953574D01*
X21981Y-953607D01*
X21888Y-953643D01*
X21797Y-953683D01*
X21707Y-953727D01*
X21619Y-953774D01*
X21533Y-953824D01*
X21449Y-953878D01*
X21367Y-953935D01*
X21288Y-953995D01*
X21210Y-954059D01*
X21136Y-954125D01*
X21064Y-954194D01*
X20995Y-954266D01*
X20929Y-954340D01*
X20865Y-954418D01*
X20805Y-954497D01*
X20748Y-954579D01*
X20694Y-954663D01*
X20644Y-954749D01*
X20597Y-954837D01*
X20553Y-954927D01*
X20513Y-955018D01*
X20477Y-955111D01*
X20444Y-955205D01*
X20415Y-955301D01*
X20390Y-955397D01*
X20369Y-955494D01*
X20351Y-955593D01*
X20338Y-955691D01*
X20328Y-955791D01*
X20322Y-955890D01*
X20320Y-955990D01*
X20320Y-973770D01*
X20322Y-973870D01*
X20328Y-973969D01*
X20338Y-974069D01*
X20351Y-974167D01*
X20369Y-974266D01*
X20390Y-974363D01*
X20415Y-974459D01*
X20444Y-974555D01*
X20477Y-974649D01*
X20513Y-974742D01*
X20553Y-974833D01*
X20597Y-974923D01*
X20644Y-975011D01*
X20694Y-975097D01*
X20748Y-975181D01*
X20805Y-975263D01*
X20865Y-975342D01*
X20929Y-975420D01*
X20995Y-975494D01*
X21064Y-975566D01*
X21136Y-975635D01*
X21210Y-975701D01*
X21288Y-975765D01*
X21367Y-975825D01*
X21449Y-975882D01*
X21533Y-975936D01*
X21619Y-975986D01*
X21707Y-976033D01*
X21797Y-976077D01*
X21888Y-976117D01*
X21981Y-976153D01*
X22075Y-976186D01*
X22171Y-976215D01*
X22267Y-976240D01*
X22364Y-976261D01*
X22463Y-976279D01*
X22561Y-976292D01*
X22661Y-976302D01*
X22760Y-976308D01*
X22860Y-976310D01*
X-38100Y-1106485D02*
X-38100Y-1109660D01*
X-31750Y-1109660D02*
X-31750Y-1106485D01*
X-25400Y-1106485D02*
X-25400Y-1109660D01*
X-44450Y-1109660D02*
X-44450Y-1106485D01*
X-50800Y-1116010D02*
X-53975Y-1116010D01*
X-53975Y-1122360D02*
X-50800Y-1122360D01*
X-50800Y-1128710D02*
X-53975Y-1128710D01*
X-53975Y-1135060D02*
X-50800Y-1135060D01*
X-44450Y-1141410D02*
X-44450Y-1144585D01*
X-38100Y-1144585D02*
X-38100Y-1141410D01*
X-31750Y-1141410D02*
X-31750Y-1144585D01*
X-25400Y-1144585D02*
X-25400Y-1141410D01*
X-19050Y-1116010D02*
X-15875Y-1116010D01*
X-15875Y-1122360D02*
X-19050Y-1122360D01*
X-19050Y-1128710D02*
X-15875Y-1128710D01*
X-15875Y-1135060D02*
X-19050Y-1135060D01*
X-12700Y-1173160D02*
X-12700Y-1185860D01*
X-31750Y-1185860D01*
X-31750Y-1181209D01*
X-31748Y-1181098D01*
X-31742Y-1180986D01*
X-31732Y-1180875D01*
X-31719Y-1180765D01*
X-31701Y-1180655D01*
X-31680Y-1180545D01*
X-31655Y-1180437D01*
X-31626Y-1180329D01*
X-31593Y-1180223D01*
X-31556Y-1180117D01*
X-31516Y-1180013D01*
X-31473Y-1179911D01*
X-31425Y-1179810D01*
X-31374Y-1179711D01*
X-31320Y-1179614D01*
X-31262Y-1179518D01*
X-31201Y-1179425D01*
X-31137Y-1179334D01*
X-31070Y-1179245D01*
X-30999Y-1179159D01*
X-30926Y-1179075D01*
X-30850Y-1178994D01*
X-30770Y-1178915D01*
X-30689Y-1178840D01*
X-30604Y-1178767D01*
X-30517Y-1178697D01*
X-30428Y-1178631D01*
X-30336Y-1178567D01*
X-22225Y-1173160D01*
X12700Y-1173160D02*
X12700Y-1185860D01*
X31750Y-1185860D01*
X31750Y-1181209D01*
X31748Y-1181098D01*
X31742Y-1180986D01*
X31732Y-1180875D01*
X31719Y-1180765D01*
X31701Y-1180655D01*
X31680Y-1180545D01*
X31655Y-1180437D01*
X31626Y-1180329D01*
X31593Y-1180223D01*
X31556Y-1180117D01*
X31516Y-1180013D01*
X31473Y-1179911D01*
X31425Y-1179810D01*
X31374Y-1179711D01*
X31320Y-1179614D01*
X31262Y-1179518D01*
X31201Y-1179425D01*
X31137Y-1179334D01*
X31070Y-1179245D01*
X30999Y-1179159D01*
X30926Y-1179075D01*
X30850Y-1178994D01*
X30770Y-1178915D01*
X30689Y-1178840D01*
X30604Y-1178767D01*
X30517Y-1178697D01*
X30428Y-1178631D01*
X30336Y-1178567D01*
X22225Y-1173160D01*
X-29210Y-971230D02*
X-49530Y-971230D01*
X-29210Y-971230D02*
X-29110Y-971228D01*
X-29011Y-971222D01*
X-28911Y-971212D01*
X-28813Y-971199D01*
X-28714Y-971181D01*
X-28617Y-971160D01*
X-28521Y-971135D01*
X-28425Y-971106D01*
X-28331Y-971073D01*
X-28238Y-971037D01*
X-28147Y-970997D01*
X-28057Y-970953D01*
X-27969Y-970906D01*
X-27883Y-970856D01*
X-27799Y-970802D01*
X-27717Y-970745D01*
X-27638Y-970685D01*
X-27560Y-970621D01*
X-27486Y-970555D01*
X-27414Y-970486D01*
X-27345Y-970414D01*
X-27279Y-970340D01*
X-27215Y-970262D01*
X-27155Y-970183D01*
X-27098Y-970101D01*
X-27044Y-970017D01*
X-26994Y-969931D01*
X-26947Y-969843D01*
X-26903Y-969753D01*
X-26863Y-969662D01*
X-26827Y-969569D01*
X-26794Y-969475D01*
X-26765Y-969379D01*
X-26740Y-969283D01*
X-26719Y-969186D01*
X-26701Y-969087D01*
X-26688Y-968989D01*
X-26678Y-968889D01*
X-26672Y-968790D01*
X-26670Y-968690D01*
X-26670Y-949640D01*
X-26644Y-949556D01*
X-26622Y-949472D01*
X-26603Y-949386D01*
X-26589Y-949300D01*
X-26578Y-949213D01*
X-26571Y-949125D01*
X-26567Y-949038D01*
X-26568Y-948950D01*
X-26572Y-948863D01*
X-26580Y-948775D01*
X-26592Y-948689D01*
X-26608Y-948602D01*
X-26627Y-948517D01*
X-26650Y-948433D01*
X-26677Y-948349D01*
X-26708Y-948267D01*
X-26742Y-948186D01*
X-26779Y-948107D01*
X-26820Y-948030D01*
X-26864Y-947954D01*
X-26912Y-947880D01*
X-26962Y-947809D01*
X-27016Y-947740D01*
X-27073Y-947673D01*
X-27132Y-947608D01*
X-27194Y-947547D01*
X-27259Y-947488D01*
X-27327Y-947432D01*
X-27397Y-947379D01*
X-27469Y-947329D01*
X-27543Y-947283D01*
X-27619Y-947239D01*
X-27697Y-947199D01*
X-27776Y-947163D01*
X-27858Y-947130D01*
X-27940Y-947100D01*
X-48260Y-947100D01*
X-48371Y-947080D01*
X-48483Y-947063D01*
X-48595Y-947051D01*
X-48708Y-947042D01*
X-48821Y-947038D01*
X-48934Y-947037D01*
X-49047Y-947041D01*
X-49160Y-947048D01*
X-49272Y-947059D01*
X-49384Y-947074D01*
X-49496Y-947093D01*
X-49606Y-947116D01*
X-49716Y-947143D01*
X-49825Y-947173D01*
X-49933Y-947208D01*
X-50039Y-947246D01*
X-50144Y-947288D01*
X-50248Y-947333D01*
X-50349Y-947382D01*
X-50449Y-947435D01*
X-50548Y-947491D01*
X-50644Y-947550D01*
X-50738Y-947613D01*
X-50830Y-947679D01*
X-50919Y-947748D01*
X-51006Y-947820D01*
X-51090Y-947895D01*
X-51172Y-947973D01*
X-51251Y-948054D01*
X-51327Y-948137D01*
X-51400Y-948224D01*
X-51470Y-948312D01*
X-51537Y-948403D01*
X-51601Y-948497D01*
X-51661Y-948592D01*
X-51718Y-948690D01*
X-51772Y-948789D01*
X-51822Y-948891D01*
X-51869Y-948994D01*
X-51912Y-949098D01*
X-51951Y-949204D01*
X-51986Y-949312D01*
X-52018Y-949420D01*
X-52046Y-949530D01*
X-52070Y-949640D01*
X-52070Y-968690D01*
X-52068Y-968790D01*
X-52062Y-968889D01*
X-52052Y-968989D01*
X-52039Y-969087D01*
X-52021Y-969186D01*
X-52000Y-969283D01*
X-51975Y-969379D01*
X-51946Y-969475D01*
X-51913Y-969569D01*
X-51877Y-969662D01*
X-51837Y-969753D01*
X-51793Y-969843D01*
X-51746Y-969931D01*
X-51696Y-970017D01*
X-51642Y-970101D01*
X-51585Y-970183D01*
X-51525Y-970262D01*
X-51461Y-970340D01*
X-51395Y-970414D01*
X-51326Y-970486D01*
X-51254Y-970555D01*
X-51180Y-970621D01*
X-51102Y-970685D01*
X-51023Y-970745D01*
X-50941Y-970802D01*
X-50857Y-970856D01*
X-50771Y-970906D01*
X-50683Y-970953D01*
X-50593Y-970997D01*
X-50502Y-971037D01*
X-50409Y-971073D01*
X-50315Y-971106D01*
X-50219Y-971135D01*
X-50123Y-971160D01*
X-50026Y-971181D01*
X-49927Y-971199D01*
X-49829Y-971212D01*
X-49729Y-971222D01*
X-49630Y-971228D01*
X-49530Y-971230D01*
X41910Y-1163000D02*
X54610Y-1163000D01*
X54710Y-1162998D01*
X54809Y-1162992D01*
X54909Y-1162982D01*
X55007Y-1162969D01*
X55106Y-1162951D01*
X55203Y-1162930D01*
X55299Y-1162905D01*
X55395Y-1162876D01*
X55489Y-1162843D01*
X55582Y-1162807D01*
X55673Y-1162767D01*
X55763Y-1162723D01*
X55851Y-1162676D01*
X55937Y-1162626D01*
X56021Y-1162572D01*
X56103Y-1162515D01*
X56182Y-1162455D01*
X56260Y-1162391D01*
X56334Y-1162325D01*
X56406Y-1162256D01*
X56475Y-1162184D01*
X56541Y-1162110D01*
X56605Y-1162032D01*
X56665Y-1161953D01*
X56722Y-1161871D01*
X56776Y-1161787D01*
X56826Y-1161701D01*
X56873Y-1161613D01*
X56917Y-1161523D01*
X56957Y-1161432D01*
X56993Y-1161339D01*
X57026Y-1161245D01*
X57055Y-1161149D01*
X57080Y-1161053D01*
X57101Y-1160956D01*
X57119Y-1160857D01*
X57132Y-1160759D01*
X57142Y-1160659D01*
X57148Y-1160560D01*
X57150Y-1160460D01*
X57150Y-1146490D01*
X57148Y-1146390D01*
X57142Y-1146291D01*
X57132Y-1146191D01*
X57119Y-1146093D01*
X57101Y-1145994D01*
X57080Y-1145897D01*
X57055Y-1145801D01*
X57026Y-1145705D01*
X56993Y-1145611D01*
X56957Y-1145518D01*
X56917Y-1145427D01*
X56873Y-1145337D01*
X56826Y-1145249D01*
X56776Y-1145163D01*
X56722Y-1145079D01*
X56665Y-1144997D01*
X56605Y-1144918D01*
X56541Y-1144840D01*
X56475Y-1144766D01*
X56406Y-1144694D01*
X56334Y-1144625D01*
X56260Y-1144559D01*
X56182Y-1144495D01*
X56103Y-1144435D01*
X56021Y-1144378D01*
X55937Y-1144324D01*
X55851Y-1144274D01*
X55763Y-1144227D01*
X55673Y-1144183D01*
X55582Y-1144143D01*
X55489Y-1144107D01*
X55395Y-1144074D01*
X55299Y-1144045D01*
X55203Y-1144020D01*
X55106Y-1143999D01*
X55007Y-1143981D01*
X54909Y-1143968D01*
X54809Y-1143958D01*
X54710Y-1143952D01*
X54610Y-1143950D01*
X41910Y-1143950D01*
X41810Y-1143952D01*
X41711Y-1143958D01*
X41611Y-1143968D01*
X41513Y-1143981D01*
X41414Y-1143999D01*
X41317Y-1144020D01*
X41221Y-1144045D01*
X41125Y-1144074D01*
X41031Y-1144107D01*
X40938Y-1144143D01*
X40847Y-1144183D01*
X40757Y-1144227D01*
X40669Y-1144274D01*
X40583Y-1144324D01*
X40499Y-1144378D01*
X40417Y-1144435D01*
X40338Y-1144495D01*
X40260Y-1144559D01*
X40186Y-1144625D01*
X40114Y-1144694D01*
X40045Y-1144766D01*
X39979Y-1144840D01*
X39915Y-1144918D01*
X39855Y-1144997D01*
X39798Y-1145079D01*
X39744Y-1145163D01*
X39694Y-1145249D01*
X39647Y-1145337D01*
X39603Y-1145427D01*
X39563Y-1145518D01*
X39527Y-1145611D01*
X39494Y-1145705D01*
X39465Y-1145801D01*
X39440Y-1145897D01*
X39419Y-1145994D01*
X39401Y-1146093D01*
X39388Y-1146191D01*
X39378Y-1146291D01*
X39372Y-1146390D01*
X39370Y-1146490D01*
X39370Y-1160460D01*
X39372Y-1160560D01*
X39378Y-1160659D01*
X39388Y-1160759D01*
X39401Y-1160857D01*
X39419Y-1160956D01*
X39440Y-1161053D01*
X39465Y-1161149D01*
X39494Y-1161245D01*
X39527Y-1161339D01*
X39563Y-1161432D01*
X39603Y-1161523D01*
X39647Y-1161613D01*
X39694Y-1161701D01*
X39744Y-1161787D01*
X39798Y-1161871D01*
X39855Y-1161953D01*
X39915Y-1162032D01*
X39979Y-1162110D01*
X40045Y-1162184D01*
X40114Y-1162256D01*
X40186Y-1162325D01*
X40260Y-1162391D01*
X40338Y-1162455D01*
X40417Y-1162515D01*
X40499Y-1162572D01*
X40583Y-1162626D01*
X40669Y-1162676D01*
X40757Y-1162723D01*
X40847Y-1162767D01*
X40938Y-1162807D01*
X41031Y-1162843D01*
X41125Y-1162876D01*
X41221Y-1162905D01*
X41317Y-1162930D01*
X41414Y-1162951D01*
X41513Y-1162969D01*
X41611Y-1162982D01*
X41711Y-1162992D01*
X41810Y-1162998D01*
X41910Y-1163000D01*
D11*
X137468Y-1464325D02*
X162212Y-1467891D01*
X137468Y-1464325D02*
X146739Y-1399990D01*
X171483Y-1403555D01*
X162212Y-1467891D01*
X149840Y-1466108D02*
X150203Y-1463594D01*
X158749Y-1404287D02*
X159111Y-1401773D01*
X-136383Y-1464928D02*
X-161134Y-1468451D01*
X-170292Y-1404099D01*
X-145542Y-1400577D01*
X-136383Y-1464928D01*
X-148758Y-1466689D02*
X-149116Y-1464175D01*
X-157559Y-1404853D02*
X-157917Y-1402338D01*
D10*
X-398800Y-1136200D02*
X-398800Y-941200D01*
X-216300Y-941200D02*
X-216300Y-1136200D01*
X-398800Y-1136200D01*
X-398800Y-941200D02*
X-216300Y-941200D01*
X256700Y-1130600D02*
X358300Y-1130600D01*
X358300Y-1208600D02*
X256700Y-1208600D01*
X386000Y-1208600D02*
X386000Y-1130600D01*
X229000Y-1130600D02*
X229000Y-1208600D01*
X229000Y-1130600D02*
X256700Y-1130600D01*
X256700Y-1208600D02*
X229000Y-1208600D01*
X358300Y-1130600D02*
X386000Y-1130600D01*
X386000Y-1208600D02*
X358300Y-1208600D01*
X-230500Y-1233800D02*
X-230500Y-1133800D01*
X-230500Y-1233800D02*
X-370500Y-1233800D01*
X-370500Y-1133800D02*
X-230500Y-1133800D01*
D13*
X-370500Y-1133800D02*
X-370500Y-1233800D01*
D11*
X365000Y-381900D02*
X365000Y-176900D01*
X645000Y-176900D01*
X645000Y-381900D01*
X365000Y-381900D01*
D14*
X381000Y-386940D03*
D10*
X287400Y-526300D02*
X525400Y-526300D01*
X525400Y-578800D02*
X287400Y-578800D01*
X287400Y-526300D01*
X287400Y-578800D02*
X525400Y-578800D01*
X525400Y-526300D01*
X-250523Y-656492D02*
X-500451Y-728158D01*
X-599681Y-382104D02*
X-349753Y-310438D01*
X-599681Y-382104D02*
X-500451Y-728158D01*
X-250523Y-656492D02*
X-349753Y-310438D01*
X-342900Y-749300D02*
X-266700Y-749300D01*
X399376Y-493100D02*
X399376Y-416900D01*
X438150Y-495000D02*
X514350Y-495000D01*
X50800Y-1281900D02*
X-25400Y-1281900D01*
X-60000Y-1810000D02*
X60000Y-1810000D01*
X-60000Y-1810000D02*
X-60000Y-2136000D01*
X60000Y-2136000D02*
X60000Y-1810000D01*
X60000Y-2136000D02*
X-60000Y-2136000D01*
X-600000Y-912000D02*
X-600000Y-808000D01*
X-600000Y-912000D02*
X-290000Y-912000D01*
X-290000Y-808000D02*
X-600000Y-808000D01*
X-290000Y-808000D02*
X-290000Y-912000D01*
X-52000Y-1730000D02*
X52000Y-1730000D01*
X52000Y-1420000D01*
X-52000Y-1420000D02*
X-52000Y-1730000D01*
X-52000Y-1420000D02*
X52000Y-1420000D01*
X600000Y-912000D02*
X600000Y-808000D01*
X290000Y-808000D01*
X290000Y-912000D02*
X600000Y-912000D01*
X290000Y-912000D02*
X290000Y-808000D01*
X77780Y-768500D02*
X77780Y-848500D01*
X-78220Y-848500D02*
X-78220Y-768500D01*
X77780Y-768500D01*
X77780Y-848500D01*
X-78220Y-848500D01*
X-150491Y-1277342D02*
X-210487Y-1277342D01*
X-150491Y-1277342D02*
X-150491Y-1164700D01*
X-210487Y-1164700D01*
X-210487Y-1277342D01*
M02*
