M48
;GenerationSoftware,Autodesk,EAGLE,9.7.0*%
;CreationDate,2024-05-14T06:36:29Z*%
FMAT,2
ICI,OFF
METRIC,TZ,000.000
T10C0.600
T9C0.800
T8C0.850
T7C0.965
T6C0.980
T5C1.050
T4C1.110
T3C3.400
T2C4.400
T1C4.440
%
G90
M71
T1
X-3622Y-80850
T2
X3578Y-80850
T3
X22650Y-89810
X-22650Y-89810
X-22650Y-82190
X3810Y-135650
X-3810Y-135650
X22650Y-82190
T4
X38100Y-21590
X62900Y-26670
X62900Y-29210
X62900Y-31750
X62900Y-34290
X62900Y-36830
X38100Y-19050
X38100Y-24130
X38100Y-26670
X38100Y-29210
X38100Y-31750
X38100Y-34290
X38100Y-36830
X62900Y-19050
X62900Y-21590
X62900Y-24130
T5
X30480Y-55880
X-36879Y-66960
X-34438Y-66260
X-39321Y-67660
X-41762Y-68360
X-24130Y-106410
X48260Y-55880
X-24130Y-108950
X-24130Y-98790
X16526Y-109886
X16526Y-112426
X16526Y-114966
X16526Y-117506
X-24130Y-111490
X-24130Y-96250
X26940Y-118760
X29480Y-118760
X32020Y-118760
X34560Y-118760
X40640Y-55880
X43180Y-55880
X45720Y-55880
X50800Y-55880
X38100Y-55880
X35560Y-55880
X33020Y-55880
T6
X-20100Y-133100
X-17100Y-133100
X20100Y-133100
X17100Y-133100
T7
X-5080Y-86836
X-2540Y-86836
X5080Y-86836
X7620Y-104616
X7620Y-109696
X7620Y-99536
X-24130Y-103870
X-24130Y-101330
X7620Y-117316
X-7620Y-107156
X7620Y-114776
X7620Y-112236
X7620Y-107156
X7620Y-102076
X7620Y-96996
X7620Y-94456
X7620Y-91916
X7620Y-89376
X7620Y-86836
X-7620Y-86836
X-7620Y-89376
X-7620Y-91916
X-7620Y-112236
X-7620Y-104616
X-7620Y-102076
X-7620Y-99536
X-7620Y-94456
X-7620Y-117316
X-7620Y-96996
X2540Y-86836
X0Y-86836
X-7620Y-109696
X-7620Y-119856
X7620Y-119856
X-7620Y-114776
T8
X-2540Y-177190
X0Y-177190
X2540Y-177190
X-27000Y-87270
X-27000Y-84730
X1270Y-140000
X-1270Y-140000
X27000Y-84730
X27000Y-87270
T9
X30310Y-108600
X38810Y-108600
X-15933Y-139244
X14841Y-147601
X16054Y-139187
X-14735Y-147659
T10
X-34290Y-74930
X-26670Y-74930
X39938Y-49310
X39938Y-41690
X51435Y-49500
X5080Y-128190
X-2540Y-128190
X43815Y-49500
M30